<?xml version="1.0" encoding="UTF-8"?>
<svg id="Layer_1" data-name="Layer 1" xmlns="http://www.w3.org/2000/svg" viewBox="0 0 874.07 887.59">
  <defs>
    <style>
      .cls-1 {
        fill: #f1a4ba;
      }

      .cls-2 {
        fill: #c42e83;
      }

      .cls-3 {
        fill: #21508e;
      }

      .cls-4 {
        fill: #ef8d31;
      }

      .cls-5 {
        fill: #f8d13a;
      }

      .cls-6 {
        fill: #399560;
      }

      .cls-7 {
        fill: #64c3d2;
      }

      .cls-8 {
        fill: #222322;
      }

      .cls-9 {
        fill: #fefefe;
      }

      .cls-10 {
        fill: #523984;
      }

      .cls-11 {
        fill: #0f0f0e;
      }

      .cls-12 {
        fill: #e13a31;
      }
    </style>
  </defs>
  <path class="cls-1" d="M113.62,448.01c-1.04,1.66-3.79,1-5.48,1.02-8.98.11-18.02.09-27,0-1.69-.02-4.44.64-5.48-1.02,12.59.19,25.38.29,37.96,0Z"/>
  <path class="cls-1" d="M385.35,296.01c-6.44,1.67-15.54,1.67-21.98,0,7.28.13,14.71.19,21.98,0Z"/>
  <path class="cls-6" d="M429.31,766.01c.08-7.25.3-14.77,0-22,1.67,6.45,1.67,15.55,0,22Z"/>
  <g>
    <path class="cls-8" d="M498.24,25.01c5.24,2.12,13.99,12.99,14.99,13,.45-.57.78-.24,1,1,.34.62.84.78,1,1,38.78,36.61,72.57,77.3,78.68,132.51,4.78,43.27-10.25,97.9-27.11,137.33-9.1,21.28-24.51,24.33-42.13,8.34-3.8-4.37-7.94-8.1-12.43-11.18-1.36-1.36-2.65-2.59-4-4-.22-1.03-.8-1.88-1.48-2.66-43.91-50.44-74.56-86.67-77.82-157.06-1.85-39.95,1.26-82.77,4.42-122.27,7.65-39.74,46.89-10.21,64.89,3.98Z"/>
    <g>
      <path class="cls-10" d="M428.31,142.01c-1.66-1.04-1-3.79-1.02-5.49-.12-9.32-.1-18.7,0-28.03.02-1.69-.64-4.45,1.02-5.49-.23,12.92-.33,26.09,0,39Z"/>
      <g>
        <path class="cls-11" d="M428.31,103.01c.42-23.81-.05-59.81,4.12-82.38,1.84-9.96,6.59-18.65,17.6-20.39s23.89,6.46,33,12.52l15.21,12.25c-8.45-3.42-16.75-11.82-25.67-16.81-13.37-7.47-31.56-11.04-36.99,7.59-4.64,15.95-3.5,46.07-4.29,63.71-1.42,31.71-4.27,63.93,1.46,95.56,8.65,47.76,42.63,87.91,73.44,123.47.84.97,2.97,3.12,2.03,4.48-44.94-47.12-78.15-92.07-79.92-161-1.04-12.92-.99-26.07,0-39Z"/>
        <path class="cls-11" d="M515.23,40.01c3.55,2.25,7.54,5.99,10.54,8.94,59.41,58.39,83.54,112.43,62.52,196.72-3.57,14.33-17.53,63.75-25.25,73.69-1.43,1.85-8.2,8.01-10.31,8.67-17.86,5.64-29.55-10.08-40.5-21.03.69-1.54,4.54,2.02,5.02,2.47,5.81,5.51,12.47,13.64,20.73,16.25,21.6,6.81,26.21-12.34,32.21-28.2,30.31-80.13,38.49-144.51-16.59-215.43-11.45-14.74-28.21-28.07-38.38-42.09Z"/>
        <path class="cls-11" d="M514.23,39.01l-1-1c.08,0,.42-1,.98-1.02.17.61-.18,1.67.02,2.02Z"/>
        <path class="cls-7" d="M460.28,12.01c.32.05.68-.06,1,0,1.8.11,2.8.77,3,2,.08.14.67-.1,1,0l8.99,5c3.01,1.72,5.34,3.72,6.99,6,1.01.62,1.94,1.48,3,2,1.44.34,2.44,1.01,3,2,8.29,10.42,30.49,27.06,41.96,38,1.98,3.55,4.64,6.55,7.99,9,1.64.95,2.77,2.04,3,4,.28.36.67.68,1,1l1,1c.41.55.61,1.4,1,2-.33.53-.67.53-1,0-2.77.86-5.6,1.71-8.51,1.74-29.68.39-59.6.74-89.17-.31l-4.21-1.44c-.28.87-.62.86-1,0-.68-.86-1.21-1.72-1.17-2.56.69-17.72,1.46-35.93,3.34-53.52.46-4.3,1.15-9.72,3.82-12.92.38-.31.7-.8,1-1l1-1c.66-.3,1.36-.8,2-1,2.31-2.94,8.34-2.58,10.99,0Z"/>
        <path class="cls-7" d="M561.18,294.01c.28-.87.62-.86,1,0-.85,6.99-3.63,14.45-7.99,20-.71.67-1.32,1.36-2,2l-1,1c-.33.34-.68.64-1,1-1.91,2.6-7.07,2.59-8.99,0-1.94-1.38-5.23-2.6-6.99-4l-3-3c-6.4-5.55-12.39-11.64-17.98-18,.76-1.39,2.44.91,4.44,1.06,13.99,1.06,29.37-.91,43.51-.06Z"/>
        <path class="cls-11" d="M445.3,15.01c-1.47,4.68-2.47,9.63-2.98,14.51-1.82,17.22-2.31,37.03-3.01,54.49.89,7.84.55,15.51-1,23,1.98,8.29,2.68,16.98,2.1,26.07,1.16,8.9,1.13,17.54-.1,25.93l2.46,3.62c2.23,21.88,9.01,42.2,20.67,60.29-.29,1.54-.34,3.24-.15,5.09-5.18.55-5.24-7.64-7.08-11.2-21.21-41.23-20.03-68.28-19.94-113.26.05-23.23,2.18-49.2,4.68-72.19.14-1.32-.72-2.83-.44-4.56.42-2.54,1.5-7.48,2.28-9.85,1-3.02,2.06-1.57,2.51-1.95Z"/>
        <path class="cls-11" d="M566.18,116.01c2.42-.53,2.07,1.24,2.81,2.63,29.01,54.07,18.09,105.11.11,158.89-2.41,7.21-8.93,30.92-12.84,35.85-.92,1.16-1.95.51-2.08.63,2.94-6.61,5.58-13.16,7.99-20,15.65-48.47,28.13-100.48,15.19-150.63-3.43-8.73-7.27-17.29-11.51-25.66l.31-1.7Z"/>
        <path class="cls-11" d="M529.21,67.01c3.63,3.46,4.72,4.64,7.99,9,1.88.96,3.48.18,3,4-.98-1.28-2.05-2.74-3-4-3.41-1.73-8.02-4.56-7.99-9Z"/>
        <path class="cls-11" d="M449.29,12.01c-.63-4.32,11.27-3.97,10.99,0-4.64-.77-6.03-1.58-10.99,0Z"/>
        <path class="cls-11" d="M465.28,14.01c5.29,1.64,5.6,2.68,8.99,5,1.03.71,2.53,1.48,4.23,2.66.57.4,3.46-1.22,2.77,3.34-2.84-1.73-6.2-5.48-6.99-6-2.18-1.43-7.59-1.76-8.99-5Z"/>
        <path class="cls-11" d="M550.19,318.01c-.72.81.56,2.8-4.5,2.8s-4.24-2.62-4.49-2.8c3.1,1.22,5.89,1.22,8.99,0Z"/>
        <path class="cls-11" d="M544.2,84.01c3.79.7,1.12.85,2,3-1.43-.43-1.98-1.54-2-3Z"/>
        <path class="cls-11" d="M484.26,27.01c.46.23,2.11-.47,2.81.19.52.48.04,1.63.18,1.81-1.46-.01-2.56-.57-3-2Z"/>
        <path class="cls-11" d="M461.28,12.01c.82.15,2.7-.25,3,0,.25.21-.23,1.62,0,2l-3-2Z"/>
        <path class="cls-11" d="M551.19,317.01l1-1c-.34.32-.68.66-1,1Z"/>
        <path class="cls-11" d="M534.21,314.01c-1.47-1.17-2.08-2.21-3-3l3,3Z"/>
        <path class="cls-11" d="M542.2,82.01l-1-1c.33.33.72.63,1,1Z"/>
        <path class="cls-11" d="M446.3,14.01c.36-.24.65-.84,1-1l-1,1Z"/>
        <g>
          <path class="cls-1" d="M477.26,248.01c-6.08-7.36-10.95-15.36-14.63-23.98l.64-1.02.7-2h113.96l1.23,2c1.14,1.48.86,2.9.52,4.55-4.65,22.56-10.18,44.98-18.51,66.45l-3.77,1.84c-10.51.64-23.81,1.05-34.25.49-4.8-.25-6.27-.88-9.93-3.33-1.42-1.62-2.47-3.49-4-5-.6.61-1.26.28-2-1-.77-1.1-.71-1.24-2-2l-2-3c-.24-.45-.83-.71-1-1-2.66-2.2-4.99-4.86-6.99-8-.36-.25-.63-.72-1-1-1.04-2.07-2.37-3.74-4-5-3.2-4.62-6.19-9.85-9.99-14-.42-1.6-1.62-2.29-3-3-1.64-.4-1.83-1.79,0-2Z"/>
          <path class="cls-11" d="M502.24,281.01c-3.64.93-5.65-5.05-6.99-8,4.22,3.01,4.21,3.26,6.99,8Z"/>
          <path class="cls-11" d="M472.27,242.01c-4.54.3-5.5-3.08-5-7,2.23,1.45,4.34,4.41,5,7Z"/>
          <path class="cls-11" d="M477.26,248.01c.24.28-.24,1.76,0,2,.32.33,3.42,0,3,3-.23-.25-2.61-2.62-3-3-.13-.13-1.16.25-1.7-.29-1.77-1.78-3.89-3.16-2.3-5.71,1.51.47,2.84,1.8,4,4Z"/>
          <path class="cls-11" d="M466.28,233.01c-4.71.66-2.37-1.16-3-4,1.62-.97,3.14,2.45,3,4Z"/>
          <path class="cls-9" d="M544.2,84.01c.94.66,1.61,1.66,2,3,1.32,3.23,5.63,8.16,7.99,11l1,1c.31.37.7.65,1,1,2.25,2.81,4.41,5.74,5.99,9,.11.28-.11.7,0,1,1.52.41,2.52,1.74,3,4,.26,1.05.84,1.53,1,2,4.2,12.2,11.09,22.73,14.5,35.99,11.56,44.95-3.41,99.22-18.49,142.01h-1c6.23-23.52,15.58-46.67,17.98-71h-115.89c1.61,9.1,9.96,16.61,13.99,25-1-1.19-2.76-2.31-4-4-.42-.57-.59-1.42-1-2-1.61-2.3-3.5-4.69-5-7-.4-.62-.61-1.38-1-2-.87-1.41-1.07-3.3-3-4-.07-.32.08-.69,0-1-1.47-5.75-8.4-15.03-11.17-21.32-6.94-15.76-9.83-30.74-11.81-47.68-.22-1.74-.29-4.15,1.69-4.11,45.21-.39,90.47-.17,135.78.64-4.85-25.51-20.99-48.26-36.14-68.83l.56-2.7c.33.01.67-.02,1,0s.68-.06,1,0Z"/>
          <path class="cls-11" d="M562.18,110.01c4.78-.69,2.31,1.28,3,4-1.66-.75-2.42-2.41-3-4Z"/>
          <path class="cls-11" d="M505.24,285.01c-3.58-2.1-.84-.83-2-3,1.4.48,1.98,1.54,2,3Z"/>
          <path class="cls-11" d="M509.23,288.01l-.49,2c-1.39-.61-1.1-2.42-1.5-3,.97-.06,1.38.38,2,1Z"/>
          <path class="cls-11" d="M556.19,100.01c3.12,3.7,3.81,3.62,5.99,9l-5.99-9Z"/>
          <path class="cls-11" d="M490.25,267.01c2.49-.49,3.32,2.96,4,5-2.78-2.13-2.03-2.16-4-5Z"/>
          <path class="cls-11" d="M555.19,99.01l-1-1c.3.36.7.64,1,1Z"/>
          <path class="cls-1" d="M542.2,84.01c.93,1.85,2.76,2.94,3.88,4.65,11.73,17.86,24.12,34.45,31.14,55.8,1.26,3.83,1.97,8.56,2.94,12.55-45.16,1.34-91.35-1.78-136.41,0-1.92.08-4.01-1.03-3.45,2-2.01-17.18-2.38-34.45-2-52,.21-1.25.42-2.36,1.08-1.25-.17-7.28.13-14.53.91-21.75,33.88.97,68.05-1.3,101.9,0Z"/>
          <path class="cls-9" d="M440.3,84.01c-.19,6.49.26,13.05,0,19.55-.08,1.93,1.03,4.01-2,3.45.16-7.56.69-15.38,1-23h1Z"/>
        </g>
      </g>
    </g>
  </g>
  <g>
    <path class="cls-8" d="M74.66,328.01c26.42-22.17,56.84-36.31,91.79-38.36,35.44-2.08,86.26,9.07,119.47,21.65,30.17,11.43,19.7,25.21,4.79,43.71-.48.6-.66,1.16-.26,2.01-8.84,10.19-18.57,18.54-28.97,27-31.91,33.39-82.25,57.38-121.11,60.95-28.99,2.66-57.78,2.2-87,1.51-10.63-.25-33.88-1.13-43.61-6.69-5.88-3.36-8.75-8.42-8.32-15.4.96-15.57,27.2-48.9,36.84-60.02,1.05-1.21,2.21-2.3,3.42-3.34,8.65-12.12,20.72-24.48,32.97-33Z"/>
    <g>
      <path class="cls-11" d="M41.69,361.01c-8.55,11.99-18.95,25.11-27.67,38.75-5.41,8.46-11.42,16.35-11.3,27.76.02,1.86,1.37,6.08,2.5,7.49.25.31,5.83,4.34,6.37,4.59,7.79,3.62,12.88,2.8,20.36,3.65,36.21,4.11,70.28,2.74,106.08,1.78.59-.02.47-1.83,1.24-2.03,2.72-.72,5.18,1.12,6.76,1.03.61-.03.5-1.95,1.2-2.08,1.81-.35,3.58,1.13,4.79,1.08.59-.02.47-1.83,1.24-2.02,2.39-.58,5.58.39,8.56-.27,37.09-8.23,70.89-33.34,99.66-56.74-.4,2.7-3.08,4.78-4.98,6.51-42.16,38.38-85.77,56.18-142.87,57.49-12.58,1.02-25.38.97-37.96,0-16.61-.25-57.47,1.18-69.89-9.54C2.39,435.55-.07,429.19,0,424.79c.2-13.01,19.94-38.98,28.31-49.67,3.7-4.73,8.12-11.61,13.38-14.1Z"/>
      <path class="cls-11" d="M74.66,328.01c22.81-21.57,52.94-35.8,84.43-38.99,35.24-3.57,82.61,6.51,116.42,17.45,21.94,7.09,41.9,14.07,23.77,39.92-2.14,3.06-6.17,7.57-8.82,10.62-4.39.98,2.04-6.25,2.35-6.65,1.49-1.91,9.03-10.55,9.6-12.13,3.69-10.1.08-18.09-9-22.7-6.89-3.5-18.61-6-26.61-8.35-58.42-17.17-114.77-29.44-171.49,6.99-6.57,4.22-14.69,9.69-20.65,13.83Z"/>
      <path class="cls-11" d="M161.57,362.01c-.62,2.98,1.54,1.74,3.19,2.29,8.08,2.71,18.45,5.94,28.03,10.37.5.23,1.66-.77,1.73-.66.58.9-1.48,3.92,3.02,3,.53,1.9-.76,1.66-1,2-10.79-6.39-24.75-9.96-36.96-13.01-.34-1.88.96-2.8,2-3.99Z"/>
      <path class="cls-11" d="M148.59,315.01c.15-.15-.56-1.74.63-2.04,4.5-1.14,12.34,2.63,16.93,3.95,2.14.62,9.11-.03,9.41,4.09-8.84-1.31-17.84-5.72-26.97-6Z"/>
      <path class="cls-11" d="M102.63,373.01l-1,2c0-.11-1.56-1.44-.99-1.99.24-.23,1.73.22,1.99,0Z"/>
      <path class="cls-11" d="M101.63,377.01c-2.01-.47,0-.89,0-1v1Z"/>
      <g>
        <path class="cls-5" d="M175.56,321.01c.63.09,1.35-.07,2,0,2.71.13,4.71.8,5.99,2,.3.11.71-.11,1,0l1,1c.29.28.77,1.46,1,2-.08,3.04-3.03,7.5-5.99,9-.4.61-.6,1.39-1,2l-2,2c-.35.63-.74,1.33-1,2-.34,1.47-1.01,2.47-2,3-.39.31-.65.67-1,1-.1,1.82-.76,3.15-2,4-.84,1.85-1.77,3.62-4,4-.41.58-.61,1.39-1,2-.7,2.13-1.7,3.8-3,5-.93.81-1.19,1.07-2,2,.42,1.62.42,2.64,0,3.05,10.8,2.84,21.39,6.35,31.77,10.53l3.19,3.41c-1.22,1.75-2.67,3.32-4,5-.99,1.07-2.33,2.07-4,3-.28.12-.73-.13-1,0l-1,1c-.29.12-.73-.13-1,0-.39,1.5-1.73,2.5-4,3-1.06.26-1.38.72-2,1-.03,1.5-1.71,2.4-3,3-.32.05-.68-.07-1,0-6.97,3.95-13.96,7.95-20.98,12-.27.13-.73-.13-1,0l-1,1c-.27.13-.73-.13-1,0-2.68,3.16-6.34,5.49-10.99,7-.3.1-.7-.1-1,0-1.66,1.73-3.8,3.12-5.99,4-.28.11-.7-.11-1,0-11.33,9.58-15.56-1.01-5.99-10,.25-.34.7-.61,1-1,1.02-.73,1.64-1.81,2-3,.27-.36.76-.63,1-1l1-2c.21-.35.84-.64,1-1,.34-1.5,1.01-2.5,2-3,1.69-1.06,1.77-.85,2-3-.08-1.03.92-2.03,3-3,.08-.28-.06-.66,0-1,.7-1.37.81-2.6,0-4-.66,0-1.34-.05-2,0-11-2.34-21.65-5.34-31.97-9-.31-.09-.69.08-1,0l-1-1c-.53-.16-1.4.14-2,0-.53-.3-.51-.64,0-1,0-.33.02-.67,0-1-.66-1.21-.33-1.77,1-2,.17-.15-.16-.79,0-1l1-1c.16-.21-.16-.78,0-1l1-1c.39-.69,1.14-.4,2-3,.51-1.79,1.1-2.64,3-3,.15-.23-.15-.76,0-1l1-1c.25-.36.73-.63,1-1l2-3c.36-.47,1.23-.97,2-2l1-2c.59-.77,1.87-1.36,3-3l1-2c.25-.4,1.43-.79,2-2,.1-1.77.77-2.77,2-3,.27-.17.92-.77,1-1,.34-1.5,1.01-2.5,2-3,1.34-.78,1.27-1.23,2-2l1-1c.17-.18-.16-.8,0-1l1-1c.27-.36.74-.63,1-1l1-1c.16-.22-.16-.78,0-1l5-6c.28-.18.92-.78,1-1,.34-1.5,1-2.5,2-3,2.17-1.53,5.1-4.12,6.99-6,.38-.58.77-1.03,1.19-1.05,3-.17,22.51,4.62,24.88,6.07.37.22.65.59.91.99Z"/>
        <path class="cls-11" d="M137.6,387.01c-7.65.58-12.03-2.27-19.2-4.29-3.13-.88-12.45-.88-12.77-4.71,10.63,2.92,21.88,4.51,31.97,9Z"/>
        <path class="cls-11" d="M175.56,395.01c-.46,3.38-7.07,4.57-9.3,6.01-2.69,2.95-8.31,4.37-11.68,5.99,5.47-4.26,14.43-10.66,20.98-12Z"/>
        <path class="cls-11" d="M140.59,415.01c3.24-3.05,7.02-5.1,10.99-7,.48,5.84-7.43,5.78-10.99,7Z"/>
        <path class="cls-11" d="M126.61,409.01c-.35,3.61-6.35,7.44-4.54,10.98,2.39,4.69,7.7.02,10.54-.98.09,3.31-6.46,5.02-8.57,4.7-.3-.05-4.24-4.03-4.32-4.33-.66-2.27,3.03-5.92,4.48-7.84s2.3-2.37,2.42-2.53Z"/>
        <path class="cls-11" d="M177.56,321.01c1.28.14,6.91-1.76,5.99,2-1.72-.61-4.51.03-5.99-2Z"/>
        <path class="cls-11" d="M173.56,345.01c1.27,4.44-1.84,3.78-2,4-.69.98.72,4.9-4,4,1.75-2.48,3.48-3.38,4-4,.42-.51.15-2.25,2-4Z"/>
        <path class="cls-11" d="M179.56,392.01c.65,4.52-1.13,2.71-3,3-.18-2.86,1.47-2.32,3-3Z"/>
        <path class="cls-11" d="M185.55,388.01c.68,4.77-1.26,2.33-4,3,.75-1.79,2.45-2.27,4-3Z"/>
        <path class="cls-11" d="M139.59,392.01c-.39,1.34-1.78,2.39-3,3,.01-.13-1.59-1.09-.56-2.01l3.56-.99Z"/>
        <path class="cls-11" d="M138.6,325.01c-.28,2.74-2.84,4.56-5,6,2.39-3.41,1.75-3.89,5-6Z"/>
        <path class="cls-11" d="M186.55,326.01c1.97,4.55-.18,2.12-1.02,3.67-1.6,2.96.18,4.59-4.98,5.33,1.99-3.01,4.9-5.21,5.99-9Z"/>
        <path class="cls-11" d="M109.62,363.01c-.86,1.26-1.42,2.41-3,3,.24-.72-.19-2.09,0-3h3Z"/>
        <path class="cls-11" d="M139.59,387.01c3.77-.01,1.91,2.03,0,4,.2-1.21-.14-2.72,0-4Z"/>
        <path class="cls-11" d="M134.6,398.01c0,1.47-.6,2.51-2,3,.26-.57-.4-2.35.1-2.92.36-.41,1.63.09,1.9-.08Z"/>
        <path class="cls-11" d="M139.59,415.01c1.03.68-3.44,3.85-3.73,3.97-.8.32-1.85-.13-2.27.03,1.07-1.94,4.02-3.36,5.99-4Z"/>
        <path class="cls-11" d="M192.54,384.01c-.14.17.35,1.26-.19,1.79-.32.32-2.75.75-3.81,1.21.76-1.73,2.02-2.93,4-3Z"/>
        <path class="cls-11" d="M166.57,355.01c-.57,1.17-.54,4.14-1.21,4.83-.49.51-1.63.03-1.79.17.01-2.34,2.02-3.46,3-5Z"/>
        <path class="cls-11" d="M124.61,343.01l-2,3c.25-.54-.42-2.28.12-2.9.39-.44,1.61.06,1.88-.1Z"/>
        <path class="cls-11" d="M176.56,341.01c-.23.6.44,2.24-.14,2.87-.43.48-1.67-.03-1.86.13.01-1.46.57-2.57,2-3Z"/>
        <path class="cls-11" d="M141.59,321.01c-.01,1.46-.6,2.52-2,3,.24-.69-.41-2.32.1-2.91.37-.43,1.66.08,1.89-.09Z"/>
        <path class="cls-11" d="M127.61,339.01c-.01,1.46-.6,2.52-2,3,.24-.67-.4-2.35.1-2.92.37-.42,1.61.09,1.9-.08Z"/>
        <path class="cls-11" d="M111.62,360.01c.6-.82.99-1.69,2-3,0,1.47-.6,2.51-2,3Z"/>
        <path class="cls-11" d="M115.62,355.01c.14-.19.24-1.01,1-2l-1,2Z"/>
        <path class="cls-11" d="M119.61,350.01c.15-.22.49-1.18,1-2l-1,2Z"/>
        <path class="cls-11" d="M127.61,408.01c.62-.82,1.19-1.93,2-3-.01,1.46-.6,2.52-2,3Z"/>
        <path class="cls-11" d="M130.6,404.01c.23-.37.54-1.22,1-2l-1,2Z"/>
        <path class="cls-11" d="M152.58,408.01l1-1c-.17.08-.44.73-1,1Z"/>
        <path class="cls-11" d="M186.55,388.01l1-1c-.17.08-.43.76-1,1Z"/>
        <path class="cls-11" d="M104.63,378.01c-.73-.2-.93-.98-1-1l1,1Z"/>
        <path class="cls-11" d="M102.63,372.01c.4-.53.84-.79,1-1l-1,1Z"/>
        <path class="cls-11" d="M103.63,370.01c.33-.45.92-.86,1-1l-1,1Z"/>
        <path class="cls-11" d="M109.62,362.01c.28-.43.78-.69,1-1l-1,1Z"/>
        <path class="cls-11" d="M177.56,339.01l2-2c-.7,1.07-1.93,1.88-2,2Z"/>
        <path class="cls-11" d="M129.6,337.01c.33-.34.68-.66,1-1l-1,1Z"/>
        <path class="cls-11" d="M130.6,335.01c.31-.38.77-.68,1-1l-1,1Z"/>
        <path class="cls-11" d="M132.6,333.01c.27-.38.75-.64,1-1l-1,1Z"/>
        <path class="cls-11" d="M185.55,324.01l-1-1c.59.23.7.7,1,1Z"/>
      </g>
    </g>
  </g>
  <g>
    <path class="cls-8" d="M427.31,595.01c.38-1.04,1.12-1.49,2.1-1.79,10.36-3.21,21.26-4.44,32.07-5.66,61.24-6.88,124.65-.83,172.21,42.87,25.2,23.36,49.32,47.89,72.35,73.58,2.07,2.04,3.98,3.86,5.99,6,14.48,16.11,20.51,31.52-3.83,41.68-55.37,23.13-131.46,18.3-183.6-12.31-39.98-23.46-75.63-68.11-97.47-108.19-6.29-11.54-14.7-27.8.19-36.19Z"/>
    <g>
      <path class="cls-11" d="M427.31,595.01c.21-.41-.54-1.26.6-2.09,4.57-3.34,20.65-4.22,26.76-5.03,44.15-5.88,88.46-5.45,130.45,10.66,45.52,17.46,80.95,63.22,114,96.92,2.19,2.23,5.55,5.77,6.93,8.54-61.59-60.62-93.61-113.38-190.27-118.04-23.8-1.15-66.21,1.22-88.45,9.04-1.98,3.79-3.19,3-5.02,5.47-8.44,11.41,8.26,34.28,14.59,44.45,55.37,88.99,118.96,129.29,225.56,117.74,11.27-1.22,29.77-6.19,40.88-9.88,3.02-1,14.67-7.37,16.59-9.39,4.88-5.14,4.68-14.18,1.32-20.1-2.37-4.17-9.1-8.35-9.2-13.29,8.34,8.91,16.81,15.66,12.22,29.73s-41.25,21.65-54,23.95c-50.94,9.17-106.85,1.27-150.95-26.26-35.66-22.26-61.04-55.02-83.42-90.5-7.36-11.67-26.25-36.75-13.61-49.45,2.57-2.58,2.62-1.61,5.04-2.46Z"/>
      <path class="cls-5" d="M487.26,655.01c.4.47.73.47,1,0,3.74-2.51,7.24-2.49,10.99,0,1.25.75,2.74.77,4,0,6.7-2.5,13.27-2.48,19.98,0,5.27.86,10.71.85,15.98,0,5.64-1.97,11.35-1.97,16.98,0,1.58.79,3.41.8,5,0,.06-2.86,2.32-2.73,3,0,2.58.85,5.42.86,7.99,0,.1-.77.32-1.92.87-2,1.49-.21,15.94-.34,16.7,0s1.11,1.21,1.41,2c1.25.75,2.74.77,4,0,.4-3.06,7.33-2.93,7.99,0,.4.47.73.47,1,0,.35-3.03,6.39-2.89,6.99,0,1.01.7,1.98.75,3,0,.79-3.3,12.61-3.04,13.99,0,.4.47.73.47,1,0-.38-2.98,5.43-2.87,5.99,0,2.92.86,6.08.86,8.99,0,.3-.53.64-.52,1,0,1.42.06,2.75,1.06,4,3,1.68,1.66,3.27,3.34,5,5l5,5c.34.32.65.68,1,1,3.61,3,6.61,6.34,8.99,10,.99,1.05,2.04,2,3,3l1,1c.33.34.67.66,1,1l1,1c.33.34.67.66,1,1l8.99,9c.33.38.91,1.69,2,3,2.61,1.79,4.94,4.13,6.99,7,1.88,2.27,2.86,3.11,5,5,2.11,1.33,3.44,2.99,4,5v1l-.7,2h-190.34c-1.62-.25-3.51-1.06-4.77-2-1.07-.52-1.94-1.5-3-2l-5-4c-.77-.87-1.34-1.32-2-2l-1-1c-1-1.04-2-1.99-3-3l-3-3c-3.08-3.09-5.58-6.14-8.99-9-1.6-1.11-2.6-2.45-3-4-.69-.7-1.27-1.31-2-2l-3-4c-.68-.66-.66-1.21-2-2l-2-3c-.19-.36-.76-.64-1-1-.33-1.2-.99-2.25-2-3-.31-.36-.74-.66-1-1l-7.99-11c-.15-.23.15-.77,0-1l-1-1c-.34-.32-.6-.75-1-1-1.91-.59-1.9-1.49,0-2,.84-.84,2.02-.6,3,0,8.8-3.47,20-4,28.97-1Z"/>
      <path class="cls-2" d="M593.15,613.01c.29.07.66-.04,1,0l3,3c.31.09.71-.1,1,0,2.49.93,4.49,2.27,5.99,4,.29.1.68-.09,1,0,1.05.4,1.72,1.07,2,2,.26.29,1.45.73,2,1,1.9.64,3.23,1.64,4,3,.27.13.73-.13,1,0,2.04,1.13,3.71,2.46,5,4,.74,1,1.7,1.6,2,2,1.53.19,2.76,1.44,3,3,.65.36,1.35.64,2,1,1.66,2.04,3.82,3.54,5.99,5,1.35,1.44,2.63,2.63,4,4l1,1c.67.68,1.34,1.33,2,2l1,1c.67.67,1.33,1.33,2,2,1.5.85,3.8,2.33,3,4h-1c-2.9.88-6.09.87-8.99,0h-5.99c-.3.57-.63.56-1,0h-13.99c-.8.79-2.16.77-3,0h-6.99c-.3.57-.63.56-1,0h-7.99c-1.17.81-2.82.8-4,0h-18.98c-2.64.85-5.33.85-7.99,0h-3c-1.63.8-3.34.81-5,0-5.65,0-11.33,0-16.98,0-5.32.84-10.68.84-15.98,0-6.65.01-13.33-.03-19.98,0-1.3.78-2.66.78-4,0-3.65.02-7.34-.03-10.99,0-.26.46-.59.42-1,0-9.76.09-19.32.63-28.97,1l-4-1c-.81,1.98-2.39,1.08-2-1-.05-1.39-.85-1.62-1-2-2.15-2.79-4.14-5.79-5.99-9-.1-.33.13-.92,0-1-1.3-.22-1.77-.67-2-2-.09-.32.11-.72,0-1-1.36-.83-2.36-2.17-3-4-.1-.3.11-.72,0-1-1.36-.83-2.36-2.17-3-4-.1-.3.11-.71,0-1-1.72-1.49-3.05-3.49-4-6-.12-.28.12-.72,0-1-3.51-3.54-8.52-12.21-4-16,.72-.94,1.26-2.08,2-3,1.3-1.91,5.28-3.07,7.6-3.45,51.85-8.43,106.41-10.55,154.24,13.45Z"/>
      <path class="cls-7" d="M703.04,716.01c.32.07.7-.1,1,0l1,1c1.37,1.22,1.86,2.5,4,4,1.05.46,1.72,1.46,2,3,.34.27.66.68,1,1,2.84,2.51,5.45,8.43,2,11-.96.98-2.16,2.8-3,4-.37.94-1.37,1.61-3,2-.33.06-.7-.08-1,0-.1.72-.26,1.32-.64,1.53-2.23,1.23-11.99,4.75-14.84,5.55-51.49,14.42-113.66,12.78-159.36-16.08-.29-.11-.7.11-1,0-1.07-1.11-2.52-1.63-4-2-.14-.08-.67,0-1,0-.52.2-.86-.46-1-2-.06-.14-1.5-.7-2-1l-5.99-4c-1.79-1.72-3.18-3.8-5.99-4-.45.58-.78.24-1-1-.27-.51-.74-.7-1-1l-2-1v-1h195.81Z"/>
      <path class="cls-11" d="M707.04,742.01c.39,4.22-.11,2.38-2.46,2.99-4.1,1.07-8.8,4.23-11.24,4.95-47.68,14.13-114.89,12.46-158.17-13.4-1.56-.93-3.07-1.18-2.96-3.54,5.66,2.18,11.29,6.13,17.02,8.47,42.89,17.49,92.95,20.67,137.6,7.8,6.73-1.94,13.85-5.61,20.22-7.26Z"/>
      <path class="cls-11" d="M593.15,613.01c-10.54-2.72-20.83-8.57-31.96-11.51-35.81-9.44-86.16-8.52-122.12-1.21-2.75.56-5.03,2.2-7.76,2.72.13-.17-.27-1.19.21-1.75,2.08-2.45,26.41-5.68,31.27-6.23,43.15-4.88,86.81-2.83,126.76,15.09,1.45.65,2.92,1.32,3.6,2.89Z"/>
      <path class="cls-11" d="M429.31,606.01c-3.05,6.3,1.8,10.89,4,16-1.96.51-4.34-4.51-4.83-5.66-1.09-2.6-2.77-6.97-1.17-9.62.72-1.2,1.93-.62,2.01-.71Z"/>
      <path class="cls-11" d="M712.04,725.01c.12.11,1.11-.37,1.76.25.29.27.19,1.55.63,2.31.25.43,1.41.52,1.56,1.15.28,1.23.36,5.51.08,6.65s-1.89.47-2.04.63c2.4-4.77-.46-6.87-2-11Z"/>
      <path class="cls-11" d="M626.12,636.01c4.91,2.7,2.94,1.73,5.99,5-2.97-.88-5.16-1.72-5.99-5Z"/>
      <path class="cls-11" d="M451.29,652.01c-2.78.48-3.04-3.23-4.11-5.17s-.88-.42-1.88-3.83c2.76,2.21,4.77,5.73,5.99,9Z"/>
      <path class="cls-11" d="M604.14,620.01c-2.03-.71-4.89-2.01-5.99-4,2.27.77,5.89-.01,5.99,4Z"/>
      <path class="cls-11" d="M454.29,655.01c.84.12,1.17.45,1,1,.15.53-.1,1.37,0,2-.76-.48-3.81-.76-4-1.01-.75-.98,1-2.83,1-2.99.66.19,1.43.9,2,1Z"/>
      <path class="cls-11" d="M437.3,629.01c-4.12,0-3.16-4.06-4-6,2.04,1.12,3.22,3.93,4,6Z"/>
      <path class="cls-11" d="M504.24,714.01c-1.13-.54-2.8-.35-4.01-1.51-.98-.94-.79-2.27-.99-2.49,2.38.14,3.91,2.08,5,4Z"/>
      <path class="cls-11" d="M694.05,705.01c-2.9-1.77-4.87-4.44-6.99-7,3.86-.63,4.57,4.07,6.99,7Z"/>
      <path class="cls-11" d="M621.12,632.01c3.19-.34,3.33-.19,3,3-3.48-1.92-1.57-1.07-3-3Z"/>
      <path class="cls-11" d="M660.09,669.01c2.29,2.14,5.47,4.28,7.64,6.36.23.22,3.12,3.48,1.35,3.64-3.08-3.25-6.24-6.46-8.99-10Z"/>
      <path class="cls-11" d="M443.3,639.01c-3.62.11-2.43-2.32-3-4,1.69.75,2.39,2.41,3,4Z"/>
      <path class="cls-11" d="M440.3,634.01c-3.62.11-2.43-2.31-3-4,1.69.75,2.38,2.41,3,4Z"/>
      <path class="cls-11" d="M597.15,616.01c-1.63-.47-3.58-.99-3-3,.08,0,.32-1.32,1.51-.12.9.9,1.44,1.82,1.48,3.12Z"/>
      <path class="cls-11" d="M531.21,733.01c-2.83-1-2.02-.8-4-2,1.73-.19,3.48.18,4,2Z"/>
      <path class="cls-11" d="M471.27,680.01c-3.58-2.11-.84-.84-2-3,1.39.49,1.99,1.53,2,3Z"/>
      <path class="cls-11" d="M481.26,692.01c-1.45-1.21-3.93-.21-3-4,1.23,1.25,2.58,1.92,3,4Z"/>
      <path class="cls-11" d="M699.05,710.01c1.97,1.74,4.93,1.45,4,5l-4-5Z"/>
      <path class="cls-11" d="M709.04,721.01c.62.44,2.78-1.26,2,3-1.1-.87-2.11-1.07-2-3Z"/>
      <path class="cls-11" d="M523.22,728.01c-3.55-2.13-3.09-1.22-5.99-4l5.99,4Z"/>
      <path class="cls-11" d="M711.04,740.01c-.17.24.34,1.52-.09,1.9-.52.46-2.09-.04-2.91.1.43-1.43,1.54-1.99,3-2Z"/>
      <path class="cls-11" d="M649.1,658.01c-1.05-1.04-2.95-1.98-4-3-.19-.18-1.7-2.71-3-4,3.66.41,5.08,4.35,6.99,7Z"/>
      <path class="cls-11" d="M457.28,661.01l7.99,11c-2.3-3.01-5.26-7-7.99-11Z"/>
      <path class="cls-11" d="M614.13,626.01c1.12.56,4.44,1.77,4.82,2.2.51.58.03,1.61.17,1.8-2.03-.08-3.49-2.61-5-4Z"/>
      <path class="cls-11" d="M468.27,676.01c-.33-.51-1.87-2.85-2-3,1.38.51,1.99,1.53,2,3Z"/>
      <path class="cls-11" d="M609.14,623.01c1.73.85,4.67.05,4,3-1.48-.73-2.85-1.81-4-3Z"/>
      <path class="cls-11" d="M526.22,731.01c-.07,0-.19,1.26-.99,1-.19-.89.24-2.35-.01-3l1,2Z"/>
      <path class="cls-11" d="M605.14,620.01c3.73,1.08,1.19,1.12,2,2l-2-2Z"/>
      <path class="cls-11" d="M445.3,642.01c-.36-.22-1.74.25-2,0-.23-.23.16-1.44,0-2l2,2Z"/>
      <path class="cls-11" d="M476.27,686.01c-1.22-1.15-3.13-1.5-3-4,1.22,1.17,2.16,2.55,3,4Z"/>
      <path class="cls-11" d="M509.23,718.01c-.12-.14-1.85.27-2-1l2,1Z"/>
      <path class="cls-11" d="M511.23,720.01l-.98,1.01c-.16-.61.18-1.64-.02-2.01l1,1Z"/>
      <path class="cls-11" d="M637.11,646.01l-1-1c.33.33.67.66,1,1Z"/>
      <path class="cls-11" d="M640.11,649.01l-1-1c.33.33.67.67,1,1Z"/>
      <path class="cls-11" d="M457.28,660.01c-.2-.3-.68-.7-1-1l1,1Z"/>
      <path class="cls-11" d="M659.09,668.01l-5-5c1.7,1.63,3.35,3.46,5,5Z"/>
      <path class="cls-11" d="M673.07,683.01l-1-1c.32.34.67.66,1,1Z"/>
      <path class="cls-11" d="M675.07,685.01l-1-1c.33.34.67.66,1,1Z"/>
      <path class="cls-11" d="M685.06,695.01c-3.68-2.28-6.05-5.99-8.99-9,3.54,2.45,6.23,5.76,8.99,9Z"/>
      <path class="cls-11" d="M493.25,704.01c-.98-.99-2.01-2.01-3-3l3,3Z"/>
      <path class="cls-11" d="M497.25,708.01c-.33-.34-.67-.66-1-1l1,1Z"/>
      <path class="cls-11" d="M705.04,717.01l-1-1c.51.16.7.73,1,1Z"/>
      <path class="cls-4" d="M539.2,655.01c-4.26,1.69-11.93,1.66-15.98,0,5.32-.01,10.67,0,15.98,0Z"/>
      <path class="cls-4" d="M644.1,655.01c-1.86,1.68-7.13,1.68-8.99,0h8.99Z"/>
      <path class="cls-4" d="M572.17,655.01c-1.53,1.67-6.42,1.68-7.99,0,2.66,0,5.33,0,7.99,0Z"/>
      <path class="cls-4" d="M561.18,655.01c-.66,1.58-4.34,1.58-5,0,1.66,0,3.33,0,5,0Z"/>
      <path class="cls-4" d="M503.24,655.01c-.32,1.5-3.58,1.56-4,0,1.33,0,2.66,0,4,0Z"/>
      <path class="cls-4" d="M458.28,656.01c-1,.04-2-.03-3,0-.06-.2-.85-.56-1-1,1.21.21,3.28-.64,4,1Z"/>
      <path class="cls-4" d="M595.15,655.01c-.32,1.5-3.58,1.56-4,0h4Z"/>
      <path class="cls-4" d="M614.13,655.01c-.14,1.5-2.86,1.5-3,0h3Z"/>
      <path class="cls-4" d="M487.26,655.01c.33,0,.67,0,1,0l-.5.98-.5-.98Z"/>
      <polygon class="cls-4" points="603.14 655.01 604.14 655.01 603.64 655.99 603.14 655.01"/>
      <polygon class="cls-4" points="628.12 655.01 629.12 655.01 628.62 655.99 628.12 655.01"/>
    </g>
  </g>
  <g>
    <path class="cls-8" d="M178.56,466.01c1.64-.86,2.09-.86,1.35,0,13.52-9.32,28.23-19.44,44.21-24.98,24.87-8.62,30.79,4.44,32.04,26.91,1.96,35.54,1.27,71.5-6.67,106.4-7.02,30.85-20.3,52.51-38.96,76.67-2.14,7.88-37.05,38.35-44.96,45-6.05,3.47-11.84,7.81-17.38,13.01-20.01,16.38-48.51,33.77-57.89-2.25-7.88-30.27-5.97-83.31.17-114.22,9.69-48.81,38.39-92.97,79.93-120.59l1.16-1.96c1.75-1.11,5.17-4.02,6.99-4Z"/>
    <g>
      <path class="cls-11" d="M171.56,470.01c.65,2.81-.43,2.45-1.82,3.66-12.03,10.56-24.85,18.88-35.66,31.32-18.07,20.8-39.83,61.49-43,88.96-1.34,11.6-4.08,25.6-4.53,38.56-.18,5.27,1.17,12.66,1.17,17.98.01,21.4-1.57,47.76,7.7,67.23,2.77,5.81,10.6,9.26,16.7,9.37,14.22.24,39.51-22.66,51.21-31.81l2.24.73c-12.16,10.22-27.38,24.17-42.29,30.17-25.96,10.45-33.57-10.24-36.51-31.8-11.67-85.52,8.85-176.01,84.79-224.37Z"/>
      <path class="cls-11" d="M257.48,481.01c1.06,10.85,1.01,22.15,0,33-1.23,49.9-11.11,100.07-46.95,137,2.17-7.98,21.2-30.7,27.15-43.32,17.37-36.83,22.54-108.1,16.69-148.06-1.29-8.82-4.08-18.18-13.86-20.22-13.91-2.89-46.09,17.48-58.22,25.63-.7.47-.62,1.91-1.3,2.01-2.67.38-2.29-1.04-2.44-1.04,16.27-11.17,44.65-32.39,65.23-27.79,3.22.72,9.3,6.67,10.26,9.73,2.75,8.8,3.09,23.4,3.43,33.06Z"/>
      <path class="cls-1" d="M257.48,514.01c.26-10.7.38-22.32,0-33,1.66,1.04,1,3.79,1.02,5.49.09,7.33.08,14.7,0,22.03-.02,1.69.64,4.45-1.02,5.49Z"/>
      <path class="cls-3" d="M144.59,540.01l-6.97-8.53-9.01-7.96c4.1-3.54,22.89-27.55,26.47-27.55,4.35,4.01,9.87,7.41,14.13,11.39,8.52,7.94,17.92,18.16,26.33,26.65l5.99,6c8.94,9.06,27.22,32.41,36.96,38,2.22,4.96-2.01,14.46-5,19-.32.98-.66,2.03-1,3-1.63,5.05-3.96,9.72-6.99,14-2.68,2.52-1.6,4.49-5.99,1l-1-1c-1.14-1.01-2.62-2.71-4-4-2.55,0-3.89-.99-4-3-.06-1.12-.74-1.96-1-2.99,23.91-.5,20.83-38.59-1.84-31.35-2.11.67-4.39,3.47-5.52,3.27-.98-.17-12.29-12.01-14.14-13.92s-14.07-14.69-14.34-15.72c-.62-2.42,3.66-7.24,3.71-10.77.15-12.17-13.18-20.81-24.17-14.37-8.24,4.83-7.76,10.8-8.64,18.85Z"/>
      <path class="cls-3" d="M242.49,449.01c.3.18.68.69,1,1,7.29,22.84,5.85,50,4.08,73.95-.05.7-.51,1.38-1.08,2.05-.33-.02-.67.01-1,0-.44.57-.77.24-1-1-1.73-3.46-6.26-6.34-8.99-9l-19.98-20c-.65-.68-.91-2.77-2-3.52l-22.96-22.98c4.55-2.69,7.56-4.14,11.97-7.5.59-.57,1.25-1.24,2-2,.28-.12.72.12,1,0l1-1c.69-.32,1.33-.69,2-1,2.83-1.93,5.83-3.6,8.99-5,.75-.32,1.45-.78,2-1,8.21-5.78,15.87-6.78,22.98-3Z"/>
      <path class="cls-3" d="M104.63,675.01c5.06,4.65,9.72,9.65,13.99,15,2.44,2.55,15.28,15.2,15.84,16.68,1,2.66-4.77,5.07-6.85,6.32-1.72,1.68-3.72,3.01-5.99,4-.77.28-2.35.87-3,1-4.4,3.63-12.6,2.08-15.98-3-.14-.24.14-.73,0-1l-1.75-1.63c-2.94-4.91-7.72-38.82-6.41-44.26.11-.44.58-.79,1.17-1.11,2.85,1.78,6.27,5.56,8.99,8Z"/>
      <path class="cls-11" d="M243.49,450.01c2.89,2.84,2.86,3.8,3.72,7.78,1.34,6.18,2.01,16.2,2.31,22.68.73,15.57-.81,31.07-1.05,46.54-1.07.41-1.88-.99-1.99-1,1.29-25.12,3.18-51.45-3-76Z"/>
      <path class="cls-11" d="M95.64,667.01c.3,13.91.72,34.5,6.99,47-2.52.11-2.63-1.35-3.31-3.19-1.87-5.08-7.54-42.6-5.68-44.8,1.88-.56,1.66.79,1.99.99Z"/>
      <path class="cls-11" d="M238.5,578.01c.32.18,1.65-.31,1.92.04,1.21,1.59-3.18,13.75-4.18,16.25-.62,1.55-.26,3.23-2.73,2.71,2.02-6.19,5.38-12.36,5-19Z"/>
      <path class="cls-11" d="M118.62,718.01c.57,2.4-1.27,2.22-2.94,2.52-5.85,1.07-9.93-.29-13.05-5.52,5.16,5.01,9.55,4.29,15.98,3Z"/>
      <path class="cls-11" d="M232.5,600.01c-2.21,6.25-1.66,8.99-6.99,14l6.99-14Z"/>
      <path class="cls-11" d="M141.59,542.01c-2.71.8-5.17,2.49-7.99,3,.13-.14-.27-1.19.21-1.76.76-.89,6.86-3.57,7.78-1.24Z"/>
      <path class="cls-11" d="M242.49,449.01c-7.45-4.47-15.75.07-22.98,3,5.97-4.12,17.33-9.87,22.98-3Z"/>
      <path class="cls-11" d="M121.61,717.01c1.27-1.97,3.94-2.77,5.99-4-1.43,3.63-3.56,3.1-5.99,4Z"/>
      <path class="cls-11" d="M204.53,460.01c.69,2.77-1.59,1.69-2,2-4.81-.57-.14-1.1,2-2Z"/>
      <path class="cls-11" d="M104.63,675.01c4.95,4.43,11.1,8.76,13.99,15-4.72-4.94-9.72-9.64-13.99-15Z"/>
      <path class="cls-11" d="M217.52,453.01c-2.53,2.16-5.98,3.58-8.99,5,1.84-3.09,5.95-3.68,8.99-5Z"/>
      <path class="cls-11" d="M245.49,526.01l-.99,1c-.14-.61.18-1.62-.01-2l1,1Z"/>
      <path class="cls-11" d="M235.5,516.01c-6.8-6.62-13.42-13.13-19.98-20l19.98,20Z"/>
      <path class="cls-11" d="M201.53,540.01l-5.99-6c1.98,2,4,3.98,5.99,6Z"/>
      <path class="cls-11" d="M205.53,460.01c.23-.1.53-.78,1-1l-1,1Z"/>
      <path class="cls-11" d="M219.52,615.01c-.37-.29-.65-.69-1-1l1,1Z"/>
      <g>
        <path class="cls-12" d="M144.59,540.01c-7.29-19.32,20.15-32.13,31.66-14.91,5,7.48,3.17,13.04-.55,20.63,8.53,9.67,17.47,18.99,26.75,27.95,26.39-17.08,36.93,27.81,9.64,31.94l-1.56,1.39c1.52.92,1.56,3.23.12,6.91l-1.12,1.09c-1.12.93-.89,1.9-1,2l-1,1c-1.21,1.16-3.57,2.97-5,4-2.6,2.08-8.48,3.33-10.99,1-.33-.02-.67.03-1,0-3.53-1.02-7.64-4.67-8.99-8-.07-.31.06-.68,0-1-2.69-2.85-2.63-9.23,0-12,.06-.33-.08-.7,0-1,1.81-2.12,2.48-4.12,2-6-1.97-3.74-6.93-7.09-9.99-10-4.44-3.95-8.44-8.28-11.99-13-1.7-1.69-2.93-2.05-4-3-1.87-.77-3.18-1.03-5,0-.25.33-.68.64-1,1-2.86,3.42-10.1,4.1-13.99,2-.87-.56-2.24-1.44-3-2-8.59-4.5-8.63-14.4-4-22,.26-.36,2.18-2.1,3-3,1.42-2.02,5.45-3.53,7.99-3,2.54-.75,2.61,1.55,3-2Z"/>
        <path class="cls-11" d="M151.58,570.01c-.12.14.43,1.2-.64,2.06-2.35,1.9-8.84,2.59-11.71,1.75-1.28-.37-1.38-1.65-1.64-1.81,5.1.32,9.32.13,13.99-2Z"/>
        <path class="cls-11" d="M134.6,570.01c-.7-.52-2.02-.35-3.55-1.93-6.69-6.92-5.52-13.02-.45-20.07-2.92,7.9-3.85,16.83,4,22Z"/>
        <path class="cls-11" d="M181.55,602.01c-1,5.64-1.03,6.33,0,12-4.11.3-4.11-12.3,0-12Z"/>
        <path class="cls-11" d="M214.52,610.01h-3c1.05,6.09-1.05,4.21-2,5,.36-2.75,1.15-5.13,1-8,2.52-.21,2.89,1.95,4,3Z"/>
        <path class="cls-11" d="M202.53,622.01c-.35.25-.53,1.23-1.67,1.79-2.45,1.21-10.43,2.82-9.32-.79,3.54.16,7.8.52,10.99-1Z"/>
        <path class="cls-11" d="M157.58,569.01h-5c4.72-6.28,3.51-1.33,5,0Z"/>
        <path class="cls-11" d="M173.56,585.01c-4.14-3.93-10.32-7.45-11.99-13,4.17,4.15,8.23,8.47,11.99,13Z"/>
        <path class="cls-11" d="M190.54,623.01c-5.88-.49-2.58-.4-5.41-3.06-1-.94-3.07-1.76-3.36-2.18-.62-.91-.04-2.02-.22-2.76,2.93,3.23,5.08,5.8,8.99,8Z"/>
        <path class="cls-11" d="M181.55,601.01c.14-.57-.27-1.5.02-2.29s3.08-.97,1.98-3.71c1.48,2.8.72,4.23-2,6Z"/>
        <path class="cls-11" d="M207.53,618.01l1-1c-.34.33-.66.67-1,1Z"/>
      </g>
      <g>
        <path class="cls-3" d="M139.59,595.01l1,1,1,1,4,4c.66.68,1.35,1.33,2,2l2,2c9.83,10.12,19.04,21.34,28.95,31.53,2.43,2.5,16.61,15.04,16.9,16.17s0,2.03-.83,2.84l-25.67,25.38-2.39-1.39c-19.53-19.99-38.93-39.99-58.91-59.53l-5-5c-1.03-1.06-1.92-1.97-3-3-1.34-.92-2.01-1.92-2-3-.43-14.07,5.68-31.84,10.5-45,2.12-.46,6.03,6.02,7.45,7.52,7.66,8.11,15.86,15.86,24,23.47Z"/>
        <path class="cls-11" d="M140.59,596.01l-1-1,1,1Z"/>
        <path class="cls-11" d="M145.59,601.01l-4-4c2.03.73,2.78,2.75,4,4Z"/>
        <path class="cls-11" d="M149.58,605.01l-2-2c.65.67,1.33,1.32,2,2Z"/>
        <path class="cls-11" d="M99.63,612.01c-.65-.62-2.1-1.01-2.52-2.01-.39-.6.53-.94.52-.99l2,3Z"/>
        <path class="cls-11" d="M107.63,620.01c-1.72-1.68-3.31-3.28-5-5l5,5Z"/>
      </g>
    </g>
  </g>
  <g>
    <path class="cls-8" d="M292.45,810.01c-5.93-10.64-14.91-20.55-21.04-31.46-25.15-44.8-22.31-89.09-11.84-136.94,4.75-21.72,11.02-48.4,18.87-69.11,2.09-5.52,5.53-13.47,11.96-15.02,10.59-2.54,21.28,6.61,28.54,13.51,20.78,19.74,45,46.44,63.39,68.55,42.43,51.01,49.55,90.38,43.98,155.97-1.59,18.73-5.79,63.58-12.56,79.43-2.37,5.54-13.96,12.11-19.83,11.04-21.18-3.87-54.99-30.53-71.51-45.45-9.59-8.65-20.81-23.84-29.96-30.51Z"/>
    <g>
      <path class="cls-11" d="M292.45,810.01c-23.31-17.01-41.23-68.96-43-97.46-2.38-38.27,12.1-96.82,24.53-133.53,4.86-14.35,9.05-28.13,27.66-22.72,7.93,2.31,19.94,15.43,26.3,21.67,45.57,44.71,98.58,98.56,101.37,166.03.98,7.3.89,14.7,0,22-.35,32.13-5.58,65.03-9.56,95.15-4.01,30.32-23.63,31.38-47.05,19.02-22.25-11.74-68.49-49.06-80.25-70.17,3.5-.19,6.85,1.96,10.05,6.42,22.15,24.95,50.73,51.3,81.79,64.48,18.75,7.95,27.53-1.78,31.43-19.65,3.22-14.76,5.09-29.95,6.63-44.99,6.75-65.79,8.04-111.08-34.22-166.31-21.29-27.82-46.66-53.97-71.57-78.49-16.89-16.63-30.19-18.79-37.72,5.78-16.57,54.05-36.15,120.95-16.6,176.23,7.08,20.03,18.05,35.64,30.23,52.61.4,1.3.38,2.61-.02,3.93Z"/>
      <path class="cls-3" d="M305.43,570.01c1.26-.09,2.59.91,4,3,3.91,4.71,8.25,9.12,12.99,13l2,2c25.63,26.61,49.52,54.74,71.93,84l2,3c.33.89.78,1.46,1,2l3,5c.32.72.71,1.35,1,2l4,8c.1.3-.1.7,0,1,5.85,10.19,8.5,22.37,10.98,33.98.86,4.02,3.01,21.65-2.98,15.02-2.99-4.37-7.38-7.3-10.99-11l-3-3c-.36-.65-.86-3.07-1-4,2.42-9.77,2.76-19.25,0-29-.76-1.59-1.07-2.35-2-4l-2-3c-9.35-13.61-25.52-19.29-41.28-12.78-1.62.67-2.16,4.21-5.02,3.6-.71-.15-9.27-8.44-10.64-9.81l-5.99-6c-1.09-1.32-1.62-4.54-4-5-.45.57-.78.24-1-1-1.25-2.53-3.29-3.33-5-5l-11.99-12c-7.5-8.01-14.92-16.07-22.98-24l-10.99-11c-.81-4,8.9-33.02,11.97-36.52,5.1-5.82,10.78-2.13,16,1.52Z"/>
      <path class="cls-9" d="M283.45,743.01c-.23-.33-.22-1.51-.94-2.51-4.25-5.87-20.64-19.96-21.82-25.2s-.6-22.64-.2-28.78c.56-8.53,3.47-17.31,2.97-25.95.52-4.33,6.8,5.53,7.36,6.08,1.9,1.88,8.97,6.85,9.53,9.06.39,1.54-4.08,8.12-4.94,10.74-9.88,29.99,18.18,63.24,39.49,81.58,3.62,3.11,8.89,8.17,13.86,7.92,6.48-.32,25.47-10.38,31.88-13.97,1.16-.65,1.63-3.69,5.03-2.83,1.87.47,24.3,23.42,27.68,26.85,8.54,6.65,17.53,14.95,24.17,23.71.56.73-2.31,16.31-3.05,17.97-1,13.36-2.85,26.35-5.54,38.99-.73.16-1.45.19-2.19.2-2.4.02-30.2-28.47-34.05-32.78-1.07-1.2-1.89-2.54-2.33-4.09-.67-.66-1.33-1.33-2-2-3.26-1.36-5.62-3.74-6.99-7-.33-.33-.67-.67-1-1-2.53-.76-4.22-2.47-5-5-1.33-1.33-2.67-2.67-4-4-2.29-.33-3.67-1.7-4-4-1.66-1.66-3.34-3.34-5-5-3.09-.76-4.76-3.14-5.99-6-.33-.33-.67-.67-1-1l-2-2c-4.31-4.33-8.7-8.67-12.99-13-6.42-5.5-12.42-11.5-17.98-18-.32-.35-.68-.65-1-1l-2-2c-2.79-3-4.59-5.39-7.99-8l-7.99-8Z"/>
      <path class="cls-11" d="M393.35,786.01c5.13-1.13,5.62,3.32,8,5.49,3.53,3.24,17.04,14.2,17.69,18.15.3,1.83-1.33,7.4-1.69,9.87-.32,2.19.46,4.92-.02,6.82-.2.77-2,.65-2.02,1.24-.03,1.2,1.31,2.78,1.04,4.85-1.39,10.66-4.49,20.6-5.64,31.27-.11,1.02.88,3.08.63,3.31-.2.18-5.06.82-5.39.76-.5-.09-4.79-3.5-5.62-4.25-7.63-6.83-14.84-15.7-21.93-23.05-2.91-3.02-8.48-4.62-8.03-10.46,9.97,9.92,24.52,26.47,34.96,34.51,1,.77,1.27,1.94,3,1.49l7.76-56.38c-7.62-7.81-15.09-15.86-22.74-23.61Z"/>
      <path class="cls-11" d="M407.33,693.01c2.72-.61,1.84,1.47,2.51,2.93,7.07,15.56,10.91,33.96,10.47,51.06-4.7.44-3.85-3.33-4.99-5,4.51,2.77,3.04-8.41,2.87-10.37-1.12-13.11-6.55-26.36-10.86-38.63Z"/>
      <path class="cls-11" d="M400.34,724.01c-.65-4.22.92-6.98,1.04-11.46l-1.04-17.54c4.65,9.78,3.79,18.97,0,29Z"/>
      <path class="cls-11" d="M297.44,668.01c5.3-2.78,7.06-3.59,13.5-3,1.76.16,8.08,1.07,7.48,4-7.72-2.32-12.86-2.75-20.98-1Z"/>
      <path class="cls-11" d="M291.45,751.01c-4.89-3.76-3.8-2.04-7.99-8,3.28.86,7.16,4.77,7.99,8Z"/>
      <path class="cls-11" d="M368.37,828.01c-3.6.21-7.24-3.53-6.99-7,2.33,2.32,4.67,4.69,6.99,7Z"/>
      <path class="cls-11" d="M342.4,802.01c-5.34.03-4.78-1.69-5.99-6,1.99,2,4,4,5.99,6Z"/>
      <path class="cls-11" d="M320.42,780.01c-1.61-1.58-4.64-1.88-6.04-3.45-3.84-4.31-7.84-10.05-11.94-14.55,6.68,5.28,12.03,11.99,17.98,18Z"/>
      <path class="cls-11" d="M360.38,820.01c-3.3.3-5.29-1.75-5-5,1.66,1.66,3.33,3.34,5,5Z"/>
      <path class="cls-11" d="M351.39,811.01h-4s0-4,0-4c1.33,1.33,2.67,2.67,4,4Z"/>
      <path class="cls-11" d="M407.33,692.01c-2.43-2.04-2.84-5.41-4-8,2.74,2.07,3,5.12,4,8Z"/>
      <path class="cls-11" d="M396.34,672.01c.87,1.13.28-1.61,2,3-1.43-.43-1.98-1.54-2-3Z"/>
      <path class="cls-11" d="M323.42,671.01l-4-2c2.58.94,1.53.05,4,2Z"/>
      <path class="cls-11" d="M305.43,570.01c2.18-2.6,2.38,1.06,4,3-1.6-.63-2.73-2.12-4-3Z"/>
      <path class="cls-11" d="M402.34,682.01c-1.88-1.32-2.22-3.08-3-5,1.95,1.32,2.18,3.15,3,5Z"/>
      <path class="cls-11" d="M398.34,691.01c-.15-.26-1.62-2.46-2-3l2,3Z"/>
      <path class="cls-11" d="M329.41,658.01c-.07-.01-.43,1.03-.98,1.01-.16-.62.17-1.63-.02-2.01l1,1Z"/>
      <path class="cls-11" d="M331.41,679.01c-1.96-2.44-3.7-3.96-5.99-6,2.8.43,5.57,3.22,5.99,6Z"/>
      <path class="cls-11" d="M324.41,588.01l-2-2,2,2Z"/>
      <path class="cls-11" d="M288.45,616.01c-2.05-2.01-10.58-8.96-10.99-11l10.99,11Z"/>
      <path class="cls-11" d="M323.42,652.01c-4.1-4.02-8.05-7.79-11.99-12l11.99,12Z"/>
      <path class="cls-11" d="M339.4,669.01c-2.17-2.17-3.84-3.38-5.99-6l5.99,6Z"/>
      <path class="cls-11" d="M404.34,731.01c-1.05-1.07-1.94-1.09-3-3l3,3Z"/>
      <path class="cls-11" d="M301.44,761.01c-.54-.59-1.3-1.25-2-2l2,2Z"/>
      <path class="cls-11" d="M335.4,795.01c-.67-.67-1.33-1.33-2-2l2,2Z"/>
      <g>
        <path class="cls-12" d="M318.42,669.01c.31.09.71-.1,1,0l4,2c.42.33,1.25,1.34,2,2,2.6,1.27,4.77,3.36,5.99,6,3.66,4.56,7.13,10.12,8,16,1.72,1.55,6.37-5.73,7.34-6.64,1.25-1.17,3.2-2.25,4.64-3.36.16-.99.82-1.66,2-2,1.26-.44,1.77-.91,2-1,8.66-5.37,21.12-5.71,28.97,1,.33.33.67.67,1,1,3.91,2.23,6.91,5.57,8.99,10,.26.48.78,1.51,1,2,4.7,8.36,3.51,20.18-1,28-.09.31.1.7,0,1-1.38,3.38-3.6,6.28-5.99,9-.33.34-.67.66-1,1l-1,1c-2.33,2.42-4.72,4.38-6.99,7-.82,1.2-1.82,1.87-3,2-8.75,5.77-16.98,12.24-26.3,17.17-4.64,2.45-19.31,10.04-23.6,8.31-1.79-.73-12.32-10.33-14.56-12.45-22.89-21.68-55.67-68.36-14.46-90.03,6.48-2.64,15.38-3.45,20.98,1Z"/>
        <path class="cls-11" d="M395.34,696.01c.13.28,1.55,1.01,2.32,3.15,2.85,7.88,1.69,14.26-.84,21.89-.54,1.62.17,3.54-2.49,2.96,3.07-10.16,4.37-17.51,1-28Z"/>
        <path class="cls-11" d="M355.38,682.01l7.16-4.33c4.99-1.69,17.19.11,21.18,3.26,1.05.83.53,1.96.63,2.07-10.32-5.33-18.34-5.13-28.97-1Z"/>
        <path class="cls-11" d="M385.35,684.01c5.37.13,7.17,6.66,8.99,10-2.64-3.76-5.8-6.76-8.99-10Z"/>
        <path class="cls-11" d="M394.35,725.01c-1.84,5.75-1.95,4.83-5.99,9l5.99-9Z"/>
        <path class="cls-11" d="M353.39,683.01c-.29,1.12-1.22,1.4-2,2-.45-3.12.73-1.56,2-2Z"/>
        <path class="cls-11" d="M386.35,736.01l1-1c-.33.34-.67.66-1,1Z"/>
        <path class="cls-11" d="M376.36,745.01c1-.66,1.99-1.34,3-2-.86,1-1.52,3.41-3,2Z"/>
      </g>
    </g>
  </g>
  <g>
    <path class="cls-8" d="M567.18,563.01c-3.62-3.41-4.39-9.75-3.98-14.49,1.13-13.06,29.63-46.87,39.4-57.55,48.09-52.58,91.51-75.49,163.84-78,23.78-.82,54.56-1.6,78.01,0,6.22.42,17.67,2.21,22.02,6.97.24.26,3.79,5.63,3.94,6,4.09,9.76-.56,18.77-4.68,27.42-12.36,25.95-32.29,48.52-49.8,70.65-8.47,5.77-15.38,14.31-23.51,20.97-57.99,47.54-119.74,44.41-189.48,29.72-8.39-1.77-17.72-3.92-24.61-6.37-2.13-.76-9.89-4.12-11.16-5.32Z"/>
    <g>
      <path class="cls-10" d="M844.91,412.01c-27.62-.87-58.3-.91-85.92,0h85.92Z"/>
      <g>
        <path class="cls-11" d="M758.99,412.01c28.62-.92,57.3-.87,85.92,0,7.46.23,14.24-.33,20.5,4.98.82.7,6.63,7.21,6.98,8.01,5.21,11.64-2.84,25.52-8.33,35.68-8.35,15.46-35.32,54.62-48.13,63.33-18.08,22.84-49.63,44.68-77.71,53.71-18.85,6.06-43.89,9.85-63.7,9.34-18.65-.48-92.84-10.89-105.92-21.02-1.33-1.03-1.21-2.81-1.43-3.03l1.8-1.16c28.52,12.31,64.63,18.16,96.15,19.99,59.25,3.43,106.37-14.92,147.33-57.78l3.48-.04.42-2.68c18.36-22.79,33.98-44.59,48.25-70.24,12.92-23.23,2.16-35.42-22.31-36.26-65.28-2.24-133.42-4.53-189.56,33.9-29.2,19.99-59.74,52.55-79.12,82.23-5.99,9.17-12.41,19.68-5.71,29.9l-.72,2.15c-.21-.21-1.93-.11-3.02-1.44-8.16-9.87.1-23.53,5.77-32.34,16.79-26.11,46.49-57.61,71.72-77.18,36.56-28.35,71.28-38.52,117.34-40.04Z"/>
        <path class="cls-9" d="M847.9,466.01c.89.78.55,1.45-1,2-5.14,8.17-10.65,16.27-16.59,23.9-2.35,3.02-14.79,18.71-16.87,19.11-70.21-.18-140.44.04-210.85.04-1.03.3-3.45-.8-3.43-1.55.02-.96,10.82-12.72,12.45-14.51,9.2-10.08,20.07-20.21,30.48-28.99l4.79-2h199.77l1.24,2Z"/>
        <path class="cls-5" d="M854.9,423.01c.33.03.67-.01,1,0,.39.48.73.48,1,0,.33-.02.67.02,1,0,.3-.58.63-.57,1,0,.15.6-.19,1.58,0,2,5.68,5.56,6.3,6.32,4.32,13.4-2.22,7.94-9.24,20.8-13.95,27.73-.13.18-.68.07-1.36-.12h-205.8c3.87-3.26,7.98-7.01,11.99-10,4.31-3.65,8.97-6.98,13.99-10,.83-.04,1.37-.67,2-1,3.73-3.04,8.06-5.37,12.99-7,.29-.11.71.11,1,0,16.04-8.83,35.58-13.5,53.77-14.7,38.32-2.54,78.66-4.94,117.06-.3Z"/>
        <path class="cls-11" d="M684.06,438.01c.67-1.57,1.82-2.43,3.29-3.2,25.9-13.4,55.3-12.89,84.16-13.76,24.45-.73,56-3.72,79.89,0,1.86.29,4.05-1.27,3.49,1.96-32.37-2.53-66.91-1.5-99.36.04-30.91,1.47-42.85,4.52-71.47,14.96Z"/>
        <path class="cls-11" d="M858.89,425.01l6.07,5.37c1.06,1.94,1.42,4.85.9,6.93-.18.71-1.61.57-1.9,1.44-3.54,10.43-7.88,16.54-12.06,23.94-1.63,2.88.19,4.61-4.99,5.32.39-.62.61-1.37,1-2,5.29-8.61,17.16-25.08,14.77-35.29-.61-2.59-2.85-3.68-3.78-5.71Z"/>
        <path class="cls-11" d="M683.06,438.01c-3.82,3.1-8.71,4.75-12.99,7,1.68-5.31,8.55-5.38,12.99-7Z"/>
        <path class="cls-11" d="M668.08,446.01c-3.93,4.18-9.47,6.63-13.99,10-2.11-.12,1.28-2.49,1.41-2.56,2.6-1.54,5.4-1.92,6.94-5.07l5.63-2.37Z"/>
        <path class="cls-11" d="M855.9,423.01c.33.01.67.02,1,0l-.5.98-.5-.98Z"/>
        <polygon class="cls-11" points="858.89 423.01 857.89 423.01 858.38 422.03 858.89 423.01"/>
      </g>
    </g>
  </g>
  <g>
    <path class="cls-8" d="M723.02,368.01c-4.28,5.26-10.84,11.51-15.98,16-15.97,10.99-32.07,22.18-48.32,33.55-36.08,24.93-62.85,39.71-66.65-17.81-3.9-58.95,1.29-104.39,35.7-154.17,8.2-10.43,15.64-20.29,22.32-29.57.72-.81,1.45-1.39,2-2,18.58-19.48,38.29-38.58,57.94-57,.6-.54,1.19-1.28,2-2,6.33-4.76,12.57-10.06,18.72-15.89,31.19-23.21,36.01,6.57,39.72,32.45,9.42,65.82-.3,145.75-47.46,196.44Z"/>
    <g>
      <path class="cls-11" d="M650.1,216.01c2.44.93-.35,2.68-.99,3.51-11.29,14.56-23.2,27.73-32.5,44.47-23.3,41.96-29.2,98.23-22.29,145.36,2.41,16.44,4.82,33.84,26.84,28.2,6.33-1.62,29.79-16.7,36.86-21.11,15.72-9.8,29.85-21.75,45.12-31.89,1.35-.9,2.35-1.78,3.91-.53-17.18,15.01-61.36,45.68-82.39,54.03-24.32,9.66-29.49-9.07-32.35-28.67-11.34-77.61,7.12-135.91,57.8-193.36Z"/>
      <path class="cls-11" d="M712.04,155.01c10.95-9.7,30.23-34.12,46.45-21.99,7.15,5.35,9.76,19.19,11.24,27.75,11.14,64.42,4.42,149.52-39.73,200.72-2.09,2.43-4.94,4.04-6.97,6.53,43.64-53.65,49.79-102.82,48.99-170.54-.13-11.38-4.45-47.16-9.48-56.51-12.45-23.15-35.87,3.44-47.01,13.04-.53.45-3.17,2.89-3.49,1.01Z"/>
      <path class="cls-11" d="M652.09,214.01c18.72-20.85,37.14-38.36,57.94-57l-57.94,57Z"/>
      <path class="cls-3" d="M742.01,324.01c-24.13,44.21-72.14,80.4-117.22,102.17-7.3,3.53-7.7,3.12-15.65,1.83-4.28-1.4-5.59-8.42-6.36-12.64-2.96-16.17-3.88-31.18-3.43-47.62.4-14.73,1.31-31.02,5.8-44.74l.71-1.99c44.98.33,89.96.66,134.95.99l1.21,2.01Z"/>
      <path class="cls-2" d="M752,142.01c.29.13.78-.14,1,0,8.36,14.54,10,35.43,10.76,52.41.99,22.14,1.75,44.9-2.77,66.59l-.69,2h-130.96l-1.22-2c10.76-16.71,24.92-33.35,37.96-48l25.97-26c2.57-2.39,5.38-4.63,7.99-7,0-1.53,1.73-2.4,3-3,2.18-1.98,4.14-4.35,5.99-6,8.43-8.57,17.42-16.57,26.97-24,3.2-3.4,12.25-10.19,15.98-5Z"/>
      <path class="cls-10" d="M760.99,261.01c-1.06,18.35-6.39,37.12-13.99,54-.22.55-.68,1.27-1,2l-1,2c-.13.28.13.73,0,1l-1,2c-.09.18-1.35.81-2,2l-136.87-1c-.12-5.89.88-11.89,3-18,.07-.32-.07-.68,0-1,.9-3.54,2.24-6.87,4-10,.08-.31-.09-.7,0-1,2.43-7.08,5.42-13.74,8.99-20,.11-.29-.1-.7,0-1,.91-2.09,1.91-3.76,3-5,1.17-1.95,2.73-4.03,4-6h132.87Z"/>
      <path class="cls-11" d="M747,315.01c6.66-16.5,11.65-36.38,13.99-54,3.77-28.46,3.47-59.86-.12-88.38-1.2-9.55-3.36-22.32-7.87-30.62,6.55,4.24,8.89,25.61,9.87,33.62,4.95,40.78,3.13,94.13-12.21,132.54-.89,2.22-2.06,5.09-3.66,6.84Z"/>
      <path class="cls-11" d="M605.14,323.01c-5.03,29.66-8.55,66.52-.7,96.2.82,3.09,1.52,7.35,4.7,8.8-.23-.04-.2,1.77-3.04-1.46-4.46-5.09-6.6-27.5-7-35-1.48-28.02-.32-60.15,9.03-86.54-1.27,5.98-1.98,11.99-3,18Z"/>
      <path class="cls-11" d="M736.01,147.01c.09-.06-.17-1.43.69-2.03,2.81-1.95,14.4-9.67,15.29-2.97-1.33-.61-2.44-1.74-4.06-1.51-1.92.28-10.15,4.99-11.93,6.51-8.52,7.29-18.32,16.33-26.97,24,.33-1.76,1.13-2.26,2.27-3.33,8.12-7.6,15.9-14.17,24.7-20.67Z"/>
      <path class="cls-11" d="M621.12,273.01c-2.54,6.75-5.71,13.58-8.99,20,1.92-6.35,3.63-11.19,6.13-17.41.61-1.51.68-3.07,2.86-2.59Z"/>
      <path class="cls-11" d="M608.14,304.01c.72-3.39.61-8.16,4-10-.9,3.32-2.03,7.14-4,10Z"/>
      <path class="cls-11" d="M624.12,267.01c-.98,1.63-.81,4.29-3,5,.63-1.81.68-4.07,2.18-5.87l.82.87Z"/>
      <path class="cls-11" d="M745,319.01l1-2c-.37.84-.73,1.42-1,2Z"/>
      <path class="cls-11" d="M703.04,177.01c-1.09.99-2.04,2.14-3,3l-.98-.49c1.05-1.33,2.17-2.45,3.98-2.51Z"/>
      <path class="cls-11" d="M744,322.01l1-2c-.35.72-.64,1.3-1,2Z"/>
      <path class="cls-11" d="M666.08,213.01c8.14-9.15,17-17.68,25.97-26l-25.97,26Z"/>
    </g>
  </g>
  <g>
    <path class="cls-8" d="M363.38,171.01c.36.31.65.7,1,1l4,4c.33.33.67.66,1,1,1.36,2.08,2.36,3.08,3,3,2.49.99,5.15,4.49,5.99,7,15.34,21.03,30.7,43.22,42.31,66.95,14.07,28.74,3.88,40.79-26.74,40.94-61.24.31-111.57-2-164.8-36.69-17.34-12.23-33.53-25.63-48.58-40.2-5.07-5.05-10.28-9.53-14.99-15l-2-3c-2.62-1.94-4.04-3.42-5.99-6l-24.24-26.72c-21.65-23.39-21.24-41.27,11.7-50.13,78.96-21.22,159.46-4.6,218.34,53.85Z"/>
    <g>
      <path class="cls-10" d="M227.51,108.01c-10.37-.47-22.59-.43-32.97,0,1.04-1.66,3.79-1,5.48-1.02,7.32-.08,14.69-.09,22.01,0,1.69.02,4.44-.64,5.48,1.02Z"/>
      <g>
        <path class="cls-11" d="M378.36,187.01c3.74,3.42,7.21,8.07,10.21,12.28,9.7,13.64,37.8,57.69,39.79,72.16,3.32,24.19-26.92,24.14-43,24.55-7.3.93-14.68.91-21.98,0-80.87-1.45-126.95-22.35-182.82-78l5.49,3.01c53.09,59.25,130.37,77.47,207.85,73.03,16.61-.95,36.5-3.99,31.58-25.69-2.98-13.13-23.2-45.16-31.29-57.68-4.79-7.41-13.65-17.22-15.81-23.67Z"/>
        <path class="cls-11" d="M194.54,108.01c10.79-1.1,22.17-1.12,32.97,0,49.63,2.24,96.38,25.23,132.88,58.48,1.39,1.26,2.89,2.41,2.98,4.52-31.52-27.15-65.99-49.16-107.84-57.55-36.85-7.39-85.44-5.22-120.73,8.26-18.83,7.19-18.91,21.61-7.73,36.32,9.31,12.24,21.07,23.55,30.5,35.97-7.25-6.45-14.15-13.66-20.49-20.99-9.17-10.6-24.87-25.91-17.97-41.02.66-1.45,6.24-7.55,7.51-8.46,12.21-8.76,52.63-14.91,67.92-15.54Z"/>
        <path class="cls-11" d="M165.57,203.01c-.69-.8-2.29-1-2-3,.78.58,5.19.97,2,3Z"/>
        <path class="cls-11" d="M372.37,180.01c-.07-.03.15,1.17-.98,1l-2.02-4c.84.87,2.56,1.36,3,3Z"/>
        <path class="cls-11" d="M368.37,176.01l-4-4c1.77,1.52,2.55,2.56,4,4Z"/>
        <path class="cls-4" d="M334.4,160.01c2.32-1.01,6.66,2.73,7.99,5,4.81,3.64,7.82,7.55,11.99,12,3.31,2.73,6.31,5.73,8.99,9,5.17,5.44,9.59,11.34,13.27,17.69l-1.99,1.3-175.73.04c-6.94.07-13.47-.94-19.59-3.02-7.72-8.16-14.97-15.84-21.76-23.02-.66-.35-1.35-.64-2-1-3.59-3.82-6.92-7.82-9.99-12-1.65-1.67-3.38-3.34-5-5v-1c-.36-1.34,1.06-1.45,2.36-1.51,63.26-.83,127.85-.62,191.45,1.51Z"/>
        <path class="cls-5" d="M354.38,177.01c2.24,1.59,6.86,4.97,8.41,7.05.58.78.43,1.75.58,1.95,7.84,5.57,7.43,8.98,12.99,15l1,1c.32.36.68.66,1,1l6.99,10c.15.24-.14.75,0,1l2,2c.33.58.59,1.28,1,2,1.61,1.84,2.94,3.84,4,6,.13.27-.13.73,0,1,3.54,4.25,7.11,8.73,8.99,14,.13.27-.12.72,0,1,2.62,2.15,4.76,5.76,5,9l-6.26,1.36c-55.93-.51-111.49-.93-166.68-1.27l-1.89-1.09c-.9-.78-5.44-2.75-7.31-4.18-16.5-12.67-29.23-24.88-43.64-39.82l-1-1c-4.64-4.82-9.34-9.33-13.99-14l-2-2c-.13-.13-.32-1.2-1-2l-1-1c-1.3-1.71-2.8-3.22-4-5,.05.03.47-.89.98-.51l21.01,22.99,19.43,1.55,176.36-.05c1.16-1.04-10-13.18-11.03-14.49-.77-.99-.74-2.23-.95-2.5-4.01-2.85-5.58-5.35-8.99-9Z"/>
        <path class="cls-12" d="M272.46,127.01c1.67.4,3.34.63,5,1,3.43.51,7.34,1.8,9.99,4,.31.09.69-.08,1,0,2.53.54,4.53,1.54,5.99,3,.31.09.7-.1,1,0,2.23.57,3.9,1.57,5,3,1.07.47,2.09.63,3,1l2,1c.53.23,1.19.65,2,1,3.07,1.3,5.73,2.96,7.99,5,.28.12.72-.12,1,0,5.61,3.14,11.29,6.84,15.98,11v1l-9.85,1.01c-61.99-1.21-122.97-1.21-182.96,0-5.42-4.48-14.42-14.01-10.99-21,.02-.33-.06-.69,0-1l2-3c1.04-1.01,2.77-2.07,4-3,9.84-5.15,21.84-7.66,32.9-9.81,34.46-6.7,72.4-6.5,104.96,5.81Z"/>
        <path class="cls-6" d="M406.33,249.01c.28-.87.62-.86,1,0,2.86,6.27,5.71,11.95,8.99,18,7.58,16.37-6.01,18.76-18.74,19.41-57.05,2.93-117.82-3.39-165.09-36.41-.64-.67-.85-1.87-1-2,1.56-1.48,3.56-.99,5.45-1.03,56.38-1.12,113.03,2.41,169.38,2.03Z"/>
        <path class="cls-11" d="M416.32,267.01c.18.33,1.28.55,1.98,2.48,1.78,4.9,1.69,8.97-1.96,12.81-.18.19-4.22,2.71-4.47,2.79-6.58,1.91-19.8,2.66-26.97,2.96-29.87,1.26-68.38-2.38-96.97-11.02-14.58-4.41-45.9-17.01-55.43-27.02l24.76,13.71c39.38,18.6,89.27,24.45,132.63,22.34,5.16-.25,16.2-.91,20.69-2.29,9.2-2.83,7.12-8.92,5.74-16.76Z"/>
        <path class="cls-11" d="M134.6,131.01c.11-.08-.28-1.29.23-1.73,1.86-1.6,18.96-5.86,22.73-6.78,34.6-8.44,73.25-8.99,108.12.79,1.77.5,7.41,1.09,6.78,3.72-12.28-2.97-23.67-6.58-36.48-7.99-34.23-3.77-69.01.73-101.39,11.99Z"/>
        <path class="cls-5" d="M332.41,158.01c.33.03.67-.04,1,0,1.6.68,1.93,1.35,1,2-62.34-.15-125.93-3.23-188.37-1.04-1.9.07-3.78-.1-5.44,1.04-.66.23-.95-.27-1-1,1.04-1.66,3.79-1,5.48-1.02,62.42-.77,124.92.62,187.33.02Z"/>
        <path class="cls-11" d="M155.58,178.01c-3.55-1.97-9.43-7.64-9.99-12,3.69,3.73,8.44,6.49,9.99,12Z"/>
        <path class="cls-11" d="M277.46,128.01c.1.02.57-.91,1.97-.62,1.85.37,9,2.68,8.02,4.62-3.4-.97-7.07-1.9-9.99-4Z"/>
        <path class="cls-11" d="M307.43,141.01c2.14.92,8.14,1.23,7.99,5-2.67-1.13-6.42-2.64-7.99-5Z"/>
        <path class="cls-11" d="M128.61,138.01c-.59,8.32,5.36,15.5,10.99,21,.34.33.61.72,1,1v1c-4.91-5.04-12.18-11.41-13.94-18.56-.34-1.36-1.05-5.24,1.95-4.44Z"/>
        <path class="cls-11" d="M401.34,240.01c4.18.83,4.51,5.76,5.99,9h-1c-1.21-3.24-3.59-5.88-5-9Z"/>
        <path class="cls-11" d="M316.42,146.01c7.13,3.14,7.34,3.73,13.13,8.37,1.23.99,3.6-.01,2.86,2.63l-15.98-11Z"/>
        <path class="cls-11" d="M392.35,225.01c2.77,1.3,7.15,7.81,8.25,10.29.63,1.42.46,3.11.74,3.71-2.88-4.54-6.63-9.24-8.99-14Z"/>
        <path class="cls-11" d="M378.36,203.01c3.3,3.54,4.24,5.43,6.99,10l-6.99-10Z"/>
        <path class="cls-11" d="M295.44,135.01c1.9.62,5.64-.23,5,3-1.76-.77-3.71-1.49-5-3Z"/>
        <path class="cls-11" d="M333.41,158.01c2.63.31,4.7,1.95,7.01,3.8.16.13,4.07,3.1,1.98,3.2-2.29-1.73-5.31-4.12-7.99-5l-1-2Z"/>
        <path class="cls-11" d="M388.35,218.01c.5.76,3.6,3.07,3.71,3.3.59,1.17.11,2.35.28,2.7-2.35-1.17-2.81-3.93-4-6Z"/>
        <path class="cls-11" d="M288.45,132.01c2.33.61,6.78-.02,5.99,3-2.18-.65-4.21-1.57-5.99-3Z"/>
        <path class="cls-11" d="M305.43,140.01l-2-1c.86.35,1.44.76,2,1Z"/>
        <path class="cls-11" d="M128.61,137.01c.48-2.52.73-1.76,2-3l-2,3Z"/>
        <path class="cls-11" d="M162.57,185.01c-.3-.35-.71-.62-1-1l1,1Z"/>
        <path class="cls-11" d="M165.57,189.01c-.68-.68-1.32-1.3-2-2l2,2Z"/>
        <path class="cls-11" d="M387.35,216.01l-2-2c.1.18,1.29.75,2,2Z"/>
        <path class="cls-11" d="M180.55,204.01c-.33-.34-.67-.66-1-1l1,1Z"/>
        <path class="cls-11" d="M377.36,202.01l-1-1c.32.34.69.64,1,1Z"/>
      </g>
    </g>
  </g>
</svg>