<?xml version="1.0" encoding="UTF-8"?>
<svg id="Layer_1" data-name="Layer 1" xmlns="http://www.w3.org/2000/svg" viewBox="0 0 874.07 886.72">
  <defs>
    <style>
      .cls-1 {
        fill: #f1a4ba;
      }

      .cls-2 {
        fill: #c42e83;
      }

      .cls-3 {
        fill: #21508e;
      }

      .cls-4 {
        fill: #ef8d31;
      }

      .cls-5 {
        fill: #f8d13a;
      }

      .cls-6 {
        fill: #399560;
      }

      .cls-7 {
        fill: #545557;
      }

      .cls-8 {
        fill: #64c3d2;
      }

      .cls-9 {
        fill: #222322;
      }

      .cls-10 {
        fill: #fefefe;
      }

      .cls-11 {
        fill: #523984;
      }

      .cls-12 {
        fill: #0f0f0e;
      }

      .cls-13 {
        fill: #e13a31;
      }

      .cls-14 {
        fill: #32383c;
      }
    </style>
  </defs>
  <path class="cls-7" d="M429.31,765.26c.08-7.24.3-14.76,0-21.98,1.67,6.44,1.67,15.54,0,21.98Z"/>
  <path class="cls-1" d="M385.35,295.72c-6.44,1.67-15.54,1.67-21.98,0,7.28.13,14.71.19,21.98,0Z"/>
  <g>
    <path class="cls-9" d="M811.94,527.5c-7.1,4.46-12.87,11.51-19.51,16.95-55.42,45.4-112.23,44.21-179.48,31.68-10.23-1.9-21.19-5.62-28.48-7.65-2.51-.7-4.86-.29-8.28-1.55-18.46-6.77-14.82-20.5-6.43-34.36,23.67-39.1,74.83-88.13,117.32-105.46s111.36-17.35,156.38-14.55c6.26.39,16.37,1.67,21.37,5.6,3.95,3.11,7.02,9.93,7.13,14.92.47,22.5-39.29,69.26-54.05,86.93-.76.91-.75,2.23-.96,2.49-.33.39-.67.65-1,1-1.34,1.41-1.53-.2-4,4ZM854.9,422.6c.56-3.23-1.63-1.67-3.49-1.96-23.89-3.71-55.44-.73-79.89,0-28.86.86-58.26.36-84.16,13.75-1.48.76-2.63,1.63-3.29,3.2-.29.11-.71-.11-1,0-4.43,1.62-11.31,1.69-12.99,6.99-.66.35-1.37.65-2,1-4.56,2.48-8.11,4.78-12.58,7.43-.13.07-3.52,2.44-1.41,2.56-4.01,2.99-8.12,6.74-11.99,9.99-10.42,8.77-21.29,18.88-30.48,28.96-1.64,1.79-12.43,13.54-12.45,14.5-.02.75,2.4,1.84,3.43,1.55,70.42,0,140.64-.22,210.85-.04,2.08-.4,14.52-16.08,16.87-19.09,5.94-7.62,11.45-15.71,16.59-23.87,5.18-.71,3.36-2.44,4.99-5.31,4.18-7.39,8.53-13.5,12.06-23.91.29-.86,1.73-.72,1.9-1.43.52-2.08.17-4.99-.9-6.93l-6.07-5.37c-.19-.42.15-1.4,0-2-.51-2.05-.89-.02-1,0-.32.06-.67-.02-1,0s-.67.01-1,0-.67.03-1,0Z"/>
    <path class="cls-12" d="M758.99,411.61c27.61-.91,58.29-.87,85.92,0,7.46.23,14.24-.33,20.5,4.97.82.7,6.63,7.2,6.98,8,5.21,11.63-2.84,25.49-8.33,35.65-10.13,18.72-25.46,38.67-38.62,54.29-2.1,2.49-5.57,6.64-8.51,7.98.22-.26.21-1.59.96-2.49,14.77-17.67,54.53-64.43,54.05-86.93-.1-4.99-3.17-11.81-7.13-14.92-5-3.93-15.11-5.21-21.37-5.6-45.02-2.8-114.87-2.38-156.38,14.55s-93.65,66.36-117.32,105.46c-8.39,13.86-12.03,27.59,6.43,34.36,3.42,1.26,5.77.85,8.28,1.55,7.29,2.03,18.25,5.75,28.48,7.65,67.25,12.52,124.06,13.72,179.48-31.68,6.64-5.44,12.41-12.49,19.51-16.95,2.47-4.2,2.65-2.59,4-4,.06,3.46-2.51,3.06-4,4-8.55,14.52-43.3,37.19-59.27,44.13-44.79,19.47-87.92,15.99-134.73,7.5-14.42-2.61-45.51-6.91-54.22-18.68-7.4-10,.62-23.06,6.2-31.73,20.89-32.45,62.58-75.2,97.48-94.3,30.13-16.49,57.4-21.68,91.58-22.81Z"/>
    <g>
      <path class="cls-10" d="M847.9,465.56c-.39.63-.61,1.38-1,2-5.14,8.16-10.65,16.26-16.59,23.87-2.35,3.01-14.79,18.7-16.87,19.09-70.21-.18-140.44.04-210.85.04-1.03.3-3.45-.8-3.43-1.55.02-.96,10.82-12.71,12.45-14.5,9.2-10.07,20.07-20.19,30.48-28.96h205.8Z"/>
      <path class="cls-5" d="M854.9,422.6c.33.03.67-.01,1,0l.5.98.5-.98c.33-.02.68.06,1,0h1c.15.6-.19,1.58,0,2,.93,2.03,3.18,3.11,3.78,5.7,2.39,10.2-9.48,26.65-14.77,35.26h-205.8c3.87-3.25,7.98-7,11.99-9.99,4.52-3.37,10.06-5.81,13.99-9.99.63-.34,1.34-.65,2-1,4.28-2.25,9.17-3.89,12.99-6.99.29-.11.71.11,1,0,28.62-10.43,40.56-13.47,71.47-14.94,32.45-1.54,66.99-2.56,99.36-.04Z"/>
      <path class="cls-12" d="M684.06,437.58c.67-1.57,1.82-2.43,3.29-3.2,25.9-13.38,55.3-12.88,84.16-13.75,24.45-.73,56-3.72,79.89,0,1.86.29,4.05-1.27,3.49,1.96-32.37-2.52-66.91-1.5-99.36.04-30.91,1.47-42.85,4.51-71.47,14.94Z"/>
      <path class="cls-12" d="M858.89,424.6l6.07,5.37c1.06,1.94,1.42,4.85.9,6.93-.18.71-1.61.57-1.9,1.43-3.54,10.42-7.88,16.52-12.06,23.91-1.63,2.88.19,4.6-4.99,5.31.39-.62.61-1.37,1-2,5.29-8.61,17.16-25.06,14.77-35.26-.61-2.59-2.85-3.67-3.78-5.7Z"/>
      <path class="cls-12" d="M683.06,437.58c-3.82,3.1-8.71,4.74-12.99,6.99,1.68-5.31,8.55-5.37,12.99-6.99Z"/>
      <path class="cls-12" d="M668.08,445.58c-3.93,4.18-9.47,6.62-13.99,9.99-2.11-.12,1.28-2.48,1.41-2.56,4.46-2.65,8.02-4.95,12.58-7.43Z"/>
      <path class="cls-12" d="M855.9,422.6c.33.01.67.02,1,0l-.5.98-.5-.98Z"/>
    </g>
    <path class="cls-12" d="M858.89,422.6h-1c.11-.02.49-2.05,1,0Z"/>
  </g>
  <g>
    <path class="cls-1" d="M257.48,513.51c.26-10.69.38-22.3,0-32.97,1.66,1.04,1,3.79,1.02,5.48.09,7.32.08,14.69,0,22.01-.02,1.69.64,4.44-1.02,5.48Z"/>
    <g>
      <path class="cls-9" d="M178.56,465.56c.15,0-.23,1.42,2.44,1.04.67-.1.59-1.54,1.3-2.01,12.13-8.14,44.3-28.5,58.22-25.61,9.78,2.03,12.56,11.38,13.86,20.2,5.85,39.91.68,111.12-16.69,147.91-5.95,12.61-24.98,35.31-27.15,43.28s-37.05,38.32-44.96,44.96l-2.24-.73c-12,9.24-34.06,29.29-48.27,31.63-1.52.25-11.8-1.65-13.18-2.2-.44-.18-6.01-6.09-6.45-7.01-9.91-20.78-8.6-56.01-7.88-79.03.05-1.63-1.09-3.76-.99-6.1.51-12.68,3.14-26.54,4.32-37.72,2.86-27.25,25.28-69.04,43.21-89.67,10.85-12.48,23.6-20.72,35.66-31.29,1.39-1.21,2.47-.85,1.82-3.66,1.75-1.11,5.17-4.02,6.99-4ZM219.52,451.57c-.55.22-1.25.68-2,1-3.04,1.31-7.15,1.91-8.99,5-.66.31-1.31.68-2,1-.47.22-.77.9-1,1-.28.12-.71-.12-1,0-2.13.9-6.81,1.43-2,2-4.41,3.36-7.42,4.8-11.97,7.49l22.96,22.96c1.09.75,1.35,2.84,2,3.52,6.56,6.87,13.18,13.36,19.98,19.98,2.74,2.66,7.26,5.53,8.99,8.99.19.38-.13,1.38.01,2,.76.26.83-.98.99-1,.32-.03.68-.02,1,0,.11,0,.92,1.4,1.99,1,.24-15.45,1.77-30.94,1.05-46.49-.3-6.47-.97-16.49-2.31-22.66-.86-3.97-.83-4.93-3.72-7.77-.32-.31-.7-.82-1-1-5.65-6.86-17.01-1.12-22.98,3ZM195.54,533.49c-8.41-8.48-17.8-18.69-26.33-26.62-4.27-3.97-9.78-7.37-14.13-11.38-3.58,0-22.36,23.99-26.47,27.52l9.01,7.95,6.97,8.52c-.39,3.55-.46,1.25-3,2-.93-2.32-7.03.35-7.78,1.24-.48.56-.08,1.61-.21,1.76-.82.9-2.74,2.63-3,3-5.07,7.05-6.24,13.14.45,20.05,1.53,1.58,2.85,1.41,3.55,1.93.75.56,2.13,1.44,3,2,.25.16.36,1.44,1.64,1.81,2.87.84,9.36.15,11.71-1.75,1.06-.86.51-1.92.64-2.06.31-.36.75-.67,1-1,1.6-.06,4.14.62,5-1,1.97,1.55,2.49,2.46,4,4,1.67,5.55,7.85,9.06,11.99,12.99,3.06,2.9,8.02,6.26,9.99,9.99,1.11,2.74-1.68,2.89-1.98,3.71s.12,1.72-.02,2.29c-.08.3.06.67,0,1-4.11-.3-4.11,12.28,0,11.99.06.32-.07.69,0,1,.17.74-.4,1.84.22,2.76.29.42,2.36,1.24,3.36,2.18,2.83,2.66-.46,2.57,5.41,3.06.33.03.67-.02,1,0,3.15,4.61,7.76,1.2,10.99-1,1.32-.9,3.86-2.91,5-4,.34-.33.66-.67,1-1,.11-.1-.13-1.07,1-2,.95-.78,3.05,1.09,2-5h3c1.37,1.3,2.86,2.99,4,4,.35.31.63.71,1,1,4.39,3.49,3.32,1.51,5.99-1,5.33-5,4.78-7.74,6.99-13.99.34-.97.68-2.02,1-3,2.47.52,2.11-1.16,2.73-2.71,1-2.5,5.4-14.65,4.18-16.23-.27-.35-1.6.14-1.92-.04-9.74-5.58-28.02-28.91-36.96-37.96-1.99-2.01-4.01-3.99-5.99-5.99ZM97.64,608.42c0,.06-.91.4-.52.99.42.99,1.87,1.39,2.52,2.01,1.08,1.03,1.96,1.94,3,3,1.68,1.72,3.27,3.31,5,5,19.98,19.52,39.38,39.5,58.91,59.48l2.39,1.39,25.67-25.36c.83-.81,1.14-1.69.83-2.84s-14.47-13.66-16.9-16.16c-9.91-10.17-19.11-21.38-28.95-31.5-.66-.68-1.35-1.33-2-2s-1.33-1.31-2-2c-1.33-1.37-2.69-2.66-4-4-.33-.34-.67-.66-1-1s-.67-.66-1-1c-7.8-7.97-16.33-15.34-24-23.45-1.42-1.5-5.33-7.97-7.45-7.51-4.83,13.15-10.94,30.89-10.5,44.95ZM102.63,713.31c.14.27-.15.76,0,1,.67,1.08.72,1.4,2,2,.27.13.71-.12,1,0,.59,4.64,6.83,4.1,10.05,3.52,1.67-.3,3.51-.13,2.94-2.52.64-.1,2.06-.73,3-1,2.8-.81,4.44-.52,5.99-4,2.08-1.24,7.84-3.65,6.85-6.31-.58-1.54-13.35-14.08-15.84-16.67-2.88-6.29-9.05-10.56-13.99-14.99-2.72-2.44-6.15-6.21-8.99-7.99-.33-.21-.12-1.55-1.99-.99-1.86,2.2,3.81,39.68,5.68,44.76.68,1.85.79,3.3,3.31,3.19Z"/>
      <path class="cls-12" d="M171.56,469.55c.65,2.81-.43,2.45-1.82,3.66-12.07,10.57-24.81,18.81-35.66,31.29-17.94,20.63-40.35,62.42-43.21,89.67-1.17,11.18-3.81,25.04-4.32,37.72-.09,2.34,1.04,4.47.99,6.1-.72,23.02-2.03,58.25,7.88,79.03.44.91,6.01,6.83,6.45,7.01,1.38.55,11.66,2.45,13.18,2.2,14.22-2.34,36.27-22.39,48.27-31.63l2.24.73c-12.16,10.21-27.38,24.15-42.29,30.14-25.96,10.43-33.57-10.23-36.51-31.77-11.67-85.43,8.85-175.83,84.79-224.15Z"/>
      <path class="cls-12" d="M257.48,480.54c.38,10.67.26,22.27,0,32.97-1.23,49.85-11.11,99.97-46.95,136.87,2.17-7.97,21.2-30.67,27.15-43.28,17.37-36.79,22.54-108,16.69-147.91-1.29-8.81-4.08-18.17-13.86-20.2-13.91-2.89-46.09,17.46-58.22,25.61-.7.47-.62,1.91-1.3,2.01-2.67.38-2.29-1.04-2.44-1.04,16.27-11.16,44.65-32.35,65.23-27.76,3.22.72,9.3,6.66,10.26,9.72,2.75,8.79,3.09,23.37,3.43,33.03Z"/>
      <path class="cls-3" d="M144.59,539.48l-6.97-8.52-9.01-7.95c4.1-3.53,22.89-27.52,26.47-27.52,4.35,4,9.87,7.41,14.13,11.38,8.52,7.93,17.92,18.14,26.33,26.62l5.99,5.99c8.94,9.05,27.22,32.38,36.96,37.96.38,6.63-2.98,12.8-5,18.98-.32.98-.66,2.03-1,3l-6.99,13.99c-2.68,2.51-1.6,4.49-5.99,1l-1-1c-1.14-1.01-2.62-2.7-4-4-1.11-1.05-1.48-3.21-4-3-.06-1.12-.74-1.96-1-2.99,23.91-.5,20.83-38.55-1.84-31.32-2.11.67-4.39,3.46-5.52,3.27-.98-.17-12.29-12-14.14-13.91s-14.07-14.68-14.34-15.71c-.62-2.42,3.66-7.23,3.71-10.76.15-12.16-13.18-20.79-24.17-14.35-8.24,4.82-7.76,10.79-8.64,18.83Z"/>
      <path class="cls-3" d="M242.49,448.57c.3.18.68.69,1,1,6.18,24.53,4.29,50.83,3,75.93-.32-.02-.68-.03-1,0l-1-1c-1.73-3.46-6.26-6.33-8.99-8.99l-19.98-19.98c-.65-.68-.91-2.76-2-3.52l-22.96-22.96c4.55-2.69,7.56-4.14,11.97-7.49.41-.31,2.69.77,2-2,.28-.12.72.12,1,0l1-1c.69-.32,1.33-.69,2-1,3.01-1.42,6.46-2.83,8.99-5,.75-.32,1.45-.78,2-1,7.23-2.93,15.53-7.46,22.98-3Z"/>
      <path class="cls-3" d="M104.63,674.35c4.19,5.41,9.27,10.06,13.99,14.99,2.49,2.59,15.26,15.13,15.84,16.67,1,2.66-4.77,5.07-6.85,6.31s-4.73,2.03-5.99,4c-.94.27-2.36.9-3,1-4.21.64-9.1.59-12.99-1-.29-.12-.73.13-1,0l-2-2c-.15-.24.14-.73,0-1-6.33-12.23-6.54-33.24-6.99-46.95,2.84,1.78,6.27,5.55,8.99,7.99Z"/>
      <path class="cls-12" d="M243.49,449.57c2.89,2.84,2.86,3.8,3.72,7.77,1.34,6.17,2.01,16.19,2.31,22.66.73,15.55-.81,31.04-1.05,46.49-1.07.41-1.88-.99-1.99-1,1.29-25.1,3.18-51.4-3-75.93Z"/>
      <path class="cls-12" d="M95.64,666.36c.46,13.71.66,34.72,6.99,46.95-2.52.11-2.63-1.35-3.31-3.19-1.87-5.07-7.54-42.56-5.68-44.76,1.88-.56,1.66.79,1.99.99Z"/>
      <path class="cls-12" d="M238.5,577.45c.32.18,1.65-.31,1.92.04,1.21,1.58-3.18,13.73-4.18,16.23-.62,1.55-.26,3.23-2.73,2.71,2.02-6.18,5.38-12.35,5-18.98Z"/>
      <path class="cls-12" d="M118.62,717.31c.57,2.39-1.27,2.22-2.94,2.52-3.21.58-9.46,1.12-10.05-3.52,3.89,1.59,8.78,1.64,12.99,1Z"/>
      <path class="cls-12" d="M232.5,599.43c-2.21,6.25-1.66,8.98-6.99,13.99l6.99-13.99Z"/>
      <path class="cls-12" d="M242.49,448.57c-7.45-4.46-15.75.07-22.98,3,5.97-4.11,17.33-9.86,22.98-3Z"/>
      <path class="cls-12" d="M118.62,689.34c-4.72-4.93-9.79-9.57-13.99-14.99,4.93,4.43,11.11,8.69,13.99,14.99Z"/>
      <path class="cls-12" d="M121.61,716.31c1.27-1.97,3.94-2.77,5.99-4-1.55,3.47-3.19,3.19-5.99,4Z"/>
      <path class="cls-12" d="M204.53,459.56c.69,2.76-1.59,1.69-2,2-4.81-.57-.14-1.1,2-2Z"/>
      <path class="cls-12" d="M217.52,452.57c-2.53,2.16-5.98,3.57-8.99,5,1.84-3.08,5.95-3.68,8.99-5Z"/>
      <path class="cls-12" d="M245.49,525.5c-.16.01-.22,1.26-.99,1-.14-.61.18-1.62-.01-2l1,1Z"/>
      <path class="cls-12" d="M235.5,515.51c-6.8-6.62-13.42-13.11-19.98-19.98l19.98,19.98Z"/>
      <path class="cls-12" d="M201.53,539.48l-5.99-5.99c1.98,2,4,3.98,5.99,5.99Z"/>
      <path class="cls-12" d="M219.52,614.41c-.37-.29-.65-.69-1-1l1,1Z"/>
      <g>
        <path class="cls-3" d="M97.64,608.42c-.43-14.06,5.68-31.81,10.5-44.95,2.12-.46,6.03,6.01,7.45,7.51,7.67,8.11,16.2,15.48,24,23.45l1,1c.33.34.67.66,1,1l4,4c.66.68,1.35,1.33,2,2l2,2c9.83,10.12,19.04,21.32,28.95,31.5,2.43,2.5,16.61,15.03,16.9,16.16s0,2.03-.83,2.84l-25.67,25.36-2.39-1.39c-19.53-19.97-38.93-39.95-58.91-59.48l-5-5c-1.03-1.06-1.92-1.97-3-3l-2-3Z"/>
        <path class="cls-12" d="M140.59,595.43l-1-1c.33.34.67.66,1,1Z"/>
        <path class="cls-12" d="M145.59,600.42l-4-4c1.31,1.34,2.67,2.63,4,4Z"/>
        <path class="cls-12" d="M149.58,604.42l-2-2c.65.67,1.33,1.32,2,2Z"/>
        <path class="cls-12" d="M99.63,611.41c-.65-.62-2.1-1.01-2.52-2.01-.39-.6.53-.94.52-.99l2,3Z"/>
        <path class="cls-12" d="M107.63,619.41c-1.72-1.68-3.31-3.27-5-5l5,5Z"/>
      </g>
      <g>
        <path class="cls-13" d="M144.59,539.48c.89-8.04.4-14.01,8.64-18.83,10.99-6.43,24.32,2.19,24.17,14.35-.04,3.53-4.33,8.34-3.71,10.76.27,1.03,12.42,13.72,14.34,15.71s13.16,13.74,14.14,13.91c1.12.19,3.4-2.6,5.52-3.27,22.67-7.23,25.75,30.82,1.84,31.32.26,1.03.94,1.86,1,2.99.15,2.86-.64,5.24-1,7.99-1.12.93-.89,1.89-1,2l-1,1c-1.14,1.09-3.67,3.1-5,4-3.18,1.52-7.45,1.16-10.99,1-.33-.02-.67.03-1,0-3.91-2.19-6.06-4.76-8.99-7.99-.07-.31.06-.68,0-1-1.03-5.67-1-6.35,0-11.99.06-.33-.08-.7,0-1,2.71-1.77,3.48-3.2,2-5.99-1.97-3.73-6.93-7.09-9.99-9.99-3.71-4.57-7.88-8.79-11.99-12.99-1.5-1.54-2.02-2.45-4-4-.52-.41-.76-2.36-2.43-1.99-1.24.68-1.77,1.93-2.56,2.99-.25.33-.68.64-1,1-4.67,2.13-8.89,2.32-13.99,2-.87-.56-2.24-1.44-3-2-7.85-5.16-6.92-14.08-4-21.98.26-.36,2.18-2.09,3-3,2.82-.51,5.28-2.2,7.99-3,2.54-.75,2.61,1.55,3-2Z"/>
        <path class="cls-12" d="M151.58,569.45c-.12.14.43,1.2-.64,2.06-2.35,1.9-8.84,2.59-11.71,1.75-1.28-.37-1.38-1.65-1.64-1.81,5.1.32,9.32.13,13.99-2Z"/>
        <path class="cls-12" d="M134.6,569.45c-.7-.52-2.02-.34-3.55-1.93-6.69-6.91-5.52-13.01-.45-20.05-2.92,7.9-3.85,16.81,4,21.98Z"/>
        <path class="cls-12" d="M181.55,601.42c-1,5.64-1.03,6.32,0,11.99-4.11.3-4.11-12.29,0-11.99Z"/>
        <path class="cls-12" d="M214.52,609.42h-3c1.05,6.09-1.05,4.21-2,5,.36-2.75,1.15-5.13,1-7.99,2.52-.21,2.89,1.95,4,3Z"/>
        <path class="cls-12" d="M191.54,622.4c3.54.16,7.8.52,10.99-1-3.23,2.2-7.84,5.61-10.99,1Z"/>
        <path class="cls-12" d="M141.59,541.48c-2.71.8-5.17,2.48-7.99,3,.13-.14-.27-1.19.21-1.76.76-.89,6.86-3.56,7.78-1.24Z"/>
        <path class="cls-12" d="M157.58,567.46c-.85,1.62-3.39.94-5,1,.79-1.06,1.32-2.3,2.56-2.99,1.68-.37,1.91,1.58,2.43,1.99Z"/>
        <path class="cls-12" d="M173.56,584.44c-4.14-3.93-10.32-7.44-11.99-12.99,4.11,4.2,8.28,8.42,11.99,12.99Z"/>
        <path class="cls-12" d="M190.54,622.4c-5.88-.49-2.58-.4-5.41-3.06-1-.94-3.07-1.76-3.36-2.18-.62-.91-.04-2.02-.22-2.76,2.93,3.23,5.08,5.8,8.99,7.99Z"/>
        <path class="cls-12" d="M181.55,600.42c.14-.57-.27-1.5.02-2.29s3.08-.97,1.98-3.71c1.48,2.79.72,4.23-2,5.99Z"/>
        <path class="cls-12" d="M207.53,617.41l1-1c-.34.33-.66.67-1,1Z"/>
      </g>
      <path class="cls-12" d="M205.53,459.56c.23-.1.53-.78,1-1l-1,1Z"/>
      <path class="cls-12" d="M104.63,716.31c-1.28-.6-1.33-.91-2-2l2,2Z"/>
    </g>
  </g>
  <g>
    <path class="cls-7" d="M844.91,411.61c-27.63-.87-58.3-.91-85.92,0h85.92Z"/>
    <g>
      <path class="cls-9" d="M723.02,367.65c-4.28,5.25-10.84,11.49-15.98,15.98-1.56-1.25-2.57-.36-3.91.53-15.26,10.13-29.4,22.07-45.12,31.86-7.07,4.4-30.53,19.47-36.86,21.09-22.01,5.64-24.43-11.75-26.84-28.17-6.91-47.08-1.01-103.29,22.29-145.21,9.29-16.72,21.21-29.88,32.5-44.43.64-.82,3.44-2.58.99-3.5.72-.81,1.45-1.39,2-2l57.94-56.94c.6-.54,1.19-1.28,2-2,.32,1.87,2.96-.56,3.49-1.01,11.15-9.59,34.57-36.15,47.01-13.03,5.31,9.87,9.06,44.38,9.48,56.45,2.26,66.33-6.55,118.26-48.99,170.38ZM752,141.87c-.89-6.68-12.48,1.02-15.29,2.97-.86.6-.61,1.96-.69,2.02-8.79,6.49-16.58,13.06-24.7,20.65-1.14,1.07-1.95,1.57-2.27,3.33-1.86,1.65-3.81,4.02-5.99,5.99-1.8.06-2.93,1.18-3.98,2.5l.98.49c-2.62,2.37-5.42,4.61-7.99,6.99-8.95,8.3-17.92,16.8-25.97,25.97-12.59,14.34-27.51,32.35-37.96,47.95-1.68,2.51-3.46,5.39-5,7.99l-.49-.98c-1.92,1.02-1.16,2.65-1.5,3.98-.08.32.09.7,0,1-2.18-.48-2.25,1.07-2.86,2.59-2.49,6.2-4.19,11.1-6.13,17.39-.09.3.09.69,0,1-1.91.64-1.96,2.43-2.53,3.97-11.49,31.27-13.6,80.52-8.33,113.28.58,3.59,3.11,17.26,7.36,17.6.61.05.44-.99.49-.98,7.96,1.29,8.35,1.69,15.65-1.83,45.53-21.97,92.6-57.65,117.22-102.07.71-1.29,1.66-1.53,2-2,1.36-1.89-.1-1.8,0-2,.27-.56.92-.83,1-1,.28-.62.64-1.12,1-2,.32-.78.78-1.44,1-2,1.6-1.75,2.77-4.62,3.66-6.84,15.31-38.29,17.15-91.74,12.21-132.41-.97-8.01-3.32-29.36-9.87-33.59-.22-.14-.71.13-1,0Z"/>
      <path class="cls-12" d="M650.1,215.8c2.44.93-.35,2.68-.99,3.5-11.29,14.55-23.2,27.71-32.5,44.43-23.3,41.92-29.2,98.13-22.29,145.21,2.41,16.42,4.82,33.81,26.84,28.17,6.33-1.62,29.79-16.68,36.86-21.09,15.72-9.79,29.85-21.73,45.12-31.86,1.35-.89,2.35-1.78,3.91-.53-17.18,15-61.36,45.63-82.39,53.97-24.32,9.65-29.49-9.06-32.35-28.64-11.34-77.54,7.12-135.77,57.8-193.17Z"/>
      <path class="cls-12" d="M712.04,154.86c10.95-9.69,30.23-34.08,46.45-21.97,7.15,5.34,9.76,19.17,11.24,27.72,11.14,64.36,4.42,149.37-39.73,200.52-2.09,2.42-4.94,4.03-6.97,6.52,42.44-52.12,51.25-104.05,48.99-170.38-.41-12.07-4.16-46.58-9.48-56.45-12.45-23.12-35.87,3.43-47.01,13.03-.53.45-3.17,2.88-3.49,1.01Z"/>
      <path class="cls-12" d="M652.09,213.8c18.72-20.83,37.14-38.32,57.94-56.94l-57.94,56.94Z"/>
      <path class="cls-3" d="M742.01,323.69c-24.62,44.42-71.68,80.1-117.22,102.07-7.3,3.52-7.7,3.12-15.65,1.83-3.17-1.45-3.88-5.71-4.7-8.79-7.59-28.68-4.73-67.38.7-96.11l136.87,1Z"/>
      <path class="cls-2" d="M752,141.87c.29.13.78-.14,1,0,4.51,8.29,6.67,21.05,7.87,30.59,3.59,28.49,3.89,59.87.12,88.29h-132.87c10.46-15.6,25.38-33.61,37.96-47.95l25.97-25.97c2.57-2.39,5.38-4.62,7.99-6.99.95-.86,1.91-2.01,3-3,2.18-1.98,4.14-4.35,5.99-5.99,8.65-7.67,18.45-16.7,26.97-23.98,1.78-1.52,10-6.23,11.93-6.5,1.61-.23,2.73.9,4.06,1.51Z"/>
      <path class="cls-11" d="M760.99,260.76c-2.36,17.77-7.36,37.27-13.99,53.95-.22.56-.68,1.22-1,2l-1,2c-.08.17-.72.44-1,1v2c-.34.47-1.29.71-2,2l-136.87-1c2.02-10.68,3.82-18.48,6.99-28.97.09-.3-.09-.69,0-1,2.88-6.23,7-13.51,8.99-19.98.09-.3-.08-.68,0-1,1.91-.35,1.5-2.15,2-3,1.53-2.6,3.31-5.48,5-7.99h132.87Z"/>
      <path class="cls-12" d="M747,314.7c6.63-16.68,11.63-36.18,13.99-53.95,3.77-28.43,3.47-59.8-.12-88.29-1.2-9.54-3.36-22.3-7.87-30.59,6.55,4.23,8.89,25.58,9.87,33.59,4.94,40.66,3.1,94.11-12.21,132.41-.89,2.21-2.06,5.08-3.66,6.84Z"/>
      <path class="cls-12" d="M605.14,322.7c-5.43,28.73-8.29,67.43-.7,96.11.82,3.08,1.52,7.34,4.7,8.79-.05,0,.12,1.03-.49.98-4.25-.34-6.78-14.01-7.36-17.6-5.27-32.76-3.16-82.01,8.33-113.28.56-1.54.62-3.33,2.53-3.97-3.18,10.5-4.98,18.3-6.99,28.97Z"/>
      <path class="cls-12" d="M736.01,146.87c.09-.06-.17-1.43.69-2.02,2.81-1.95,14.4-9.66,15.29-2.97-1.33-.61-2.44-1.74-4.06-1.51-1.92.28-10.15,4.98-11.93,6.5-8.52,7.28-18.32,16.31-26.97,23.98.33-1.76,1.13-2.26,2.27-3.33,8.12-7.59,15.9-14.16,24.7-20.65Z"/>
      <path class="cls-12" d="M621.12,272.74c-1.99,6.47-6.11,13.75-8.99,19.98,1.94-6.3,3.64-11.2,6.13-17.39.61-1.51.68-3.07,2.86-2.59Z"/>
      <path class="cls-12" d="M623.12,268.75c-.5.85-.09,2.64-2,3,.35-1.33-.42-2.96,1.5-3.98l.49.98Z"/>
      <path class="cls-12" d="M703.04,176.84c-1.09.99-2.04,2.13-3,3l-.98-.49c1.05-1.33,2.17-2.45,3.98-2.5Z"/>
      <path class="cls-12" d="M745,318.7l1-2c-.35.87-.72,1.38-1,2Z"/>
      <path class="cls-12" d="M744,321.7v-2c-.1.2,1.36.11,0,2Z"/>
      <path class="cls-12" d="M666.08,212.8c8.06-9.18,17.03-17.68,25.97-25.97l-25.97,25.97Z"/>
    </g>
  </g>
  <g>
    <path class="cls-9" d="M363.38,170.84c.36.31.65.7,1,1l4,4c.33.33.67.66,1,1,1.03.62,1.84,3.85,2.02,4,.69.57.92-1.03.98-1,2.49.99,5.15,4.49,5.99,6.99,2.17,6.45,11.02,16.25,15.81,23.65,8.09,12.5,28.31,44.5,31.29,57.62,4.92,21.68-14.97,24.72-31.58,25.67-77.47,4.43-154.76-13.77-207.85-72.96l-5.49-3c-5.07-5.04-10.28-9.53-14.99-14.99,3.19-2.03-1.22-2.42-2-3-2.62-1.93-4.04-3.42-5.99-5.99-9.42-12.41-21.19-23.71-30.5-35.94-11.18-14.7-11.1-29.1,7.73-36.28,35.29-13.46,83.88-15.63,120.73-8.25,41.85,8.38,76.32,30.37,107.84,57.49ZM272.46,126.89c.63-2.63-5-3.22-6.78-3.72-34.88-9.77-73.52-9.22-108.12-.79-3.77.92-20.88,5.17-22.73,6.77-.51.44-.13,1.65-.23,1.73-1.22.93-2.95,1.98-4,3-1.27,1.24-1.51.48-2,3-.06.31.02.67,0,1-3-.79-2.29,3.08-1.95,4.44,1.76,7.14,9.03,13.51,13.94,18.54,1.62,1.66,3.35,3.33,5,5,.56,4.36,6.44,10.02,9.99,11.99.65.36,1.34.65,2,1,1.2,1.78,2.69,3.29,4,5,.29.38.7.65,1,1,.68.79.87,1.87,1,2,.68.7,1.32,1.32,2,2,4.65,4.66,9.35,9.17,13.99,13.99.33.34.67.66,1,1,14.41,14.92,27.14,27.12,43.64,39.78,1.87,1.44,6.41,3.4,7.31,4.18.15.13.36,1.33,1,2,20.25,21.24,81.7,34.65,111.4,36.95,17.16,1.33,49.39,2.75,65.5-1.41,8.19-2.11,12.02-7.61,8.9-16.08-.72-1.97-1.81-2.16-1.98-2.47-3.3-6.05-6.12-11.71-8.99-17.98-1.48-3.24-1.81-8.16-5.99-8.99-.12-.28.13-.73,0-1-.28-.6-.12-2.29-.74-3.71-1.1-2.48-5.48-8.98-8.25-10.28-.13-.27.13-.73,0-1-.17-.35.31-1.54-.28-2.7-.11-.22-3.21-2.53-3.71-3.29-.41-.72-.67-1.42-1-2-.71-1.25-1.89-1.82-2-2-.14-.25.15-.76,0-1-2.76-4.57-3.69-6.46-6.99-9.99-.32-.34-.68-.64-1-1s-.68-.65-1-1c-5.55-6.01-5.14-9.42-12.99-14.99-.15-.2,0-1.17-.58-1.94-1.55-2.08-6.17-5.46-8.41-7.05-4.16-4.44-7.18-8.35-11.99-11.99,2.09-.1-1.82-3.07-1.98-3.2-2.3-1.85-4.38-3.48-7.01-3.8-.33-.04-.67.03-1,0v-1c.74-2.64-1.62-1.64-2.86-2.63-5.79-4.63-6-5.23-13.13-8.36-.28-.12-.72.12-1,0,.15-3.77-5.86-4.08-7.99-5-.81-.35-1.47-.77-2-1-.56-.24-1.14-.65-2-1-.91-.37-1.93-.53-3-1,.64-3.23-3.09-2.37-5-3-.3-.1-.69.09-1,0,.78-3.01-3.66-2.38-5.99-3-.31-.08-.69.09-1,0,.98-1.94-6.17-4.24-8.02-4.62-1.39-.28-1.87.65-1.97.62-1.65-.37-3.32-.59-5-1Z"/>
    <path class="cls-12" d="M378.36,186.83c3.74,3.41,7.21,8.06,10.21,12.27,9.7,13.62,37.8,57.63,39.79,72.09,3.32,24.17-26.92,24.11-43,24.53-7.27.19-14.7.13-21.98,0-80.87-1.45-126.95-22.33-182.82-77.92l5.49,3c53.09,59.19,130.37,77.39,207.85,72.96,16.61-.95,36.5-3.98,31.58-25.67-2.98-13.12-23.2-45.12-31.29-57.62-4.79-7.4-13.65-17.2-15.81-23.65Z"/>
    <path class="cls-12" d="M194.54,107.91c10.38-.43,22.6-.47,32.97,0,49.63,2.24,96.38,25.21,132.88,58.42,1.39,1.26,2.89,2.41,2.98,4.51-31.52-27.13-65.99-49.11-107.84-57.49-36.85-7.38-85.44-5.21-120.73,8.25-18.83,7.18-18.91,21.58-7.73,36.28,9.31,12.23,21.07,23.53,30.5,35.94-7.25-6.45-14.15-13.64-20.49-20.97-9.17-10.59-24.87-25.88-17.97-40.98.66-1.45,6.24-7.54,7.51-8.45,12.21-8.75,52.63-14.9,67.92-15.52Z"/>
    <path class="cls-7" d="M227.51,107.91c-10.37-.47-22.59-.43-32.97,0,1.04-1.65,3.79-1,5.48-1.02,7.32-.08,14.69-.09,22.01,0,1.69.02,4.44-.64,5.48,1.02Z"/>
    <path class="cls-12" d="M165.57,202.81c-.69-.8-2.29-1-2-3,.78.58,5.19.97,2,3Z"/>
    <path class="cls-12" d="M372.37,179.83c-.07-.03-.29,1.57-.98,1-.17-.14-.99-3.38-2.02-4,.84.87,2.56,1.36,3,3Z"/>
    <path class="cls-12" d="M368.37,175.84l-4-4c1.77,1.52,2.55,2.56,4,4Z"/>
    <path class="cls-4" d="M334.4,159.85c2.68.88,5.71,3.27,7.99,5,4.81,3.64,7.83,7.54,11.99,11.99,3.41,3.65,4.98,6.15,8.99,8.99.21.27.18,1.51.95,2.5,1.03,1.31,12.19,13.44,11.03,14.48l-176.36.05-19.43-1.55-21.01-22.97c-.51-.38-.93.53-.98.51-.66-.35-1.35-.64-2-1-1.55-5.51-6.3-8.26-9.99-11.99-1.65-1.66-3.38-3.34-5-5v-1c1.66-1.14,3.55-.97,5.44-1.04,62.44-2.18,126.03.89,188.37,1.04Z"/>
    <path class="cls-5" d="M354.38,176.84c2.24,1.59,6.86,4.97,8.41,7.05.58.78.43,1.75.58,1.94,7.84,5.57,7.43,8.97,12.99,14.99l1,1c.32.36.68.66,1,1l6.99,9.99c.15.24-.14.75,0,1l2,2c.33.58.59,1.28,1,2,1.18,2.07,1.65,4.83,4,5.99.13.27-.13.73,0,1,2.36,4.75,6.11,9.45,8.99,13.99.13.27-.12.72,0,1,1.41,3.12,3.78,5.75,5,8.99-56.34.38-113-3.15-169.38-2.03-1.9.04-3.9-.45-5.45,1.03-.9-.78-5.44-2.74-7.31-4.18-16.5-12.65-29.23-24.86-43.64-39.78l-1-1c-4.64-4.82-9.34-9.32-13.99-13.99l-2-2c-.13-.13-.32-1.2-1-2l-1-1c-1.3-1.71-2.8-3.22-4-5,.05.03.47-.89.98-.51l21.01,22.97,19.43,1.55,176.36-.05c1.16-1.04-10-13.17-11.03-14.48-.77-.99-.74-2.23-.95-2.5-4.01-2.85-5.58-5.34-8.99-8.99Z"/>
    <path class="cls-13" d="M272.46,126.89c1.67.4,3.34.63,5,1,2.92,2.1,6.59,3.03,9.99,4,.31.09.69-.08,1,0,1.79,1.42,3.81,2.35,5.99,3,.31.09.7-.1,1,0,1.28,1.51,3.24,2.23,5,3,1.07.47,2.09.63,3,1l2,1c.53.23,1.19.65,2,1,1.57,2.36,5.32,3.87,7.99,5,.28.12.72-.12,1,0l15.98,10.99v1c-62.41.6-124.91-.79-187.33-.02-1.69.02-4.44-.64-5.48,1.02-5.63-5.49-11.58-12.66-10.99-20.98.02-.33-.06-.69,0-1l2-3c1.04-1.01,2.77-2.07,4-3,32.38-11.25,67.16-15.75,101.39-11.98,12.8,1.41,24.2,5.01,36.48,7.98Z"/>
    <path class="cls-6" d="M406.33,248.77h1c2.87,6.27,5.69,11.93,8.99,17.98,1.48,7.04,3.09,14.54-5.55,16.93-4.39,1.22-15.8,1.86-20.88,2.1-28.61,1.34-62.59-1.12-90.47-7.53-23.84-5.48-46.05-16.09-66.92-28.48-.64-.67-.85-1.87-1-2,1.56-1.48,3.56-.99,5.45-1.03,56.38-1.12,113.03,2.41,169.38,2.03Z"/>
    <path class="cls-12" d="M416.32,266.75c.17.31,1.26.5,1.98,2.47,3.12,8.47-.71,13.97-8.9,16.08-16.11,4.16-48.33,2.74-65.5,1.41-29.7-2.3-91.15-15.71-111.4-36.95,20.87,12.4,43.09,23,66.92,28.48,27.88,6.41,61.86,8.87,90.47,7.53,5.08-.24,16.49-.88,20.88-2.1,8.63-2.39,7.03-9.89,5.55-16.93Z"/>
    <path class="cls-12" d="M134.6,130.88c.11-.08-.28-1.29.23-1.73,1.86-1.6,18.96-5.86,22.73-6.77,34.6-8.43,73.25-8.98,108.12.79,1.77.5,7.41,1.09,6.78,3.72-12.28-2.97-23.67-6.57-36.48-7.98-34.23-3.77-69.01.73-101.39,11.98Z"/>
    <path class="cls-5" d="M332.41,157.86c.33.03.67-.04,1,0l1,2c-62.34-.15-125.93-3.22-188.37-1.04-1.9.07-3.78-.1-5.44,1.04-.39-.28-.66-.67-1-1,1.04-1.66,3.79-1,5.48-1.02,62.42-.77,124.92.61,187.33.02Z"/>
    <path class="cls-12" d="M155.58,177.84c-3.55-1.97-9.43-7.63-9.99-11.99,3.69,3.73,8.44,6.48,9.99,11.99Z"/>
    <path class="cls-12" d="M277.46,127.89c.1.02.57-.91,1.97-.62,1.85.37,9,2.67,8.02,4.62-3.4-.97-7.07-1.9-9.99-4Z"/>
    <path class="cls-12" d="M307.43,140.87c2.14.92,8.14,1.23,7.99,5-2.67-1.12-6.42-2.63-7.99-5Z"/>
    <path class="cls-12" d="M128.61,137.88c-.59,8.31,5.36,15.48,10.99,20.98.34.33.61.72,1,1v1c-4.91-5.03-12.18-11.4-13.94-18.54-.34-1.36-1.05-5.23,1.95-4.44Z"/>
    <path class="cls-12" d="M401.34,239.78c4.18.83,4.51,5.75,5.99,8.99h-1c-1.21-3.24-3.59-5.87-5-8.99Z"/>
    <path class="cls-12" d="M316.42,145.87c7.13,3.13,7.34,3.73,13.13,8.36,1.23.99,3.6-.01,2.86,2.63l-15.98-10.99Z"/>
    <path class="cls-12" d="M392.35,224.79c2.77,1.29,7.15,7.8,8.25,10.28.63,1.41.46,3.11.74,3.71-2.88-4.53-6.63-9.23-8.99-13.99Z"/>
    <path class="cls-12" d="M378.36,202.81c3.3,3.53,4.24,5.43,6.99,9.99l-6.99-9.99Z"/>
    <path class="cls-12" d="M295.44,134.88c1.9.62,5.64-.23,5,3-1.76-.77-3.71-1.49-5-3Z"/>
    <path class="cls-12" d="M333.41,157.86c2.63.31,4.7,1.95,7.01,3.8.16.13,4.07,3.1,1.98,3.2-2.29-1.73-5.31-4.11-7.99-5l-1-2Z"/>
    <path class="cls-12" d="M288.45,131.88c2.33.61,6.78-.02,5.99,3-2.18-.65-4.21-1.57-5.99-3Z"/>
    <path class="cls-12" d="M388.35,217.8c.5.76,3.6,3.07,3.71,3.29.59,1.17.11,2.35.28,2.7-2.35-1.17-2.81-3.93-4-5.99Z"/>
    <path class="cls-12" d="M128.61,136.88c.48-2.52.73-1.76,2-3l-2,3Z"/>
    <path class="cls-12" d="M305.43,139.87l-2-1c.86.35,1.44.76,2,1Z"/>
    <path class="cls-12" d="M162.57,184.83c-.3-.35-.71-.62-1-1l1,1Z"/>
    <path class="cls-12" d="M165.57,188.83c-.68-.68-1.32-1.3-2-2l2,2Z"/>
    <path class="cls-12" d="M387.35,215.8l-2-2c.1.18,1.29.75,2,2Z"/>
    <path class="cls-12" d="M180.55,203.81c-.33-.34-.67-.66-1-1l1,1Z"/>
    <path class="cls-12" d="M377.36,201.81l-1-1c.32.34.69.64,1,1Z"/>
  </g>
  <g>
    <g>
      <path class="cls-9" d="M74.66,327.69c5.89-4.13,14.1-9.65,20.65-13.82,56.95-36.35,112.87-24.2,171.49-6.98,8,2.35,19.72,4.84,26.61,8.34,9.07,4.61,12.69,12.58,9,22.68-.58,1.57-8.11,10.21-9.6,12.12-.31.4-6.74,7.62-2.35,6.64-8.84,10.18-18.57,18.52-28.97,26.97-28.78,23.38-62.58,48.46-99.66,56.68-2.98.66-6.17-.31-8.56.27-.77.19-.65,2-1.24,2.02-1.22.04-2.98-1.43-4.79-1.08-.7.13-.59,2.05-1.2,2.08-1.58.09-4.04-1.75-6.76-1.03-.77.2-.64,2.01-1.24,2.03-35.8.95-69.87,2.33-106.08-1.78-7.48-.85-12.57-.03-20.36-3.65-.54-.25-6.12-4.28-6.37-4.58-3.09-3.84-2.34-13.65-1.29-18.28.19-.85,6.88-13.28,7.85-14.9,8.61-14.34,21.92-27.58,29.91-40.75,6.49-10.7,22.62-25.71,32.97-32.97ZM148.59,314.7c-1.89,1.87-4.82,4.47-6.99,5.99-.24.17-1.52-.34-1.89.09-.52.59.14,2.22-.1,2.91-.08.22-.72.82-1,1-3.24,2.11-2.61,2.58-5,5.99-.16.22.16.78,0,1-.25.36-.73.62-1,1s-.73.64-1,1c-.23.32-.69.62-1,1-.16.2.17.82,0,1-.32.34-.67.66-1,1-.73.77-.66,1.21-2,2-.29.17-1.53-.33-1.9.08-.5.57.14,2.25-.1,2.91-.08.23-.72.83-1,1s-1.49-.34-1.88.1c-.54.61.13,2.36-.12,2.9-.57,1.21-1.75,1.6-2,2-.51.82-.85,1.78-1,2-1.13,1.64-2.41,2.22-3,3-.75.98-.86,1.82-1,2-.75,1.01-1.68,1.57-2,2-.86,1.15-1.51,2.35-2,3-.28.37-.72.64-1,1-.24.32-.69.59-1,1-.16.21.16.79,0,1-.25.33-.71.61-1,1-1.3,1.75-2.71,3.32-4,5-.24.31-.68.6-1,1-.16.2.16.8,0,1-.19.23-.6.47-1,1-.16.21.17.85,0,1-.26.23-1.76-.22-1.99,0-.57.55.99,1.88.99,1.99.02.33,0,.67,0,1,0,.11-2.01.53,0,1,.6.14,1.47-.16,2,0,.07.02.27.8,1,1,.31.08.69-.09,1,0,.33,3.83,9.64,3.82,12.77,4.7,7.17,2.02,11.54,4.86,19.2,4.29.66-.05,1.34,0,2,0-.14,1.28.2,2.79,0,4-.06.34.08.72,0,1-5.7-.2-2.93,2.37-3,3-.23,2.15-.31,1.94-2,3-.27.17-1.54-.33-1.9.08-.5.57.16,2.34-.1,2.92-.16.35-.79.65-1,1-.46.78-.77,1.63-1,2s-.73.64-1,1c-.8,1.07-1.37,2.18-2,3-.3.39-.75.66-1,1-.13.17-1.01.65-2.42,2.53s-5.13,5.56-4.48,7.83c.08.29,4.02,4.27,4.32,4.32,2.12.33,8.66-1.38,8.57-4.69.3-.11.72.11,1,0,.42-.17,1.46.29,2.27-.03.29-.11,4.75-3.28,3.73-3.96.3-.1.7.1,1,0,3.56-1.22,11.47-1.16,10.99-6.99.27-.13.73.13,1,0,.56-.27.83-.92,1-1,.27-.13.73.13,1,0,3.36-1.62,8.99-3.04,11.68-5.98,2.23-1.43,8.84-2.63,9.3-6,.32-.07.67.05,1,0,1.86-.29,3.64,1.52,3-3,.62-.27.93-.74,2-1,2.74-.67,4.68,1.77,4-3,.27-.13.71.12,1,0,.56-.24.83-.92,1-1,.27-.13.72.12,1,0,1.06-.46,3.49-.89,3.81-1.21.54-.53.05-1.61.19-1.79,1.32-1.68,2.77-3.24,4-5,.24-.34,1.53-.1,1-1.99-4.49.92-2.44-2.1-3.02-3-.07-.1-1.23.89-1.73.66-9.58-4.43-19.95-7.65-28.03-10.36-1.64-.55-3.8.68-3.19-2.29.81-.93,1.07-1.19,2-2,.16-.14,1.3.34,1.79-.17.67-.69.64-3.66,1.21-4.83.39-.61.59-1.42,1-2,4.72.9,3.3-3.01,4-4,.16-.22,3.27.44,2-4,.34-.33.61-.69,1-1,.19-.15,1.43.35,1.86-.13.57-.63-.09-2.27.14-2.87.26-.67.64-1.37,1-2,.07-.12,1.3-.93,2-2,.4-.61.59-1.39,1-2,5.16-.73,3.37-2.37,4.98-5.32.84-1.55,2.99.88,1.02-3.67-.23-.54-.71-1.71-1-2s-.41-.77-1-1c-.29-.11-.7.11-1,0,.91-3.76-4.72-1.86-5.99-2-.65-.07-1.36.09-2,0-.3-4.12-7.28-3.47-9.41-4.09-4.59-1.32-12.44-5.09-16.93-3.95-1.18.3-.47,1.89-.63,2.04Z"/>
      <path class="cls-12" d="M41.69,360.66c-7.98,13.17-21.3,26.41-29.91,40.75-.97,1.62-7.66,14.05-7.85,14.9-1.05,4.63-1.8,14.44,1.29,18.28.25.31,5.83,4.33,6.37,4.58,7.79,3.62,12.88,2.8,20.36,3.65,36.2,4.11,70.28,2.73,106.08,1.78.59-.02.47-1.83,1.24-2.03,2.72-.72,5.18,1.12,6.76,1.03.61-.03.5-1.95,1.2-2.08,1.81-.35,3.58,1.13,4.79,1.08.59-.02.47-1.83,1.24-2.02,2.39-.58,5.58.39,8.56-.27,37.09-8.22,70.89-33.3,99.66-56.68-.4,2.7-3.08,4.78-4.98,6.51-42.16,38.34-85.77,56.13-142.87,57.43-12.58.29-25.37.19-37.96,0-16.61-.25-57.47,1.18-69.89-9.53C2.39,435.13-.07,428.78,0,424.37c.2-13,19.94-38.94,28.31-49.63,3.7-4.72,8.12-11.6,13.38-14.09Z"/>
      <path class="cls-12" d="M74.66,327.69c22.81-21.55,52.94-35.76,84.43-38.95,35.24-3.57,82.61,6.51,116.42,17.43,21.94,7.09,41.9,14.05,23.77,39.88-2.14,3.05-6.17,7.56-8.82,10.61-4.39.98,2.04-6.25,2.35-6.64,1.49-1.91,9.03-10.54,9.6-12.12,3.69-10.09.08-18.07-9-22.68-6.89-3.5-18.61-5.99-26.61-8.34-58.62-17.22-114.54-29.37-171.49,6.98-6.54,4.18-14.76,9.69-20.65,13.82Z"/>
      <path class="cls-1" d="M113.62,447.57c-1.04,1.66-3.79,1-5.48,1.02-8.98.11-18.02.09-27,0-1.69-.02-4.44.64-5.48-1.02,12.59.19,25.38.29,37.96,0Z"/>
      <path class="cls-12" d="M102.63,372.65l-1,2c0-.11-1.56-1.44-.99-1.99.24-.23,1.73.22,1.99,0Z"/>
      <path class="cls-12" d="M101.63,376.64c-2.01-.47,0-.89,0-1v1Z"/>
      <g>
        <path class="cls-5" d="M175.56,320.7c.63.09,1.35-.07,2,0,1.49,2.03,4.27,1.39,5.99,2,.3.11.71-.11,1,0l1,1c.29.28.77,1.46,1,2-1.09,3.78-4,5.99-5.99,8.99-.4.61-.6,1.39-1,2l-2,2c-.35.63-.74,1.33-1,2-1.43.43-1.98,1.54-2,3-.39.31-.65.67-1,1-1.85,1.75-1.58,3.49-2,4-.51.62-2.25,1.51-4,4-.41.58-.61,1.39-1,2-.98,1.54-2.99,2.66-3,5-.93.81-1.19,1.07-2,2-1.04,1.19-2.34,2.11-2,3.99,12.21,3.04,26.17,6.61,36.96,12.99-1.22,1.75-2.67,3.31-4,5-1.97.07-3.24,1.26-4,3-.28.12-.73-.13-1,0l-1,1c-.29.12-.73-.13-1,0-1.55.73-3.25,1.21-4,3-1.06.26-1.38.72-2,1-1.53.68-3.17.14-3,3-.32.05-.68-.07-1,0-6.55,1.34-15.51,7.73-20.98,11.99-.27.13-.73-.13-1,0l-1,1c-.27.13-.73-.13-1,0-3.97,1.9-7.75,3.94-10.99,6.99-.3.1-.7-.1-1,0-1.98.64-4.93,2.06-5.99,4-.28.11-.7-.11-1,0-2.84,1-8.15,5.66-10.54.98-1.81-3.54,4.19-7.36,4.54-10.97.25-.33.7-.61,1-1,1.4-.48,1.98-1.54,2-3,.27-.36.76-.62,1-1l1-2c.21-.35.84-.64,1-1,1.39-.49,1.99-1.53,2-3,1.69-1.06,1.77-.85,2-3,1.22-.61,2.6-1.66,3-3,.08-.28-.06-.66,0-1,1.91-1.97,3.77-4.01,0-4-.66,0-1.34-.05-2,0-10.09-4.48-21.34-6.07-31.97-8.99-.31-.09-.69.08-1,0l-1-1c-.53-.16-1.4.14-2,0v-1c0-.33.02-.67,0-1l1-2c.17-.15-.16-.79,0-1l1-1c.16-.2-.16-.8,0-1l1-1c1.29-1.67,2.7-3.25,4-5l1-1c.16-.21-.16-.79,0-1l1-1c.28-.36.72-.63,1-1,1.39-.49,1.99-1.53,2-3,.32-.43,1.25-.99,2-2l1-2c.59-.77,1.87-1.36,3-3l1-2c.25-.4,1.43-.79,2-2l2-3c.27-.17.92-.77,1-1,1.4-.48,1.98-1.54,2-3,1.34-.78,1.27-1.23,2-2l1-1c.17-.18-.16-.8,0-1l1-1c.27-.36.74-.63,1-1l1-1c.16-.22-.16-.78,0-1,2.15-1.44,4.72-3.26,5-5.99.28-.18.92-.78,1-1,1.4-.48,1.98-1.54,2-3,2.17-1.53,5.1-4.12,6.99-5.99,9.14.28,18.13,4.68,26.97,5.99Z"/>
        <path class="cls-12" d="M161.57,361.66c-.62,2.97,1.54,1.74,3.19,2.29,8.08,2.71,18.45,5.93,28.03,10.36.5.23,1.66-.77,1.73-.66.58.9-1.48,3.92,3.02,3,.53,1.89-.76,1.65-1,1.99-10.79-6.38-24.75-9.95-36.96-12.99-.34-1.88.96-2.8,2-3.99Z"/>
        <path class="cls-12" d="M137.6,386.63c-7.65.58-12.03-2.27-19.2-4.29-3.13-.88-12.45-.88-12.77-4.7,10.63,2.92,21.88,4.51,31.97,8.99Z"/>
        <path class="cls-12" d="M148.59,314.7c.15-.15-.56-1.74.63-2.04,4.5-1.14,12.34,2.63,16.93,3.95,2.14.62,9.11-.03,9.41,4.09-8.84-1.31-17.84-5.71-26.97-5.99Z"/>
        <path class="cls-12" d="M175.56,394.63c-.46,3.37-7.07,4.57-9.3,6-2.69,2.95-8.31,4.37-11.68,5.98,5.47-4.26,14.43-10.65,20.98-11.99Z"/>
        <path class="cls-12" d="M140.59,414.61c3.24-3.05,7.02-5.09,10.99-6.99.48,5.83-7.43,5.77-10.99,6.99Z"/>
        <path class="cls-12" d="M126.61,408.61c-.35,3.61-6.35,7.43-4.54,10.97,2.39,4.68,7.7.02,10.54-.98.09,3.31-6.46,5.02-8.57,4.69-.3-.05-4.24-4.03-4.32-4.32-.66-2.27,3.03-5.92,4.48-7.83s2.3-2.36,2.42-2.53Z"/>
        <path class="cls-12" d="M177.56,320.7c1.28.14,6.91-1.76,5.99,2-1.72-.61-4.51.03-5.99-2Z"/>
        <path class="cls-12" d="M173.56,344.67c1.27,4.44-1.84,3.77-2,4-.69.98.72,4.9-4,4,1.75-2.48,3.48-3.38,4-4,.42-.51.15-2.24,2-4Z"/>
        <path class="cls-12" d="M179.56,391.63c.65,4.52-1.13,2.71-3,3-.18-2.86,1.47-2.31,3-3Z"/>
        <path class="cls-12" d="M185.55,387.63c.68,4.77-1.26,2.32-4,3,.75-1.79,2.45-2.26,4-3Z"/>
        <path class="cls-12" d="M139.59,391.63c-.39,1.33-1.78,2.39-3,3,.07-.63-2.7-3.2,3-3Z"/>
        <path class="cls-12" d="M138.6,324.69c-.28,2.74-2.84,4.56-5,5.99,2.39-3.41,1.75-3.89,5-5.99Z"/>
        <path class="cls-12" d="M139.59,386.63c3.77-.01,1.91,2.02,0,4,.2-1.21-.14-2.72,0-4Z"/>
        <path class="cls-12" d="M186.55,325.69c1.97,4.54-.18,2.12-1.02,3.67-1.6,2.96.18,4.59-4.98,5.32,1.99-3,4.9-5.21,5.99-8.99Z"/>
        <path class="cls-12" d="M134.6,397.62c0,1.47-.6,2.5-2,3,.26-.57-.4-2.35.1-2.92.36-.41,1.63.09,1.9-.08Z"/>
        <path class="cls-12" d="M192.54,383.64c-.14.17.35,1.26-.19,1.79-.32.32-2.75.75-3.81,1.21.76-1.73,2.02-2.93,4-3Z"/>
        <path class="cls-12" d="M139.59,414.61c1.03.68-3.44,3.85-3.73,3.96-.8.32-1.85-.13-2.27.03,1.07-1.93,4.02-3.36,5.99-4Z"/>
        <path class="cls-12" d="M166.57,354.66c-.57,1.17-.54,4.14-1.21,4.83-.49.51-1.63.03-1.79.17.01-2.34,2.02-3.46,3-5Z"/>
        <path class="cls-12" d="M141.59,320.7c-.01,1.46-.6,2.52-2,3,.24-.69-.41-2.32.1-2.91.37-.43,1.66.08,1.89-.09Z"/>
        <path class="cls-12" d="M124.61,342.68l-2,3c.25-.54-.42-2.28.12-2.9.39-.44,1.61.06,1.88-.1Z"/>
        <path class="cls-12" d="M176.56,340.68c-.23.6.44,2.24-.14,2.87-.43.48-1.67-.03-1.86.13.01-1.46.57-2.56,2-3Z"/>
        <path class="cls-12" d="M127.61,338.68c-.01,1.46-.6,2.52-2,3,.24-.67-.4-2.34.1-2.91.37-.42,1.61.09,1.9-.08Z"/>
        <path class="cls-12" d="M111.62,359.66c.49-.65,1.14-1.84,2-3,0,1.47-.6,2.5-2,3Z"/>
        <path class="cls-12" d="M127.61,407.61c.62-.82,1.19-1.93,2-3-.01,1.46-.6,2.52-2,3Z"/>
        <path class="cls-12" d="M130.6,403.62c.23-.37.54-1.22,1-2l-1,2Z"/>
        <path class="cls-12" d="M119.61,349.67c.15-.22.49-1.18,1-2l-1,2Z"/>
        <path class="cls-12" d="M115.62,354.66c.14-.18.25-1.01,1-2l-1,2Z"/>
        <path class="cls-12" d="M102.63,371.65c.4-.53.81-.76,1-1l-1,1Z"/>
        <path class="cls-12" d="M103.63,369.65c.32-.4.76-.69,1-1l-1,1Z"/>
        <path class="cls-12" d="M108.62,363.66c.29-.39.74-.66,1-1l-1,1Z"/>
        <path class="cls-12" d="M109.62,361.66c.31-.41.76-.68,1-1l-1,1Z"/>
        <path class="cls-12" d="M104.63,377.64c-.73-.2-.93-.98-1-1l1,1Z"/>
        <path class="cls-12" d="M177.56,338.68l2-2c-.7,1.07-1.93,1.88-2,2Z"/>
        <path class="cls-12" d="M129.6,336.68c.33-.34.68-.66,1-1l-1,1Z"/>
        <path class="cls-12" d="M130.6,334.68c.31-.38.77-.68,1-1l-1,1Z"/>
        <path class="cls-12" d="M132.6,332.69c.27-.38.75-.64,1-1l-1,1Z"/>
        <path class="cls-12" d="M185.55,323.69l-1-1c.59.23.7.7,1,1Z"/>
        <path class="cls-12" d="M186.55,387.63l1-1c-.17.08-.43.76-1,1Z"/>
        <path class="cls-12" d="M152.58,407.61l1-1c-.17.08-.44.73-1,1Z"/>
      </g>
    </g>
    <g>
      <path class="cls-14" d="M433.3,493.55c1.47,2.14-3.88,3.63-4.98,4.47,6.25,4,12.1,10.93,11.49,18.48l-5.49-2.99c1.09,4.04,3.4,7.2,3.88,11.59.9,8.38-3.45,17.6,4.08,23.9,4.67,3.91,9.36,3.91,15.01,2.47-.4,5.73-7.38,10.22-12.31,12.15-18.89,7.43-43.26-2.51-47.64-23.14-2.41.96.57,6.24-2.97,6.98-5.77-11.85-7.63-22.37-3.02-34.96-1.86,1.05-.44,3.63-3.98,3.99,1.4-13.5,12.08-21.82,23.96-26.48-6.08-3.42-10.06-9.57-11.71-16.25-9.08-36.86,51.68-53.93,37.56-85.51-9.25-20.71-44.98-15.42-44.91,8.86.03,9.18,3.45,7.87,6.4,12.48,2.49,3.88-5.79,6.43-8.73,7.18-22.51,5.7-39.34-9.86-33.89-32.98,14.22-60.25,133.69-56.84,127.81,19.82-2.34,30.54-36.78,39.52-55.01,55.98-9.08,8.21-15.32,21.59-3.27,30.18,1.58,1.13,7.49,3.41,7.73,3.77ZM465.29,410.61c4.06-2.62,8.25-10.88,8.89-15.57,6.26-45.76-55.59-56.7-87.5-40.55-28.31,14.33-40.93,57.11,2.67,55.11-23.09-37.47,37.86-63.64,55.13-28.64,18.35,37.18-38.45,55.63-39.17,84.14-.08,3.31,1.53,7.15,2.04,10.44l2.51-8.96c12.88-30.65,55.94-40.6,56.43-77.95l1.88,7.38-2.88,14.6ZM472.28,412.62l-5.52,8.96c2.09-1.92,4.09-3.97,5.58-6.4.53-.86,2.06-2.57-.06-2.56ZM465.27,423.61c-1.89-.4-2.7,1.27-3.97,2.5,1.08.24,4.81-2.1,3.97-2.5ZM428.31,531.49c-2.55-2.89-2.27-6.96-3.81-10.68-1.93-4.66-6.19-9.01-7.19-14.29-1.74-.24-.94,2.27-.99,3.48-.11,3.16.09,6.35-.01,9.5-4.28-4.02-4.68-12.09-2.01-17.49-4.57.1-5.11,5.31-7.96,7.5-.63-6.27,4.75-9.68,7.98-13.97-6.93.69-12.71,2.83-16.96,8.49l6.97-1.01c-7.99,7.36-11.26,16.69-9.98,27.47l6.98-9.98c-2.34,7.35-2.91,17.1,3,22.97l.5-5.99c1.87,2.06,3.14,4.6,4.5,6.99.4.7.4,2.1,1.14,3.3,8.28,13.45,22.81,15.48,36.81,9.67l-6.92-3.55c-8.23-5.73-8.34-19.44-10.07-28.41-3.42-.83-1.69,3.84-1.99,6ZM434.3,511.52c-1.4-.72-2.67.63-1.99.98,1.4.72,2.67-.63,1.99-.98Z"/>
      <path class="cls-7" d="M465.29,410.61l2.88-14.6-1.88-7.38c-.49,37.34-43.55,47.3-56.43,77.95l-2.51,8.96c-.52-3.29-2.13-7.13-2.04-10.44.72-28.51,57.52-46.96,39.17-84.14-17.27-34.99-78.22-8.83-55.13,28.64-43.61,1.99-30.98-40.79-2.67-55.11,31.91-16.15,93.76-5.21,87.5,40.55-.64,4.69-4.83,12.96-8.89,15.57ZM465.78,386.63v1c.65-.33.65-.67,0-1Z"/>
      <path class="cls-10" d="M428.31,531.49c.3-2.16-1.43-6.83,1.99-6,1.73,8.96,1.84,22.68,10.07,28.41l6.92,3.55c-14,5.81-28.53,3.78-36.81-9.67-.74-1.2-.75-2.61-1.14-3.3l11.5,5.97c-2.94-5.77-5.66-11.15-4.5-17.96,3.87,2.23,6.09,7.6,10.97,7.99-.61-3.22.59-6.05,1-8.99Z"/>
      <path class="cls-7" d="M472.28,412.62c2.12-.01.59,1.7.06,2.56-1.49,2.43-3.49,4.48-5.58,6.4l5.52-8.96Z"/>
      <path class="cls-7" d="M465.27,423.61c.84.4-2.89,2.74-3.97,2.5,1.27-1.23,2.08-2.9,3.97-2.5Z"/>
      <path class="cls-14" d="M465.78,386.63c.65.33.65.67,0,1v-1Z"/>
      <path class="cls-14" d="M409.64,539.18c-4.85-4.4-4.73-14.73-3.29-20.67l2.44,14.03,3.52,7.46c-.38.58-2.46-.63-2.67-.82Z"/>
      <path class="cls-14" d="M403.84,535.49c.65.33.65.67,0,1v-1Z"/>
      <path class="cls-7" d="M409.33,544.48c-1.36-2.39-2.63-4.93-4.5-6.99l-.5,5.99c-5.9-5.87-5.33-15.62-3-22.97l-6.98,9.98c-1.28-10.79,1.99-20.11,9.98-27.47l-6.97,1.01c4.25-5.66,10.03-7.8,16.96-8.49-3.23,4.29-8.61,7.7-7.98,13.97,2.85-2.19,3.39-7.4,7.96-7.5-2.67,5.4-2.27,13.47,2.01,17.49.1-3.15-.1-6.34.01-9.5.04-1.2-.75-3.72.99-3.48,1,5.28,5.26,9.63,7.19,14.29,1.54,3.71,1.26,7.78,3.81,10.68-.41,2.94-1.62,5.76-1,8.99-4.88-.39-7.1-5.76-10.97-7.99-1.16,6.81,1.56,12.19,4.5,17.96l-11.5-5.97ZM409.64,539.18c.21.19,2.29,1.4,2.67.82l-3.52-7.46-2.44-14.03c-1.43,5.93-1.55,16.27,3.29,20.67ZM403.84,535.49v1c.65-.33.65-.67,0-1Z"/>
    </g>
  </g>
  <g>
    <path class="cls-9" d="M498.24,24.99c5.24,2.11,13.99,12.98,14.99,12.99l1,1c.34.61.84.77,1,1,10.16,14,26.93,27.32,38.38,42.04,55.08,70.85,46.89,135.17,16.59,215.22-6,15.84-10.61,34.98-32.21,28.17-8.27-2.6-14.93-10.73-20.73-16.23-.48-.46-4.33-4.01-5.02-2.47-1.36-1.36-2.65-2.58-4-4,.94-1.36-1.2-3.51-2.03-4.48-30.81-35.53-64.79-75.63-73.44-123.35-5.73-31.6-2.88-63.79-1.46-95.47.79-17.62-.35-47.71,4.29-63.64,5.42-18.61,23.62-15.04,36.99-7.58,8.92,4.98,17.22,13.37,25.67,16.79ZM460.28,12c.28-3.97-11.62-4.32-10.99,0-.64.2-1.34.7-2,1-.35.16-.64.76-1,1-.3.2-.62.69-1,1-.18.15-1.34-.27-1.77.18-.55.57-2.73,9.86-3.02,11.6s.58,3.24.44,4.55c-2.5,22.97-4.63,48.91-4.68,72.12-.1,44.93-1.27,71.96,19.94,113.15,1.83,3.56,1.89,11.75,7.08,11.19.08.31-.07.68,0,1,.62,2.84-1.71,4.66,3,4,.39.62.6,1.38,1,2-.51,3.91.46,7.3,5,6.99.41.58.58,1.43,1,2-1.59,2.55.53,3.93,2.3,5.71.53.54,1.56.16,1.7.29.39.38,2.77,2.75,3,3,3.8,4.15,6.79,9.37,9.99,13.99,1.97,2.84,1.22,2.87,4,5,.37.28.64.75,1,1,1.35,2.94,3.35,8.93,6.99,7.99.17.29.76.55,1,1,1.16,2.17-1.58.9,2,3,1.29.76,1.23.9,2,2,.4.57.12,2.39,1.5,2.99l.49-1.99c1.52,1.51,2.57,3.38,4,5,5.59,6.35,11.59,12.43,17.98,17.98.91.79,1.52,1.83,3,3,1.77,1.4,5.06,2.62,6.99,4,.25.18-.63,2.79,4.49,2.79s3.77-1.98,4.5-2.79c.32-.36.67-.66,1-1s.66-.68,1-1c.67-.64,1.29-1.33,2-2,.12-.12,1.15.53,2.08-.63,3.91-4.92,10.43-28.61,12.84-35.81,17.98-53.75,28.92-104.69-.11-158.74-.75-1.39-.39-3.16-2.81-2.63-.16-.46-.74-.95-1-2-.68-2.71,1.78-4.69-3-4-.11-.3.11-.72,0-1-2.19-5.38-2.87-5.3-5.99-8.99-.3-.35-.69-.63-1-1s-.7-.64-1-1c-2.36-2.84-6.68-7.76-7.99-10.99-.88-2.15,1.79-2.3-2-3-.32-.06-.67.02-1,0-.39-.6-.59-1.45-1-2-.28-.37-.67-.67-1-1s-.72-.64-1-1c.49-3.82-1.11-3.04-3-4-3.28-4.36-4.37-5.53-7.99-8.99-11.46-10.93-33.67-27.55-41.96-37.96-.14-.18.33-1.33-.18-1.81-.7-.65-2.35.04-2.81-.18-1.06-.52-1.99-1.38-3-2,.7-4.55-2.2-2.94-2.77-3.33-1.7-1.18-3.19-1.95-4.23-2.66-3.39-2.32-3.7-3.36-8.99-5-.33-.1-.92.14-1,0-.23-.38.25-1.79,0-2-.3-.25-2.18.14-3,0-.32-.06-.67.05-1,0Z"/>
    <path class="cls-12" d="M428.31,102.91c.42-23.79-.05-59.75,4.12-82.3,1.84-9.95,6.59-18.63,17.6-20.37s23.89,6.45,33,12.51l15.21,12.24c-8.45-3.42-16.75-11.81-25.67-16.79-13.37-7.46-31.56-11.03-36.99,7.58-4.64,15.93-3.5,46.03-4.29,63.64-1.42,31.67-4.27,63.86,1.46,95.47,8.65,47.72,42.63,87.82,73.44,123.35.84.96,2.97,3.11,2.03,4.48-44.94-47.08-78.15-91.98-79.92-160.84-.33-12.9-.23-26.06,0-38.96Z"/>
    <path class="cls-12" d="M515.23,39.97c3.55,2.25,7.54,5.99,10.54,8.94,59.41,58.33,83.54,112.32,62.52,196.53-3.57,14.32-17.53,63.68-25.25,73.62-1.43,1.85-8.2,8-10.31,8.67-17.86,5.63-29.55-10.07-40.5-21.01.69-1.54,4.54,2.01,5.02,2.47,5.81,5.5,12.47,13.63,20.73,16.23,21.6,6.8,26.21-12.33,32.21-28.17,30.31-80.06,38.49-144.37-16.59-215.22-11.45-14.73-28.21-28.05-38.38-42.04Z"/>
    <path class="cls-7" d="M428.31,141.87c-1.66-1.04-1-3.79-1.02-5.48-.12-9.32-.1-18.69,0-28,.02-1.69-.64-4.44,1.02-5.48-.23,12.9-.33,26.06,0,38.96Z"/>
    <path class="cls-12" d="M514.23,38.97l-1-1c.08,0,.42-1,.98-1.02.17.61-.18,1.66.02,2.01Z"/>
    <path class="cls-8" d="M460.28,12c.32.05.68-.06,1,0l3,2c.08.14.67-.1,1,0,1.4,3.23,6.81,3.56,8.99,5,.79.52,4.15,4.27,6.99,5.99,1.01.61,1.94,1.48,3,2,.43,1.43,1.54,1.98,3,2,8.29,10.41,30.49,27.03,41.96,37.96-.03,4.44,4.58,7.26,7.99,8.99.94,1.26,2.02,2.72,3,4,.28.36.67.68,1,1l1,1c.41.55.61,1.39,1,2-.33-.02-.67.01-1,0-33.85-1.3-68.02.97-101.9,0h-1c.7-17.44,1.19-37.23,3.01-54.43.52-4.88,1.51-9.82,2.98-14.5.38-.31.7-.8,1-1l1-1c.66-.3,1.36-.8,2-1,4.96-1.58,6.35-.77,10.99,0Z"/>
    <path class="cls-8" d="M561.18,293.72h1c-2.41,6.83-5.05,13.38-7.99,19.98-.71.66-1.32,1.36-2,2l-1,1c-.33.34-.68.64-1,1-3.1,1.21-5.89,1.21-8.99,0-1.94-1.38-5.23-2.6-6.99-4l-3-3c-6.4-5.55-12.39-11.63-17.98-17.98.76-1.39,2.44.91,4.44,1.06,13.99,1.06,29.37-.91,43.51-.06Z"/>
    <path class="cls-12" d="M445.3,15c-1.47,4.68-2.47,9.62-2.98,14.5-1.82,17.2-2.31,37-3.01,54.43-.31,7.61-.84,15.43-1,22.98-.38,17.54,0,34.79,2,51.95s4.87,31.89,11.81,47.63c2.77,6.28,9.7,15.55,11.17,21.3-5.18.55-5.24-7.63-7.08-11.19-21.21-41.19-20.03-68.21-19.94-113.15.05-23.21,2.18-49.15,4.68-72.12.14-1.32-.72-2.83-.44-4.55s2.47-11.03,3.02-11.6c.44-.45,1.6-.03,1.77-.18Z"/>
    <path class="cls-12" d="M529.21,66.95c3.63,3.46,4.72,4.63,7.99,8.99,1.88.96,3.48.18,3,4-.98-1.28-2.05-2.74-3-4-3.41-1.73-8.02-4.55-7.99-8.99Z"/>
    <path class="cls-12" d="M449.29,12c-.63-4.32,11.27-3.97,10.99,0-4.64-.77-6.03-1.58-10.99,0Z"/>
    <path class="cls-12" d="M465.28,14c5.29,1.64,5.6,2.67,8.99,5,1.03.71,2.53,1.48,4.23,2.66.57.4,3.46-1.22,2.77,3.33-2.84-1.73-6.2-5.47-6.99-5.99-2.18-1.43-7.59-1.76-8.99-5Z"/>
    <path class="cls-12" d="M550.19,317.7c-.72.81.56,2.8-4.5,2.79s-4.24-2.62-4.49-2.79c3.1,1.21,5.89,1.21,8.99,0Z"/>
    <path class="cls-12" d="M484.26,26.98c.46.22,2.11-.46,2.81.18.52.48.04,1.63.18,1.81-1.46-.01-2.56-.57-3-2Z"/>
    <path class="cls-12" d="M461.28,12c.82.15,2.7-.25,3,0,.25.21-.23,1.62,0,2l-3-2Z"/>
    <path class="cls-12" d="M551.19,316.7l1-1c-.34.32-.68.66-1,1Z"/>
    <path class="cls-12" d="M534.21,313.7c-1.47-1.16-2.08-2.2-3-3l3,3Z"/>
    <path class="cls-12" d="M542.2,81.93l-1-1c.33.33.72.62,1,1Z"/>
    <path class="cls-12" d="M446.3,14c.36-.24.65-.84,1-1l-1,1Z"/>
    <g>
      <path class="cls-1" d="M477.26,247.77c-4.02-8.38-12.38-15.88-13.99-24.98h115.89c-2.4,24.31-11.75,47.43-17.98,70.93-14.14-.85-29.52,1.12-43.51.06-2-.15-3.68-2.45-4.44-1.06-1.42-1.62-2.47-3.48-4-5-.62-.61-1.02-1.06-2-1-.77-1.09-.71-1.24-2-2-.02-1.45-.6-2.52-2-3-.24-.45-.83-.71-1-1-2.78-4.74-2.77-4.99-6.99-7.99-.36-.25-.63-.72-1-1-.68-2.04-1.51-5.48-4-5-3.2-4.61-6.19-9.84-9.99-13.99.42-3-2.67-2.67-3-3-.24-.24.24-1.72,0-2Z"/>
      <path class="cls-12" d="M566.18,115.9c2.42-.53,2.07,1.23,2.81,2.63,29.03,54.05,18.09,104.99.11,158.74-2.41,7.2-8.93,30.89-12.84,35.81-.92,1.16-1.95.51-2.08.63,2.94-6.6,5.58-13.15,7.99-19.98,15.08-42.75,30.05-96.97,18.49-141.87-3.41-13.25-10.29-23.76-14.5-35.95Z"/>
      <path class="cls-12" d="M502.24,280.74c-3.64.93-5.65-5.05-6.99-7.99,4.22,3,4.21,3.26,6.99,7.99Z"/>
      <path class="cls-12" d="M472.27,241.77c-4.54.3-5.5-3.08-5-6.99,1.5,2.3,3.39,4.7,5,6.99Z"/>
      <path class="cls-12" d="M477.26,247.77c.24.28-.24,1.76,0,2,.32.33,3.42,0,3,3-.23-.25-2.61-2.62-3-3-.13-.13-1.16.25-1.7-.29-1.77-1.78-3.89-3.16-2.3-5.71,1.24,1.69,3,2.81,4,4Z"/>
      <path class="cls-10" d="M544.2,83.93c.01,1.46.57,2.56,2,3,1.32,3.23,5.63,8.15,7.99,10.99l1,1c.31.37.7.65,1,1l5.99,8.99c.11.28-.11.7,0,1,.58,1.59,1.34,3.25,3,4,.26,1.04.84,1.53,1,2,4.2,12.19,11.09,22.71,14.5,35.95,11.56,44.91-3.41,99.12-18.49,141.87h-1c6.23-23.5,15.58-46.62,17.98-70.93h-115.89c1.61,9.09,9.96,16.59,13.99,24.98-1-1.19-2.76-2.3-4-4-.42-.57-.59-1.42-1-2-1.61-2.29-3.5-4.69-5-6.99-.4-.62-.61-1.37-1-2-.87-1.41-1.07-3.3-3-4-.07-.32.08-.69,0-1-1.47-5.75-8.4-15.02-11.17-21.3-6.94-15.75-9.83-30.71-11.81-47.63-.56-3.03,1.53-1.92,3.45-2,45.06-1.78,91.24,1.33,136.41,0-.96-3.99-1.68-8.71-2.94-12.54-7.02-21.33-19.41-37.9-31.14-55.74-1.12-1.7-2.95-2.8-3.88-4.64.33.01.67-.02,1,0s.68-.06,1,0Z"/>
      <path class="cls-12" d="M466.28,232.78c-4.71.66-2.37-1.16-3-4,1.93.7,2.12,2.59,3,4Z"/>
      <path class="cls-12" d="M562.18,109.9c4.78-.69,2.31,1.28,3,4-1.66-.75-2.42-2.41-3-4Z"/>
      <path class="cls-12" d="M509.23,287.73l-.49,1.99c-1.39-.61-1.1-2.42-1.5-2.99.97-.06,1.38.38,2,1Z"/>
      <path class="cls-12" d="M505.24,284.73c-3.58-2.1-.84-.83-2-3,1.4.48,1.98,1.54,2,3Z"/>
      <path class="cls-12" d="M490.25,266.75c2.49-.49,3.32,2.96,4,5-2.78-2.13-2.03-2.16-4-5Z"/>
      <path class="cls-12" d="M556.19,99.91c3.12,3.69,3.81,3.61,5.99,8.99l-5.99-8.99Z"/>
      <path class="cls-12" d="M544.2,83.93c3.79.7,1.12.85,2,3-1.43-.43-1.98-1.54-2-3Z"/>
      <path class="cls-12" d="M555.19,98.91l-1-1c.3.36.7.64,1,1Z"/>
      <path class="cls-1" d="M542.2,83.93c.93,1.84,2.76,2.94,3.88,4.64,11.73,17.84,24.12,34.42,31.14,55.74,1.26,3.83,1.97,8.55,2.94,12.54-45.16,1.34-91.35-1.77-136.41,0-1.92.08-4.01-1.03-3.45,2-2.01-17.16-2.38-34.41-2-51.95,3.03.56,1.92-1.53,2-3.45.26-6.49-.19-13.04,0-19.53,33.88.97,68.05-1.3,101.9,0Z"/>
      <path class="cls-10" d="M440.3,83.93c-.19,6.48.26,13.04,0,19.53-.08,1.92,1.03,4.01-2,3.45.16-7.55.69-15.36,1-22.98h1Z"/>
    </g>
  </g>
  <g>
    <path class="cls-9" d="M427.31,594.43c22.24-7.81,64.65-10.18,88.45-9.03,96.7,4.65,128.68,57.36,190.27,117.93,2.07,2.04,3.98,3.85,5.99,5.99.1,4.93,6.84,9.11,9.2,13.28,3.36,5.91,3.56,14.95-1.32,20.08-1.92,2.02-13.58,8.38-16.59,9.38-11.11,3.69-29.61,8.65-40.88,9.87-106.6,11.54-170.19-28.72-225.56-117.63-6.33-10.16-23.03-33-14.59-44.41,1.83-2.47,3.04-1.68,5.02-5.47ZM593.15,612.41c-.68-1.57-2.15-2.24-3.6-2.89-39.95-17.9-83.61-19.96-126.76-15.08-4.86.55-29.19,3.78-31.27,6.23-.48.56-.08,1.59-.21,1.75-.74.92-1.28,2.06-2,3-.07.09-1.28-.48-2.01.71-1.59,2.65.08,7.02,1.17,9.61.49,1.16,2.87,6.17,4.83,5.66.12.28-.12.72,0,1,.84,1.94-.13,5.99,4,5.99.11.29-.1.7,0,1,.57,1.69-.62,4.1,3,4,.11.28-.1.69,0,1,.57,1.68-.62,4.11,3,4,.11.27-.09.68,0,1,.16.56-.23,1.76,0,2,.25.26,1.63-.22,2,0,.13.08-.1.67,0,1,1,3.4.82,1.9,1.88,3.82s1.34,5.64,4.11,5.17c.14.38.95.61,1,2,0,.16-1.75,2.01-1,2.99.19.25,3.24.52,4,1.01.4.25.66.68,1,1,.32.3.8.7,1,1,.15.23-.15.77,0,1,2.73,4,5.69,7.98,7.99,10.99.26.34.69.63,1,1,.12.15,1.67,2.49,2,3,.24.36.81.64,1,1,1.16,2.16-1.58.89,2,3,1.34.79,1.31,1.34,2,2-.14,2.5,1.78,2.85,3,4,.73.68,1.31,1.3,2,2-.93,3.78,1.55,2.78,3,4,3.41,2.85,5.91,5.91,8.99,8.99.99.99,2.02,2.01,3,3s1.99,1.96,3,3c.33.34.67.66,1,1,.66.68,1.23,1.13,2,2,.19.22,0,1.54.99,2.49,1.21,1.16,2.88.97,4.01,1.51,1.06.5,1.93,1.48,3,2v1c.15,1.27,1.88.86,2,1,.26.31.66.57,1,1,.15.19-.35,1.44.12,1.87.62.56,2.24-.09,2.87.13,2.35.83,2.51,1.53,4,3,2.93,2.9,2.43,1.86,5.99,4,.5.3,1.94.86,2,1,.25.65-.18,2.11.01,3,.8.26.92-1,.99-1,.33,0,.86-.08,1,0,1.98,1.2,1.16,1,4,2,.3.11.71-.11,1,0-.11,2.35,1.4,2.6,2.96,3.54,43.1,25.72,110.49,27.52,158.17,13.39,2.45-.72,7.14-3.88,11.24-4.94,2.35-.61,2.85,1.23,2.46-2.99.3-.08.66.06,1,0,.82-.14,2.39.35,2.91-.1.42-.37-.08-1.66.09-1.89.84-1.2,2.04-3.02,3-4,.15-.15,1.75.56,2.04-.63s.2-5.41-.08-6.65c-.15-.64-1.3-.72-1.56-1.15-.44-.76-.35-2.04-.63-2.31-.65-.62-1.65-.15-1.76-.25-.34-.31-.66-.73-1-1,.78-4.25-1.37-2.56-2-3-2.13-1.5-2.62-2.77-4-4-.3-.27-.49-.84-1-1-.3-.1-.68.07-1,0v-1c.93-3.55-2.03-3.26-4-5-2.13-1.88-3.14-2.65-5-5-1.95-2.46-3.08-6.24-5.48-6.99l-.51.99c-1.22-1.46-2.29-3.17-3-4-2.76-3.24-5.45-6.54-8.99-8.99-.33-.34-.67-.66-1-1s-.67-.66-1-1-.67-.66-1-1-.67-.66-1-1c-.96-1-2-1.95-3-3,1.77-.17-1.12-3.42-1.35-3.64-2.17-2.07-5.35-4.21-7.64-6.35-.35-.32-.66-.68-1-1-1.64-1.54-3.3-3.36-5-5s-3.31-3.34-5-5c-1.91-2.65-3.34-6.58-6.99-6.99-.67-.67-1.33-1.33-2-2-.33-.33-.67-.66-1-1-.66-.67-1.33-1.32-2-2-.33-.34-.67-.67-1-1-1.36-1.37-2.65-2.56-4-4-3.06-3.26-1.09-2.3-5.99-5-.65-.36-1.35-.64-2-1,.33-3.19.19-3.34-3-3-.29-.4-1.26-1-2-2-.14-.19.34-1.22-.17-1.8-.38-.43-3.7-1.64-4.82-2.2-.27-.13-.73.13-1,0,.68-2.94-2.26-2.15-4-3-.55-.27-1.73-.71-2-1-.81-.88,1.73-.92-2-2-.32-.09-.71.1-1,0-.1-4.01-3.72-3.23-5.99-4-.29-.1-.68.09-1,0-.04-1.3-.58-2.22-1.48-3.12-1.19-1.2-1.44.13-1.51.12-.34-.04-.71.07-1,0Z"/>
    <path class="cls-12" d="M427.31,594.43c.21-.41-.54-1.26.6-2.09,4.57-3.34,20.65-4.21,26.76-5.02,44.15-5.87,88.46-5.44,130.45,10.65,45.44,17.42,80.98,63.2,114,96.83,2.19,2.23,5.55,5.77,6.93,8.53-61.6-60.57-93.57-113.27-190.27-117.93-23.8-1.15-66.21,1.22-88.45,9.03-1.98,3.79-3.19,2.99-5.02,5.47-8.44,11.4,8.26,34.25,14.59,44.41,55.37,88.9,118.96,129.17,225.56,117.63,11.27-1.22,29.77-6.18,40.88-9.87,3.02-1,14.67-7.36,16.59-9.38,4.88-5.13,4.68-14.17,1.32-20.08-2.37-4.17-9.1-8.34-9.2-13.28,8.34,8.9,16.81,15.65,12.22,29.7-4.41,13.5-41.25,21.63-54,23.93-50.94,9.17-106.85,1.26-150.95-26.24-35.66-22.24-61.04-54.96-83.42-90.41-7.36-11.66-26.25-36.72-13.61-49.41,2.57-2.58,2.62-1.61,5.04-2.46Z"/>
    <path class="cls-5" d="M487.26,654.37l.5.98.5-.98c3.65-.03,7.34.02,10.99,0,.41,1.56,3.67,1.49,4,0,6.65-.03,13.33.01,19.98,0,4.05,1.66,11.73,1.69,15.98,0,5.65,0,11.33,0,16.98,0,.66,1.58,4.34,1.58,5,0h3c1.57,1.68,6.46,1.67,7.99,0h18.98c.41,1.56,3.67,1.49,4,0h7.99l.5.98.5-.98h6.99c.14,1.5,2.86,1.5,3,0h13.99l.5.98.5-.98h5.99c1.86,1.68,7.13,1.68,8.99,0h1c1.05,1.02,2.94,1.96,4,3,1.68,1.66,3.27,3.33,5,5l5,5c.34.32.65.68,1,1,2.75,3.54,5.91,6.75,8.99,9.99.99,1.04,2.04,1.99,3,3l1,1c.33.34.67.66,1,1l1,1c.33.34.67.66,1,1,2.94,3.01,5.31,6.71,8.99,8.99.71.83,1.78,2.54,3,4,1.83,2.19,3.4,4.58,5.99,5.99,1.85,2.34,2.87,3.12,5,5l4,5v1h-195.81c-1.07-.52-1.94-1.49-3-2-1.09-1.92-2.61-3.86-5-4-.77-.87-1.34-1.32-2-2l-1-1c-1-1.03-2-1.99-3-3l-3-3c-3.08-3.08-5.58-6.14-8.99-8.99-.42-2.08-1.76-2.75-3-4-.69-.7-1.27-1.31-2-2-.84-1.45-1.78-2.83-3-4-.68-.65-.66-1.21-2-2,0-1.46-.6-2.51-2-3-.19-.36-.76-.64-1-1,0-1.47-.62-2.48-2-3-.31-.36-.74-.66-1-1l-7.99-10.99c-.15-.23.15-.77,0-1l-1-1c-.34-.32-.6-.75-1-1-.1-.63.15-1.47,0-2,1-.03,2,.04,3,0,9.65-.37,19.21-.91,28.97-1Z"/>
    <path class="cls-2" d="M593.15,612.41c.29.07.66-.04,1,0-.58,2.01,1.36,2.53,3,3,.31.09.71-.1,1,0,1.1,1.99,3.97,3.28,5.99,4,.29.1.68-.09,1,0l2,2c.26.29,1.45.73,2,1,1.15,1.19,2.51,2.27,4,3,.27.13.73-.13,1,0,1.5,1.39,2.97,3.92,5,4,.74,1,1.7,1.6,2,2,1.43,1.93-.49,1.08,3,3,.65.36,1.35.64,2,1,.84,3.28,3.02,4.11,5.99,5,1.35,1.44,2.63,2.63,4,4l1,1c.67.68,1.34,1.33,2,2l1,1c.67.67,1.33,1.33,2,2,1.29,1.28,2.81,3.81,3,4h-72.93c-2.66,0-5.33,0-7.99,0h-3c-1.66,0-3.33,0-5,0-5.65,0-11.33,0-16.98,0-5.32,0-10.67-.01-15.98,0-6.65.01-13.33-.03-19.98,0-1.33,0-2.66,0-4,0-3.65.02-7.34-.03-10.99,0-.33,0-.67,0-1,0-9.76.09-19.32.63-28.97,1-.71-1.63-2.79-.79-4-1-.57-.1-1.34-.81-2-1-.05-1.39-.85-1.61-1-2-1.23-3.27-3.24-6.78-5.99-8.99-.1-.33.13-.92,0-1l-2-2c-.09-.32.11-.72,0-1-.61-1.59-1.31-3.24-3-4-.1-.3.11-.72,0-1-.62-1.59-1.31-3.24-3-4-.1-.3.11-.71,0-1-.78-2.07-1.95-4.87-4-5.99-.12-.28.12-.72,0-1-2.19-5.11-7.05-9.69-4-15.98.72-.94,1.26-2.07,2-3,2.73-.52,5.02-2.16,7.76-2.72,35.96-7.3,86.3-8.22,122.12,1.21,11.13,2.93,21.42,8.78,31.96,11.5Z"/>
    <path class="cls-8" d="M703.04,715.31c.32.07.7-.1,1,0l1,1c1.37,1.22,1.86,2.5,4,4-.12,1.93.9,2.13,2,3,.34.27.66.68,1,1,1.54,4.12,4.4,6.22,2,10.99-.96.97-2.16,2.8-3,4-1.46.01-2.56.57-3,2-.33.06-.7-.08-1,0-6.36,1.65-13.49,5.32-20.22,7.26-44.64,12.86-94.71,9.69-137.6-7.79-5.73-2.33-11.35-6.28-17.02-8.46-.29-.11-.7.11-1,0-.51-1.81-2.26-2.19-4-2-.14-.08-.67,0-1,0l-1-2c-.06-.14-1.5-.7-2-1l-5.99-4c-1.48-1.47-1.64-2.17-4-3-.43-1.43-1.54-1.98-3-2-.34-.43-.74-.69-1-1l-2-1v-1h195.81Z"/>
    <path class="cls-12" d="M707.04,741.29c.39,4.22-.11,2.38-2.46,2.99-4.1,1.07-8.79,4.22-11.24,4.94-47.69,14.13-115.08,12.33-158.17-13.39-1.56-.93-3.07-1.18-2.96-3.54,5.66,2.18,11.29,6.12,17.02,8.46,42.89,17.48,92.95,20.65,137.6,7.79,6.73-1.94,13.85-5.61,20.22-7.26Z"/>
    <path class="cls-12" d="M593.15,612.41c-10.54-2.72-20.83-8.56-31.96-11.5-35.81-9.43-86.16-8.51-122.12-1.21-2.75.56-5.03,2.2-7.76,2.72.13-.17-.27-1.19.21-1.75,2.08-2.44,26.41-5.68,31.27-6.23,43.15-4.88,86.81-2.83,126.76,15.08,1.45.65,2.92,1.32,3.6,2.89Z"/>
    <path class="cls-12" d="M429.31,605.42c-3.05,6.29,1.8,10.87,4,15.98-1.96.51-4.34-4.5-4.83-5.66-1.09-2.6-2.77-6.97-1.17-9.61.72-1.2,1.93-.62,2.01-.71Z"/>
    <path class="cls-12" d="M712.04,724.3c.12.11,1.11-.37,1.76.25.29.27.19,1.54.63,2.31.25.43,1.41.52,1.56,1.15.28,1.23.36,5.5.08,6.65s-1.89.47-2.04.63c2.4-4.77-.46-6.87-2-10.99Z"/>
    <path class="cls-12" d="M454.29,654.37c.15.44.94.8,1,1,.15.53-.1,1.37,0,2-.76-.48-3.81-.76-4-1.01-.75-.98,1-2.83,1-2.99.66.19,1.43.9,2,1Z"/>
    <path class="cls-12" d="M451.29,651.37c-2.78.47-3.04-3.23-4.11-5.17s-.88-.42-1.88-3.82c2.76,2.21,4.77,5.72,5.99,8.99Z"/>
    <path class="cls-12" d="M626.12,635.39c4.91,2.7,2.94,1.73,5.99,5-2.97-.88-5.16-1.72-5.99-5Z"/>
    <path class="cls-12" d="M437.3,628.4c-4.12,0-3.16-4.06-4-5.99,2.04,1.12,3.22,3.93,4,5.99Z"/>
    <path class="cls-12" d="M604.14,619.41c-2.03-.71-4.89-2-5.99-4,2.27.77,5.89-.01,5.99,4Z"/>
    <path class="cls-12" d="M504.24,713.31c-1.13-.54-2.8-.35-4.01-1.51-.98-.94-.79-2.27-.99-2.49,2.38.14,3.91,2.08,5,4Z"/>
    <path class="cls-12" d="M621.12,631.39c3.19-.34,3.33-.19,3,3-3.48-1.92-1.57-1.06-3-3Z"/>
    <path class="cls-12" d="M660.09,668.36c2.29,2.14,5.47,4.28,7.64,6.35.23.22,3.12,3.47,1.35,3.64-3.08-3.24-6.24-6.45-8.99-9.99Z"/>
    <path class="cls-12" d="M694.05,704.32c-2.6-1.42-4.17-3.8-5.99-5.99l.51-.99c2.4.75,3.54,4.53,5.48,6.99Z"/>
    <path class="cls-12" d="M440.3,633.39c-3.62.11-2.43-2.31-3-4,1.69.75,2.38,2.41,3,4Z"/>
    <path class="cls-12" d="M443.3,638.39c-3.62.11-2.43-2.31-3-4,1.69.75,2.39,2.41,3,4Z"/>
    <path class="cls-12" d="M597.15,615.41c-1.63-.47-3.58-.99-3-3,.08,0,.32-1.32,1.51-.12.9.9,1.44,1.82,1.48,3.12Z"/>
    <path class="cls-12" d="M531.21,732.3c-2.83-1-2.02-.8-4-2,1.73-.19,3.48.18,4,2Z"/>
    <path class="cls-12" d="M481.26,691.34c-1.45-1.21-3.93-.21-3-4,1.23,1.25,2.58,1.92,3,4Z"/>
    <path class="cls-12" d="M513.23,720.31c-.63-.22-2.25.43-2.87-.13-.47-.43.03-1.67-.12-1.87,1.46.01,2.56.57,3,2Z"/>
    <path class="cls-12" d="M711.04,739.29c-.17.24.34,1.52-.09,1.89-.52.46-2.09-.04-2.91.1.43-1.43,1.54-1.98,3-2Z"/>
    <path class="cls-12" d="M471.27,679.35c-3.58-2.11-.84-.84-2-3,1.39.49,1.99,1.53,2,3Z"/>
    <path class="cls-12" d="M709.04,720.31c.62.44,2.78-1.25,2,3-1.1-.87-2.11-1.07-2-3Z"/>
    <path class="cls-12" d="M699.05,709.32c1.97,1.74,4.93,1.45,4,5l-4-5Z"/>
    <path class="cls-12" d="M523.22,727.3c-3.56-2.14-3.07-1.1-5.99-4l5.99,4Z"/>
    <path class="cls-12" d="M457.28,660.37l7.99,10.99c-2.3-3.01-5.26-6.99-7.99-10.99Z"/>
    <path class="cls-12" d="M468.27,675.35c-.33-.51-1.87-2.85-2-3,1.38.51,1.99,1.53,2,3Z"/>
    <path class="cls-12" d="M614.13,625.4c1.12.56,4.44,1.77,4.82,2.2.51.58.03,1.61.17,1.8-2.03-.08-3.49-2.6-5-4Z"/>
    <path class="cls-12" d="M649.1,657.37c-1.05-1.04-2.95-1.98-4-3-.19-.18-1.7-2.71-3-4,3.66.41,5.08,4.35,6.99,6.99Z"/>
    <path class="cls-12" d="M526.22,730.3c-.07,0-.19,1.26-.99,1-.19-.89.24-2.35-.01-3l1,2Z"/>
    <path class="cls-12" d="M445.3,641.38c-.36-.22-1.74.25-2,0-.23-.23.16-1.44,0-2l2,2Z"/>
    <path class="cls-12" d="M609.14,622.4c1.73.85,4.67.05,4,3-1.48-.73-2.85-1.81-4-3Z"/>
    <path class="cls-12" d="M605.14,619.41c3.73,1.08,1.19,1.12,2,2l-2-2Z"/>
    <path class="cls-12" d="M509.23,717.31c-.12-.14-1.85.27-2-1l2,1Z"/>
    <path class="cls-12" d="M476.27,685.34c-1.22-1.15-3.13-1.5-3-4,1.22,1.16,2.16,2.55,3,4Z"/>
    <path class="cls-12" d="M637.11,645.38l-1-1c.33.33.67.66,1,1Z"/>
    <path class="cls-12" d="M640.11,648.38l-1-1c.33.33.67.67,1,1Z"/>
    <path class="cls-12" d="M457.28,659.37c-.2-.3-.68-.7-1-1l1,1Z"/>
    <path class="cls-12" d="M659.09,667.36l-5-5c1.7,1.63,3.35,3.46,5,5Z"/>
    <path class="cls-12" d="M673.07,682.34l-1-1c.32.34.67.66,1,1Z"/>
    <path class="cls-12" d="M675.07,684.34l-1-1c.33.34.67.66,1,1Z"/>
    <path class="cls-12" d="M685.06,694.33c-3.68-2.28-6.05-5.98-8.99-8.99,3.54,2.45,6.23,5.75,8.99,8.99Z"/>
    <path class="cls-12" d="M493.25,703.32c-.98-.99-2.01-2.01-3-3l3,3Z"/>
    <path class="cls-12" d="M497.25,707.32c-.33-.34-.67-.66-1-1l1,1Z"/>
    <path class="cls-12" d="M705.04,716.31l-1-1c.51.16.7.73,1,1Z"/>
    <path class="cls-4" d="M539.2,654.37c-4.26,1.69-11.93,1.66-15.98,0,5.32-.01,10.67,0,15.98,0Z"/>
    <path class="cls-4" d="M644.1,654.37c-1.86,1.68-7.13,1.68-8.99,0h8.99Z"/>
    <path class="cls-4" d="M572.17,654.37c-1.53,1.67-6.42,1.68-7.99,0,2.66,0,5.33,0,7.99,0Z"/>
    <path class="cls-4" d="M561.18,654.37c-.66,1.58-4.34,1.58-5,0,1.66,0,3.33,0,5,0Z"/>
    <path class="cls-4" d="M595.15,654.37c-.32,1.49-3.58,1.56-4,0h4Z"/>
    <path class="cls-4" d="M503.24,654.37c-.32,1.49-3.58,1.56-4,0,1.33,0,2.66,0,4,0Z"/>
    <path class="cls-4" d="M458.28,655.37c-1,.04-2-.03-3,0-.06-.2-.85-.56-1-1,1.21.21,3.28-.63,4,1Z"/>
    <path class="cls-4" d="M614.13,654.37c-.14,1.5-2.86,1.5-3,0h3Z"/>
    <path class="cls-4" d="M487.26,654.37c.33,0,.67,0,1,0l-.5.98-.5-.98Z"/>
    <polygon class="cls-4" points="603.14 654.37 604.14 654.37 603.64 655.35 603.14 654.37"/>
    <polygon class="cls-4" points="628.12 654.37 629.12 654.37 628.62 655.35 628.12 654.37"/>
  </g>
  <g>
    <path class="cls-12" d="M292.45,809.22c-23.3-16.99-41.23-68.89-43-97.36-2.38-38.24,12.1-96.72,24.53-133.4,4.86-14.33,9.05-28.1,27.66-22.69,7.93,2.3,19.94,15.41,26.3,21.65,45.57,44.67,98.58,98.46,101.37,165.86.3,7.22.08,14.74,0,21.98-.35,32.1-5.58,64.97-9.56,95.06-4.01,30.29-23.63,31.35-47.05,19-22.25-11.73-68.49-49.01-80.25-70.1,9.14,6.67,20.37,21.84,29.96,30.48,16.52,14.9,50.33,41.53,71.51,45.4,5.88,1.07,17.47-5.49,19.83-11.03,6.74-15.77,11-60.71,12.56-79.35,5.5-65.65-1.46-104.75-43.98-155.82-18.39-22.09-42.61-48.77-63.39-68.48-7.26-6.89-17.95-16.03-28.54-13.49-6.43,1.54-9.87,9.49-11.96,15-7.85,20.69-14.12,47.35-18.87,69.05-10.47,47.81-13.32,92.05,11.84,136.81,6.13,10.9,15.11,20.8,21.04,31.43Z"/>
    <path class="cls-9" d="M292.45,809.22c-5.93-10.63-14.91-20.53-21.04-31.43-25.15-44.76-22.31-89-11.84-136.81,4.75-21.7,11.02-48.36,18.87-69.05,2.09-5.52,5.53-13.46,11.96-15,10.59-2.54,21.28,6.61,28.54,13.49,20.78,19.72,45,46.4,63.39,68.48,42.51,51.06,49.48,90.17,43.98,155.82-1.56,18.64-5.82,63.58-12.56,79.35-2.37,5.54-13.96,12.1-19.83,11.03-21.18-3.87-54.99-30.5-71.51-45.4-9.59-8.65-20.81-23.82-29.96-30.48ZM277.46,604.42c.41,2.02,8.94,8.99,10.99,10.99,8.14,7.93,15.44,15.92,22.98,23.98,3.94,4.21,7.89,7.97,11.99,11.99,1.7,1.67,3.74,2.47,5,5,.19.39-.15,1.4.02,2.01.55.02.91-1.03.98-1.01,2.37.46,2.91,3.67,4,5,2.15,2.62,3.83,3.83,5.99,5.99,1.38,1.38,9.93,9.65,10.64,9.8,2.86.61,3.4-2.92,5.02-3.59,15.77-6.5,31.93-.83,41.28,12.77.37.54,1.85,2.73,2,3,.93,1.65,1.24,2.4,2,4l1.04,17.53c-.13,4.47-1.69,7.23-1.04,11.44.14.93.64,3.34,1,4,1.05,1.91,1.95,1.92,3,3,3.61,3.7,8,6.62,10.99,10.99,1.14,1.67.29,5.43,4.99,4.99.44-17.09-3.4-35.47-10.47-51.01-.67-1.47.21-3.54-2.51-2.93-.1-.3.1-.7,0-1-.99-2.88-1.25-5.92-4-7.99-.29-.65-.68-1.28-1-2-.81-1.85-1.05-3.67-3-5-.22-.54-.67-1.1-1-2-1.72-4.6-1.13-1.87-2-3-22.4-29.22-46.28-57.37-71.93-83.92-.67-.69-1.34-1.33-2-2-3.95-4.05-8.93-9.23-12.99-12.99-.64-.59-1.09-1.22-2-2-.38-.33-2.38-1.62-3-2-.29-.18-.55-.78-1-1-5.46-2.73-10.2-4.41-14.43,1.06-2.87,3.71-12.34,32.01-11.55,35.91ZM283.45,742.29c4.2,5.96,3.1,4.24,7.99,7.99,3.4,2.61,5.2,5,7.99,7.99.69.74,1.46,1.41,2,2,.31.35.68.65,1,1,4.1,4.49,8.1,10.23,11.94,14.53,1.4,1.57,4.43,1.87,6.04,3.45,4.29,4.33,8.68,8.66,12.99,12.99.67.67,1.33,1.33,2,2,.33.33.67.67,1,1,1.22,4.3.65,6.03,5.99,5.99,1.65,1.66,3.34,3.33,5,5v4s4,0,4,0c1.33,1.33,2.67,2.67,4,4-.3,3.25,1.69,5.29,5,5,.33.33.67.67,1,1-.24,3.46,3.39,7.21,6.99,6.99.67.67,1.33,1.34,2,2-.45,5.83,5.12,7.44,8.03,10.45,7.09,7.34,14.29,16.2,21.93,23.03.84.75,5.13,4.15,5.62,4.24.32.06,5.18-.58,5.39-.76.25-.22-.74-2.29-.63-3.3,1.15-10.66,4.25-20.59,5.64-31.24.27-2.07-1.08-3.65-1.04-4.85.02-.59,1.83-.46,2.02-1.23.48-1.91-.3-4.63.02-6.82.36-2.46,1.99-8.03,1.69-9.86-.64-3.94-14.15-14.9-17.69-18.13-2.38-2.18-2.87-6.62-8-5.49-3.38-3.43-25.81-26.35-27.68-26.83-3.4-.86-3.87,2.18-5.03,2.82-6.41,3.59-25.4,13.64-31.88,13.96-4.98.25-10.25-4.8-13.86-7.91-21.31-18.32-49.37-51.54-39.49-81.5.86-2.62,5.33-9.2,4.94-10.73-.56-2.21-7.63-7.17-9.53-9.05-.56-.55-6.84-10.41-7.36-6.08.5,8.63-2.41,17.4-2.97,25.92-.4,6.13-.99,23.52.2,28.75s17.57,19.31,21.82,25.17c.72,1,.71,2.18.94,2.51ZM297.44,667.36c-41.39,21.12-8.22,68.48,14.46,89.94,2.24,2.12,12.77,11.71,14.56,12.44,4.29,1.73,18.96-5.85,23.6-8.3,9.33-4.92,17.56-11.39,26.3-17.15,1.48,1.41,2.13-1,3-2,2.27-2.62,4.66-4.57,6.99-6.99.33-.34.67-.66,1-1s.67-.66,1-1c4.04-4.17,4.15-3.25,5.99-8.99.1-.3-.09-.69,0-1,2.66.58,1.95-1.34,2.49-2.96,2.53-7.62,3.69-13.99.84-21.86-.78-2.14-2.2-2.87-2.32-3.15-.22-.49-.74-1.52-1-2-1.82-3.33-3.63-9.86-8.99-9.99-.33-.33-.67-.67-1-1-.11-.1.42-1.24-.63-2.07-3.99-3.15-16.19-4.95-21.18-3.26l-7.16,4.33c-.27.11-.72.55-2,1-3.67,1.28-1.11,1.01-2,2-1.59,1.77-7.78,7.84-9.48,9-.84.58-.98,1.39-2.5.99-.87-5.88-4.34-11.43-8-15.98-.42-2.78-3.19-5.56-5.99-5.99-.75-.66-1.58-1.66-2-2-2.46-1.95-1.42-1.06-4-2-.28-.1-.68.09-1,0,.59-2.93-5.73-3.84-7.48-4-6.53-.6-8.14.27-13.5,3Z"/>
    <path class="cls-3" d="M303.43,567.46l1,1c.62.38,2.61,1.67,3,2l2,2c4.05,3.75,9.03,8.94,12.99,12.99l2,2c25.65,26.55,49.53,54.7,71.93,83.92.01,1.46.57,2.56,2,3,.33.89.78,1.46,1,2,.78,1.92,1.12,3.68,3,5,.32.72.71,1.35,1,2,1.16,2.59,1.57,5.96,4,7.99.1.3-.1.7,0,1,4.32,12.25,9.74,25.5,10.86,38.59.17,1.96,1.64,13.13-2.87,10.36-2.99-4.37-7.38-7.29-10.99-10.99l-3-3c-.36-.65-.86-3.07-1-4,3.79-10.02,4.65-19.2,0-28.97-.76-1.59-1.07-2.35-2-4l-2-3c-9.35-13.6-25.52-19.27-41.28-12.77-1.62.67-2.16,4.21-5.02,3.59-.71-.15-9.27-8.43-10.64-9.8l-5.99-5.99c-1.09-1.32-1.62-4.53-4-5l-1-1c-1.25-2.53-3.29-3.33-5-5l-11.99-11.99c-7.53-8.05-14.84-16.05-22.98-23.98l-10.99-10.99c-.79-3.9,8.68-32.19,11.55-35.91,4.23-5.46,8.96-3.79,14.43-1.06Z"/>
    <path class="cls-10" d="M283.45,742.29c-.23-.33-.22-1.51-.94-2.51-4.25-5.87-20.64-19.94-21.82-25.17s-.6-22.62-.2-28.75c.56-8.52,3.47-17.29,2.97-25.92.52-4.33,6.8,5.52,7.36,6.08,1.9,1.88,8.97,6.84,9.53,9.05.39,1.54-4.08,8.12-4.94,10.73-9.88,29.96,18.18,63.18,39.49,81.5,3.62,3.11,8.89,8.16,13.86,7.91,6.48-.32,25.47-10.37,31.88-13.96,1.16-.65,1.63-3.69,5.03-2.82,1.87.47,24.3,23.4,27.68,26.83,7.65,7.75,15.12,15.79,22.74,23.59l-7.76,56.33c-1.73.45-2-.72-3-1.49-10.44-8.02-24.99-24.57-34.96-34.47-.67-.66-1.33-1.33-2-2-2.33-2.31-4.67-4.67-6.99-6.99-.33-.33-.67-.67-1-1-1.66-1.66-3.33-3.34-5-5-1.33-1.33-2.67-2.67-4-4s-2.67-2.67-4-4c-1.66-1.66-3.34-3.33-5-5-1.99-2-4-4-5.99-5.99-.33-.33-.67-.67-1-1l-2-2c-4.31-4.32-8.7-8.66-12.99-12.99-5.95-6-11.3-12.71-17.98-17.98-.32-.35-.68-.65-1-1l-2-2c-2.79-3-4.59-5.38-7.99-7.99-.83-3.23-4.72-7.13-7.99-7.99Z"/>
    <path class="cls-12" d="M393.35,785.24c5.13-1.13,5.62,3.31,8,5.49,3.53,3.23,17.04,14.19,17.69,18.13.3,1.83-1.33,7.4-1.69,9.86-.32,2.19.46,4.91-.02,6.82-.2.77-2,.65-2.02,1.23-.03,1.2,1.31,2.77,1.04,4.85-1.39,10.65-4.49,20.58-5.64,31.24-.11,1.02.88,3.08.63,3.3-.2.18-5.06.82-5.39.76-.5-.09-4.79-3.49-5.62-4.24-7.63-6.82-14.84-15.69-21.93-23.03-2.91-3.01-8.48-4.62-8.03-10.45,9.97,9.91,24.52,26.45,34.96,34.47,1,.77,1.27,1.94,3,1.49l7.76-56.33c-7.62-7.8-15.09-15.84-22.74-23.59Z"/>
    <path class="cls-12" d="M407.33,692.33c2.72-.61,1.84,1.46,2.51,2.93,7.07,15.54,10.91,33.92,10.47,51.01-4.7.44-3.85-3.32-4.99-4.99,4.51,2.77,3.04-8.4,2.87-10.36-1.12-13.09-6.55-26.34-10.86-38.59Z"/>
    <path class="cls-12" d="M400.34,723.3c-.65-4.22.92-6.97,1.04-11.44l-1.04-17.53c4.65,9.77,3.79,18.95,0,28.97Z"/>
    <path class="cls-12" d="M291.45,750.28c-4.89-3.75-3.8-2.03-7.99-7.99,3.28.86,7.16,4.77,7.99,7.99Z"/>
    <path class="cls-12" d="M368.37,827.2c-3.6.21-7.24-3.53-6.99-6.99,2.33,2.32,4.67,4.68,6.99,6.99Z"/>
    <path class="cls-12" d="M342.4,801.23c-5.34.03-4.78-1.69-5.99-5.99,1.99,2,4,3.99,5.99,5.99Z"/>
    <path class="cls-12" d="M360.38,819.21c-3.3.3-5.29-1.75-5-5,1.66,1.66,3.33,3.34,5,5Z"/>
    <path class="cls-12" d="M320.42,779.25c-1.61-1.58-4.64-1.88-6.04-3.45-3.84-4.3-7.84-10.04-11.94-14.53,6.68,5.27,12.03,11.98,17.98,17.98Z"/>
    <path class="cls-12" d="M351.39,810.22h-4s0-4,0-4c1.33,1.33,2.67,2.67,4,4Z"/>
    <path class="cls-12" d="M396.34,671.35c.87,1.13.28-1.6,2,3-1.43-.43-1.98-1.54-2-3Z"/>
    <path class="cls-12" d="M407.33,691.34c-2.43-2.04-2.84-5.41-4-7.99,2.74,2.07,3,5.11,4,7.99Z"/>
    <path class="cls-12" d="M398.34,690.34c-.15-.26-1.62-2.45-2-3l2,3Z"/>
    <path class="cls-12" d="M402.34,681.35c-1.88-1.32-2.22-3.08-3-5,1.95,1.32,2.18,3.14,3,5Z"/>
    <path class="cls-12" d="M329.41,657.37c-.07-.01-.43,1.03-.98,1.01-.16-.62.17-1.63-.02-2.01l1,1Z"/>
    <path class="cls-12" d="M304.43,568.46l-1-1c.45.22.71.82,1,1Z"/>
    <path class="cls-12" d="M309.43,572.45l-2-2c.91.78,1.36,1.41,2,2Z"/>
    <path class="cls-12" d="M324.41,587.44l-2-2c.65.67,1.33,1.31,2,2Z"/>
    <path class="cls-12" d="M288.45,615.41c-2.05-2-10.58-8.97-10.99-10.99l10.99,10.99Z"/>
    <path class="cls-12" d="M323.42,651.37c-4.1-4.02-8.05-7.78-11.99-11.99l11.99,11.99Z"/>
    <path class="cls-12" d="M339.4,668.36c-2.17-2.17-3.84-3.37-5.99-5.99l5.99,5.99Z"/>
    <path class="cls-12" d="M404.34,730.3c-1.05-1.07-1.94-1.09-3-3l3,3Z"/>
    <path class="cls-12" d="M301.44,760.27c-.54-.59-1.3-1.25-2-2l2,2Z"/>
    <path class="cls-12" d="M335.4,794.23c-.67-.67-1.33-1.33-2-2l2,2Z"/>
    <g>
      <path class="cls-13" d="M318.42,668.36c.31.09.71-.1,1,0l4,2c.42.33,1.25,1.33,2,2,2.29,2.04,4.03,3.55,5.99,5.99,3.66,4.55,7.13,10.11,8,15.98,1.52.4,1.66-.41,2.5-.99,1.69-1.16,7.88-7.24,9.48-9l2-2c1.28-.45,1.73-.89,2-1,10.54-4.21,18.75-4.26,28.97,1,.33.33.67.67,1,1,3.19,3.23,6.35,6.23,8.99,9.99.26.48.78,1.51,1,2,3.37,10.48,2.07,17.83-1,27.97-.09.31.1.7,0,1l-5.99,8.99c-.33.34-.67.66-1,1l-1,1c-2.33,2.42-4.72,4.37-6.99,6.99-1,.66-1.99,1.34-3,2-8.75,5.76-16.98,12.23-26.3,17.15-4.64,2.45-19.31,10.03-23.6,8.3-1.79-.72-12.32-10.32-14.56-12.44-22.68-21.46-55.85-68.82-14.46-89.94,8.11-1.76,13.27-1.32,20.98,1Z"/>
      <path class="cls-12" d="M395.34,695.33c.13.28,1.55,1.01,2.32,3.15,2.85,7.87,1.69,14.25-.84,21.86-.54,1.62.17,3.53-2.49,2.96,3.07-10.15,4.37-17.49,1-27.97Z"/>
      <path class="cls-12" d="M355.38,681.35l7.16-4.33c4.99-1.69,17.19.11,21.18,3.26,1.05.83.53,1.96.63,2.07-10.22-5.25-18.43-5.21-28.97-1Z"/>
      <path class="cls-12" d="M297.44,667.36c5.36-2.73,6.97-3.6,13.5-3,1.76.16,8.08,1.06,7.48,4-7.71-2.31-12.87-2.76-20.98-1Z"/>
      <path class="cls-12" d="M385.35,683.34c5.37.13,7.17,6.66,8.99,9.99-2.64-3.76-5.8-6.76-8.99-9.99Z"/>
      <path class="cls-12" d="M323.42,670.36l-4-2c2.58.94,1.53.05,4,2Z"/>
      <path class="cls-12" d="M394.35,724.3c-1.84,5.74-1.95,4.82-5.99,8.99l5.99-8.99Z"/>
      <path class="cls-12" d="M353.39,682.34l-2,2c.89-.99-1.67-.71,2-2Z"/>
      <path class="cls-12" d="M331.41,678.35c-1.96-2.44-3.7-3.96-5.99-5.99,2.8.43,5.57,3.21,5.99,5.99Z"/>
      <path class="cls-12" d="M386.35,735.29l1-1c-.33.34-.67.66-1,1Z"/>
      <path class="cls-12" d="M376.36,744.28c1-.66,1.99-1.34,3-2-.86,1-1.52,3.41-3,2Z"/>
    </g>
  </g>
</svg>